<?xml version="1.0" encoding="utf-8"?>
<!-- Generator: Adobe Illustrator 16.0.0, SVG Export Plug-In . SVG Version: 6.00 Build 0)  -->
<!DOCTYPE svg PUBLIC "-//W3C//DTD SVG 1.1//EN" "http://www.w3.org/Graphics/SVG/1.1/DTD/svg11.dtd">
<svg version="1.1" id="Layer_1" xmlns="http://www.w3.org/2000/svg" xmlns:xlink="http://www.w3.org/1999/xlink" x="0px" y="0px"
	 width="30px" height="30px" viewBox="0 0 30 30" enable-background="new 0 0 30 30" xml:space="preserve">
<g>
	<g>
		<path fill="#19ACE0" d="M27.453,2.557c-0.002-0.002-0.002-0.003-0.006-0.004c0-0.001-0.002-0.003-0.005-0.004
			c-0.412-0.409-1.003-0.532-1.545-0.321L2.296,11.456c-0.624,0.245-0.989,0.854-0.91,1.521c0.08,0.664,0.579,1.171,1.244,1.261
			l8.686,4.702c0.021,0.002,0.038,0.021,0.041,0.04l4.407,8.389c0.088,0.664,0.595,1.166,1.262,1.246
			c0.059,0.008,0.12,0.01,0.18,0.01c0.594,0,1.118-0.354,1.34-0.92l9.229-23.603C27.982,3.561,27.861,2.968,27.453,2.557z
			 M2.816,12.853c-0.026-0.004-0.037-0.006-0.041-0.043s0.007-0.041,0.031-0.051l22.084-8.634L11.709,17.598
			C11.642,17.578,2.816,12.853,2.816,12.853z M17.241,27.195c-0.008,0.025-0.012,0.035-0.051,0.029
			c-0.037-0.004-0.04-0.016-0.043-0.041c0,0-4.431-8.528-4.45-8.596L25.878,5.113L17.241,27.195z"/>
	</g>
</g>
</svg>
