<?xml version="1.0" encoding="utf-8"?>
<!-- Generator: Adobe Illustrator 16.0.0, SVG Export Plug-In . SVG Version: 6.00 Build 0)  -->
<!DOCTYPE svg PUBLIC "-//W3C//DTD SVG 1.1//EN" "http://www.w3.org/Graphics/SVG/1.1/DTD/svg11.dtd">
<svg version="1.1" id="Capa_1" xmlns="http://www.w3.org/2000/svg" xmlns:xlink="http://www.w3.org/1999/xlink" x="0px" y="0px"
	 width="20px" height="20px" viewBox="205.062 205.062 20 20" enable-background="new 205.062 205.062 20 20" xml:space="preserve">
<g>
	<path id="Behance" fill="#0077FF" d="M222.318,210.733h-4.511v-1.121h4.512L222.318,210.733L222.318,210.733z M214.804,215.329
		c0.291,0.45,0.437,0.997,0.437,1.642c0,0.663-0.163,1.26-0.497,1.786c-0.213,0.349-0.477,0.643-0.793,0.88
		c-0.356,0.275-0.779,0.463-1.264,0.563c-0.487,0.101-1.015,0.151-1.582,0.151h-5.045v-11.202h5.411
		c1.363,0.021,2.33,0.417,2.901,1.193c0.343,0.476,0.513,1.047,0.513,1.71c0,0.685-0.172,1.233-0.519,1.65
		c-0.192,0.233-0.477,0.445-0.853,0.636C214.083,214.547,214.515,214.876,214.804,215.329z M208.643,213.564h2.371
		c0.487,0,0.88-0.092,1.185-0.277c0.303-0.185,0.453-0.514,0.453-0.985c0-0.521-0.2-0.867-0.601-1.034
		c-0.345-0.115-0.787-0.175-1.322-0.175h-2.085V213.564z M212.88,216.81c0-0.583-0.237-0.984-0.712-1.2
		c-0.265-0.123-0.64-0.186-1.12-0.189h-2.404v2.985h2.367c0.487,0,0.863-0.063,1.135-0.196
		C212.635,217.965,212.88,217.499,212.88,216.81z M223.992,214.987c0.054,0.366,0.079,0.897,0.069,1.594h-5.842
		c0.031,0.807,0.31,1.37,0.838,1.692c0.319,0.202,0.705,0.302,1.156,0.302c0.478,0,0.866-0.12,1.165-0.368
		c0.162-0.132,0.306-0.317,0.431-0.552h2.142c-0.056,0.477-0.314,0.96-0.778,1.451c-0.718,0.781-1.724,1.172-3.018,1.172
		c-1.067,0-2.01-0.33-2.826-0.988c-0.814-0.659-1.223-1.729-1.223-3.214c0-1.392,0.367-2.458,1.104-3.2
		c0.739-0.743,1.694-1.113,2.871-1.113c0.697,0,1.325,0.125,1.888,0.375c0.557,0.25,1.021,0.645,1.385,1.188
		C223.682,213.805,223.894,214.358,223.992,214.987z M221.885,215.196c-0.039-0.557-0.226-0.98-0.561-1.269
		c-0.333-0.289-0.748-0.435-1.243-0.435c-0.539,0-0.957,0.155-1.252,0.461c-0.299,0.305-0.483,0.717-0.561,1.242H221.885
		L221.885,215.196z"/>
</g>
</svg>
