<?xml version="1.0" encoding="utf-8"?>
<!-- Generator: Adobe Illustrator 16.0.0, SVG Export Plug-In . SVG Version: 6.00 Build 0)  -->
<!DOCTYPE svg PUBLIC "-//W3C//DTD SVG 1.1//EN" "http://www.w3.org/Graphics/SVG/1.1/DTD/svg11.dtd">
<svg version="1.1" id="Capa_1" xmlns="http://www.w3.org/2000/svg" xmlns:xlink="http://www.w3.org/1999/xlink" x="0px" y="0px"
	 width="20px" height="20px" viewBox="0 0 20 20" enable-background="new 0 0 20 20" xml:space="preserve">
<g>
	<path fill="#CBCBCB" d="M-18.542,17.258c-0.379-0.037-0.759-0.07-1.138-0.113c-1.846-0.205-3.61-0.686-5.268-1.543
		c-0.378-0.195-0.584-0.459-0.632-0.875c-0.118-0.986-0.149-1.971,0.146-2.938c0.251-0.816,0.782-1.379,1.605-1.615
		c1.117-0.32,2.153-0.801,3.127-1.43c0.29-0.186,0.597-0.135,0.765,0.127c0.166,0.256,0.086,0.561-0.205,0.748
		c-1,0.652-2.06,1.182-3.217,1.488c-0.711,0.188-1.059,0.662-1.178,1.342c-0.118,0.656-0.104,1.316-0.042,1.975
		c0.014,0.146,0.069,0.236,0.207,0.307c1.204,0.609,2.478,1.008,3.802,1.238c2.164,0.381,4.321,0.338,6.461-0.16
		c1.053-0.246,2.072-0.588,3.029-1.102c0.066-0.035,0.143-0.123,0.15-0.195c0.096-0.777,0.123-1.559-0.086-2.326
		c-0.146-0.533-0.48-0.895-1.031-1.043c-1.176-0.324-2.266-0.848-3.287-1.512c-0.18-0.113-0.301-0.266-0.297-0.484
		c0.004-0.395,0.424-0.631,0.771-0.439c0.197,0.107,0.385,0.234,0.576,0.348c0.816,0.484,1.684,0.852,2.596,1.113
		c0.848,0.244,1.389,0.811,1.645,1.65c0.258,0.848,0.254,1.719,0.178,2.594c-0.018,0.176-0.049,0.348-0.076,0.521
		c-0.039,0.271-0.193,0.451-0.436,0.586c-0.875,0.479-1.799,0.84-2.756,1.111c-1.168,0.334-2.363,0.525-3.578,0.594
		c-0.09,0.006-0.178,0.021-0.268,0.033C-17.5,17.258-18.021,17.258-18.542,17.258z"/>
	<path fill="#CBCBCB" d="M-17.451-1.37c0.208,0.035,0.415,0.064,0.622,0.106c0.773,0.154,1.451,0.491,1.996,1.073
		c0.586,0.625,0.896,1.379,1.01,2.211c0.162,1.198,0.145,2.394-0.176,3.569c-0.244,0.901-0.656,1.706-1.398,2.305
		c-0.725,0.584-1.57,0.791-2.479,0.768c-0.865-0.023-1.657-0.271-2.321-0.854c-0.571-0.502-0.94-1.134-1.179-1.846
		c-0.376-1.115-0.439-2.263-0.35-3.427c0.059-0.758,0.218-1.487,0.623-2.141c0.598-0.964,1.478-1.508,2.59-1.693
		c0.124-0.021,0.247-0.047,0.372-0.071C-17.911-1.37-17.681-1.37-17.451-1.37z M-14.761,3.197c-0.023-0.297-0.035-0.6-0.074-0.9
		c-0.066-0.527-0.213-1.032-0.521-1.476c-0.426-0.617-1.027-0.951-1.762-1.078c-0.768-0.135-1.512-0.073-2.2,0.315
		c-0.855,0.484-1.213,1.284-1.338,2.213c-0.114,0.846-0.103,1.692,0.045,2.534c0.129,0.731,0.358,1.426,0.864,1.99
		c0.724,0.809,1.661,0.942,2.664,0.76c0.986-0.179,1.566-0.84,1.92-1.729C-14.829,4.983-14.761,4.098-14.761,3.197z"/>
</g>
<g>
	<path fill-rule="evenodd" clip-rule="evenodd" fill="#CBCBCB" d="M13.556,0.896c0.77,0,1.541,0,2.312,0
		c0.17,0.106,0.212,0.266,0.206,0.455c-0.008,0.247-0.003,0.494-0.003,0.757c0.086,0,0.149,0,0.213,0c0.593,0,1.185,0,1.777,0
		c0.337,0,0.437,0.099,0.437,0.432c0,5.377,0,10.755,0.003,16.133c0,0.188-0.051,0.333-0.215,0.431c-5.523,0-11.048,0-16.571,0
		C1.555,19.011,1.5,18.872,1.5,18.689C1.502,13.3,1.501,7.912,1.502,2.522c0-0.31,0.105-0.414,0.418-0.414c0.604,0,1.208,0,1.813,0
		c0.062,0,0.124,0,0.195,0c0-0.277,0.005-0.526-0.002-0.774C3.921,1.15,3.969,0.999,4.132,0.896c0.771,0,1.542,0,2.312,0
		c0.174,0.091,0.226,0.237,0.218,0.427C6.652,1.582,6.66,1.84,6.66,2.097c2.239,0,4.453,0,6.681,0c0-0.271,0.008-0.532-0.004-0.791
		C13.329,1.12,13.395,0.986,13.556,0.896z M17.878,18.492c0-4.153,0-8.291,0-12.428c-5.261,0-10.507,0-15.757,0
		c0,4.148,0,8.286,0,12.428C7.377,18.492,12.621,18.492,17.878,18.492z M2.113,5.434c5.269,0,10.519,0,15.766,0
		c0-0.911,0-1.809,0-2.706c-0.607,0-1.201,0-1.809,0c0,0.274,0.003,0.535-0.001,0.795c-0.001,0.303-0.103,0.405-0.406,0.405
		c-0.639,0.002-1.279,0.001-1.919,0c-0.308,0-0.403-0.098-0.403-0.403c-0.002-0.264,0-0.529,0-0.795c-2.24,0-4.457,0-6.681,0
		c0,0.276,0,0.537-0.001,0.798c-0.001,0.303-0.097,0.4-0.406,0.401c-0.628,0.001-1.255,0-1.883,0c-0.349,0-0.439-0.091-0.44-0.443
		c0-0.252,0-0.504,0-0.757c-0.622,0-1.216,0-1.815,0C2.113,3.636,2.113,4.529,2.113,5.434z M6.041,3.314c0-0.615,0-1.208,0-1.798
		c-0.506,0-0.999,0-1.49,0c0,0.607,0,1.2,0,1.798C5.055,3.314,5.543,3.314,6.041,3.314z M13.952,3.31c0.508,0,1.001,0,1.5,0
		c0-0.607,0-1.201,0-1.796c-0.507,0-1,0-1.5,0C13.952,2.115,13.952,2.704,13.952,3.31z"/>
	<path fill-rule="evenodd" clip-rule="evenodd" fill="#CBCBCB" d="M4.246,16.665c0-2.933,0-5.853,0-8.782c3.835,0,7.66,0,11.501,0
		c0,2.922,0,5.847,0,8.782C11.921,16.665,8.09,16.665,4.246,16.665z M6.952,13.333c0-0.715,0-1.413,0-2.108
		c-0.711,0-1.406,0-2.098,0c0,0.71,0,1.405,0,2.108C5.555,13.333,6.245,13.333,6.952,13.333z M15.143,13.333
		c0-0.714,0-1.413,0-2.107c-0.708,0-1.402,0-2.099,0c0,0.709,0,1.404,0,2.107C13.747,13.333,14.438,13.333,15.143,13.333z
		 M4.854,8.488c0,0.715,0,1.41,0,2.105c0.708,0,1.404,0,2.099,0c0-0.708,0-1.403,0-2.105C6.248,8.488,5.557,8.488,4.854,8.488z
		 M15.15,8.494c-0.712,0-1.407,0-2.106,0c0,0.709,0,1.404,0,2.101c0.708,0,1.404,0,2.106,0C15.15,9.892,15.15,9.2,15.15,8.494z
		 M4.85,16.059c0.708,0,1.404,0,2.106,0c0-0.708,0-1.402,0-2.103c-0.708,0-1.404,0-2.106,0C4.85,14.658,4.85,15.349,4.85,16.059z
		 M13.045,13.952c0,0.704,0,1.403,0,2.106c0.71,0,1.405,0,2.1,0c0-0.709,0-1.405,0-2.106C14.442,13.952,13.75,13.952,13.045,13.952z
		 M7.582,10.594c0.711,0,1.407,0,2.097,0c0-0.709,0-1.404,0-2.102c-0.708,0-1.398,0-2.097,0C7.582,9.195,7.582,9.888,7.582,10.594z
		 M10.316,10.595c0.704,0,1.399,0,2.095,0c0-0.707,0-1.403,0-2.104c-0.703,0-1.394,0-2.095,0
		C10.316,9.196,10.316,9.893,10.316,10.595z M9.684,13.33c0-0.708,0-1.403,0-2.107c-0.705,0-1.399,0-2.1,0c0,0.707,0,1.402,0,2.107
		C8.284,13.33,8.974,13.33,9.684,13.33z M10.31,13.326c0.708,0,1.406,0,2.101,0c0-0.71,0-1.405,0-2.1c-0.706,0-1.4,0-2.101,0
		C10.31,11.927,10.31,12.613,10.31,13.326z M7.587,13.955c0,0.71,0,1.406,0,2.105c0.706,0,1.395,0,2.097,0c0-0.706,0-1.401,0-2.105
		C8.982,13.955,8.292,13.955,7.587,13.955z M12.418,13.956c-0.712,0-1.403,0-2.102,0c0,0.704,0,1.4,0,2.102c0.707,0,1.401,0,2.102,0
		C12.418,15.351,12.418,14.66,12.418,13.956z"/>
</g>
</svg>
