<?xml version="1.0" encoding="utf-8"?>
<!-- Generator: Adobe Illustrator 16.0.0, SVG Export Plug-In . SVG Version: 6.00 Build 0)  -->
<!DOCTYPE svg PUBLIC "-//W3C//DTD SVG 1.1//EN" "http://www.w3.org/Graphics/SVG/1.1/DTD/svg11.dtd">
<svg version="1.1" id="Layer_1" xmlns="http://www.w3.org/2000/svg" xmlns:xlink="http://www.w3.org/1999/xlink" x="0px" y="0px"
	 width="20px" height="20px" viewBox="0 0 20 20" enable-background="new 0 0 20 20" xml:space="preserve">
<path fill-rule="evenodd" clip-rule="evenodd" fill="#FFFFFF" d="M81.551,39.782c-2.292,0-4.584,0.002-6.877-0.003
	c-1.619-0.002-2.559-0.947-2.561-2.575c-0.005-3.03-0.006-6.063,0-9.095c0.003-1.572,0.957-2.521,2.537-2.523
	c4.609-0.005,9.22-0.004,13.829,0c1.619,0.001,2.56,0.947,2.563,2.574c0.003,3.031,0.004,6.063-0.002,9.096
	c-0.002,1.571-0.957,2.519-2.537,2.523C86.186,39.784,83.868,39.782,81.551,39.782z M79.268,32.688
	c-1.702,1.947-3.359,3.845-5.105,5.843c5.006,0,9.843,0,14.833,0c-1.765-2.019-3.429-3.919-5.087-5.815
	c-0.082,0.049-0.129,0.068-0.165,0.1c-0.45,0.381-0.898,0.766-1.349,1.147c-0.785,0.669-0.848,0.669-1.611,0.021
	C80.295,33.571,79.811,33.153,79.268,32.688z M74.267,26.805c2.521,2.16,4.913,4.209,7.315,6.267
	c2.448-2.104,4.815-4.136,7.297-6.267C83.933,26.805,79.195,26.805,74.267,26.805z M73.332,27.601c0,3.427,0,6.635,0,10.028
	c1.738-1.981,3.363-3.838,5.023-5.731C76.697,30.48,75.084,29.099,73.332,27.601z M89.804,37.61c0-3.387,0-6.604,0-9.995
	c-1.733,1.483-3.349,2.865-5.005,4.282C86.459,33.791,88.084,35.647,89.804,37.61z"/>
<path fill-rule="evenodd" clip-rule="evenodd" fill="#FFFFFF" d="M15.569,18.107C8.171,17.988,1.575,11.23,1.639,3.836
	C1.651,2.541,3.112,0.862,4.36,0.712c1.274-0.154,2.165,0.63,2.67,2.249c0.483,1.547,0.917,3.043-0.64,4.297
	C6.251,7.37,6.321,7.859,6.419,8.128c0.917,2.532,2.652,4.285,5.187,5.184c0.343,0.121,0.93-0.022,1.225-0.265
	c1.444-1.184,4.801-0.737,5.837,0.838c0.979,1.485-0.46,4.048-2.374,4.223C16.054,18.129,15.812,18.109,15.569,18.107z"/>
</svg>
