<?xml version="1.0" encoding="utf-8"?>
<!-- Generator: Adobe Illustrator 16.0.0, SVG Export Plug-In . SVG Version: 6.00 Build 0)  -->
<!DOCTYPE svg PUBLIC "-//W3C//DTD SVG 1.1//EN" "http://www.w3.org/Graphics/SVG/1.1/DTD/svg11.dtd">
<svg version="1.1" id="Layer_1" xmlns="http://www.w3.org/2000/svg" xmlns:xlink="http://www.w3.org/1999/xlink" x="0px" y="0px"
	 width="20px" height="20px" viewBox="0 0 20 20" enable-background="new 0 0 20 20" xml:space="preserve">
<g>
	<path fill-rule="evenodd" clip-rule="evenodd" fill="#9E2380" d="M40.917,5.548c-0.022,1.438-0.391,2.793-0.92,4.111
		c-0.833,2.079-1.999,3.969-3.33,5.758c-0.557,0.752-1.162,1.465-1.748,2.191c-0.151,0.189-0.412,0.182-0.601-0.025
		c-0.302-0.338-0.603-0.678-0.876-1.035c-1.557-2.035-2.862-4.217-3.795-6.61c-0.43-1.098-0.751-2.227-0.873-3.404
		c-0.166-1.599,0.062-3.118,0.987-4.475c0.866-1.27,2.091-2.01,3.58-2.316c1.621-0.334,3.195-0.198,4.676,0.584
		c1.557,0.822,2.444,2.141,2.752,3.857C40.85,4.634,40.869,5.093,40.917,5.548z M34.643,16.578c0.06-0.066,0.097-0.105,0.132-0.146
		c1.019-1.189,1.93-2.455,2.744-3.793c0.813-1.334,1.523-2.723,2.012-4.215c0.412-1.264,0.636-2.551,0.412-3.881
		c-0.294-1.75-1.247-2.986-2.908-3.646c-1.107-0.44-2.253-0.491-3.415-0.277c-2.364,0.434-3.806,2.143-3.96,4.545
		c-0.092,1.449,0.246,2.826,0.746,4.17c0.848,2.284,2.079,4.358,3.516,6.313C34.149,15.957,34.393,16.256,34.643,16.578z"/>
	<path fill-rule="evenodd" clip-rule="evenodd" fill="#9E2380" d="M34.817,8.099c-1.387-0.021-2.468-1.143-2.443-2.537
		c0.022-1.334,1.16-2.422,2.51-2.399c1.356,0.022,2.437,1.152,2.417,2.528C37.281,7.019,36.146,8.121,34.817,8.099z M34.84,7.177
		c0.857,0.002,1.541-0.675,1.549-1.535c0.008-0.857-0.671-1.549-1.526-1.555c-0.886-0.006-1.574,0.668-1.576,1.542
		C33.284,6.493,33.97,7.176,34.84,7.177z"/>
</g>
<g>
	<path fill-rule="evenodd" clip-rule="evenodd" fill="#9E2380" d="M0.439,4.636C0.375,4.244,0.564,3.969,0.808,3.688
		c1.065-1.227,2.347-2.144,3.849-2.755c0.607-0.248,1.15-0.078,1.646,0.294c0.09,0.069,0.164,0.185,0.201,0.294
		c0.472,1.42,0.94,2.843,1.402,4.266c0.125,0.387,0.1,0.784-0.064,1.147C7.75,7.136,7.595,7.333,7.418,7.463
		C7.029,7.75,6.609,7.993,6.2,8.253C5.834,8.488,5.741,8.75,5.919,9.151c0.087,0.193,0.212,0.373,0.34,0.542
		c1.185,1.562,2.532,2.96,4.129,4.102c0.231,0.165,0.529,0.252,0.811,0.328c0.226,0.06,0.404-0.056,0.53-0.271
		c0.243-0.407,0.507-0.8,0.763-1.201c0.285-0.444,0.935-0.731,1.455-0.613c1.493,0.33,2.964,0.729,4.361,1.36
		c0.712,0.32,1.069,1.175,0.778,1.91c-0.65,1.661-1.693,3.033-3.083,4.144c-0.058,0.047-0.149,0.075-0.224,0.075
		c-1.833-0.026-3.62-0.314-5.305-1.057C5.798,16.41,2.6,12.983,1.018,8.097C0.849,7.577,0.735,7.035,0.648,6.494
		C0.549,5.879,0.506,5.256,0.439,4.636z M15.205,18.752c0.181-0.052,0.405-0.052,0.536-0.163c1.152-0.981,2.042-2.163,2.586-3.585
		c0.133-0.346-0.043-0.729-0.379-0.874c-0.145-0.063-0.289-0.134-0.438-0.181c-1.164-0.354-2.323-0.731-3.497-1.046
		c-0.538-0.143-0.742-0.031-0.979,0.398c-0.188,0.339-0.43,0.653-0.626,0.988c-0.287,0.483-0.729,0.648-1.251,0.64
		c-0.408-0.007-0.792-0.132-1.123-0.374c-1.773-1.3-3.321-2.821-4.583-4.625C5.319,9.743,5.212,9.527,5.143,9.31
		C4.958,8.726,5.004,7.963,5.771,7.556C6.114,7.374,6.432,7.14,6.762,6.93C7.21,6.645,7.291,6.474,7.129,5.961
		C6.719,4.658,6.295,3.357,5.871,2.059C5.734,1.64,5.373,1.479,4.954,1.647C3.585,2.193,2.439,3.051,1.488,4.169
		C1.375,4.302,1.307,4.52,1.31,4.696c0.021,1.114,0.192,2.206,0.526,3.27c1.068,3.403,3.131,6.086,6.011,8.146
		C10.038,17.679,12.477,18.596,15.205,18.752z"/>
	<path fill-rule="evenodd" clip-rule="evenodd" fill="#9E2380" d="M19.533,9.507c0,0.112,0.003,0.225-0.001,0.335
		c-0.009,0.247-0.154,0.376-0.385,0.399c-0.204,0.02-0.374-0.154-0.397-0.384c-0.052-0.51-0.068-1.023-0.156-1.526
		c-0.6-3.404-3.235-6.14-6.616-6.857c-0.562-0.119-1.143-0.146-1.716-0.205c-0.321-0.032-0.505-0.174-0.498-0.41
		c0.007-0.243,0.198-0.386,0.517-0.386c4.251-0.002,8.128,3.127,9.02,7.293c0.123,0.572,0.185,1.156,0.273,1.733
		C19.561,9.503,19.548,9.504,19.533,9.507z"/>
	<path fill-rule="evenodd" clip-rule="evenodd" fill="#9E2380" d="M16.914,9.47c0.004,0.102,0.016,0.204,0.016,0.307
		c-0.001,0.246-0.17,0.444-0.393,0.469c-0.219,0.022-0.404-0.151-0.44-0.412c-0.062-0.489-0.076-0.989-0.193-1.465
		c-0.62-2.537-2.894-4.363-5.505-4.447c-0.055-0.001-0.11,0-0.167-0.005C9.945,3.897,9.757,3.728,9.764,3.501
		c0.007-0.234,0.197-0.398,0.485-0.393c0.777,0.013,1.541,0.133,2.266,0.425c2.501,1.007,3.952,2.855,4.369,5.517
		C16.904,9.189,16.904,9.33,16.914,9.47z"/>
	<path fill-rule="evenodd" clip-rule="evenodd" fill="#9E2380" d="M10.28,5.889c2.108,0.092,3.788,1.812,3.818,3.837
		c0.006,0.332-0.116,0.501-0.37,0.519c-0.25,0.016-0.417-0.174-0.438-0.502c-0.081-1.334-0.737-2.28-1.953-2.813
		c-0.332-0.146-0.714-0.196-1.079-0.246C9.903,6.637,9.741,6.535,9.744,6.27c0.004-0.269,0.175-0.39,0.533-0.381
		C10.304,5.889,10.331,5.889,10.28,5.889z"/>
</g>
</svg>
