<?xml version="1.0" encoding="utf-8"?>
<!-- Generator: Adobe Illustrator 16.0.0, SVG Export Plug-In . SVG Version: 6.00 Build 0)  -->
<!DOCTYPE svg PUBLIC "-//W3C//DTD SVG 1.1//EN" "http://www.w3.org/Graphics/SVG/1.1/DTD/svg11.dtd">
<svg version="1.1" id="Layer_1" xmlns="http://www.w3.org/2000/svg" xmlns:xlink="http://www.w3.org/1999/xlink" x="0px" y="0px"
	 width="20px" height="20px" viewBox="0 0 20 20" enable-background="new 0 0 20 20" xml:space="preserve">
<path fill-rule="evenodd" clip-rule="evenodd" fill="#FFFFFF" d="M9.974,17.1c-2.292,0-4.585,0.002-6.877-0.003
	c-1.619-0.002-2.559-0.947-2.561-2.575c-0.004-3.03-0.006-6.063,0-9.095c0.003-1.572,0.958-2.522,2.537-2.523
	c4.61-0.005,9.22-0.004,13.829,0c1.619,0.001,2.56,0.947,2.563,2.574c0.003,3.032,0.004,6.064-0.002,9.096
	c-0.002,1.571-0.957,2.519-2.537,2.523C14.608,17.102,12.291,17.1,9.974,17.1z M7.69,10.006c-1.702,1.947-3.359,3.845-5.105,5.843
	c5.005,0,9.843,0,14.833,0c-1.765-2.019-3.429-3.919-5.087-5.815c-0.082,0.049-0.129,0.068-0.165,0.1
	c-0.45,0.381-0.898,0.766-1.349,1.147c-0.786,0.669-0.848,0.669-1.611,0.021C8.718,10.889,8.234,10.471,7.69,10.006z M2.689,4.122
	c2.521,2.161,4.913,4.209,7.315,6.267c2.448-2.104,4.815-4.136,7.297-6.267C12.355,4.122,7.619,4.122,2.689,4.122z M1.755,4.918
	c0,3.427,0,6.635,0,10.028c1.737-1.981,3.363-3.838,5.022-5.731C5.121,7.797,3.507,6.416,1.755,4.918z M18.227,14.928
	c0-3.387,0-6.605,0-9.995c-1.733,1.483-3.349,2.865-5.005,4.282C14.882,11.108,16.507,12.965,18.227,14.928z"/>
</svg>
