<?xml version="1.0" encoding="utf-8"?>
<!-- Generator: Adobe Illustrator 16.0.0, SVG Export Plug-In . SVG Version: 6.00 Build 0)  -->
<!DOCTYPE svg PUBLIC "-//W3C//DTD SVG 1.1//EN" "http://www.w3.org/Graphics/SVG/1.1/DTD/svg11.dtd">
<svg version="1.1" id="Layer_1" xmlns="http://www.w3.org/2000/svg" xmlns:xlink="http://www.w3.org/1999/xlink" x="0px" y="0px"
	 width="30px" height="30px" viewBox="0 0 30 30" enable-background="new 0 0 30 30" xml:space="preserve">
<g>
	<path fill-rule="evenodd" clip-rule="evenodd" fill="#FFFFFF" d="M12.457,29.257c-0.312-0.172-0.412-0.439-0.395-0.789
		c0.019-0.367,0.011-0.742-0.002-1.113c-0.004-0.074-0.074-0.188-0.141-0.211c-0.883-0.354-1.772-0.691-2.721-1.057
		c-0.254,0.258-0.57,0.58-0.891,0.902c-0.368,0.363-0.641,0.365-1.002,0.006c-0.973-0.971-1.944-1.943-2.915-2.914
		c-0.399-0.402-0.395-0.656,0.011-1.064c0.295-0.297,0.59-0.592,0.884-0.887c0.012-0.014,0.018-0.031,0.018-0.031
		c-0.263-0.582-0.529-1.152-0.772-1.73c-0.122-0.289-0.211-0.594-0.295-0.895c-0.041-0.148-0.108-0.191-0.251-0.186
		c-0.381,0.006-0.761,0.002-1.142,0.002c-0.552-0.002-0.744-0.189-0.745-0.732c-0.001-1.373-0.001-2.749,0-4.12
		c0-0.523,0.199-0.715,0.731-0.717c0.362-0.001,0.725-0.012,1.085,0.004c0.201,0.009,0.293-0.051,0.347-0.252
		c0.261-0.983,0.683-1.898,1.214-2.764c0.31-0.506,0.654-0.556,1.076-0.14c0.509,0.501,1.016,1.005,1.523,1.508
		c0.371,0.369,0.386,0.515,0.161,0.981c-1.29,2.674-1.138,5.26,0.51,7.729c0.849,1.271,2.031,2.146,3.458,2.691
		c0.139,0.051,0.281,0.098,0.415,0.162c0.285,0.139,0.405,0.426,0.304,0.689c-0.109,0.285-0.399,0.441-0.704,0.332
		c-0.427-0.152-0.863-0.299-1.257-0.516c-3.163-1.752-4.739-4.439-4.67-8.06c0.02-1.082,0.295-2.126,0.75-3.114
		c0.083-0.182,0.07-0.293-0.078-0.43c-0.264-0.248-0.505-0.518-0.813-0.837c-0.218,0.5-0.432,0.935-0.601,1.388
		c-0.145,0.389-0.242,0.797-0.356,1.198c-0.119,0.416-0.284,0.544-0.716,0.544c-0.408,0.001-0.816,0-1.245,0c0,1.11,0,2.206,0,3.343
		c0.411,0,0.825-0.002,1.238,0c0.439,0,0.616,0.119,0.717,0.541c0.263,1.092,0.687,2.111,1.272,3.066
		c0.221,0.363,0.184,0.563-0.122,0.867c-0.294,0.293-0.597,0.584-0.892,0.871c0.804,0.797,1.585,1.572,2.397,2.375
		c0.277-0.283,0.57-0.59,0.869-0.889c0.293-0.293,0.5-0.334,0.845-0.121c0.972,0.596,2.011,1.025,3.119,1.293
		c0.38,0.09,0.501,0.271,0.504,0.66c0.002,0.424,0,0.848,0,1.289c1.114,0,2.205,0,3.34,0c0-0.395,0-0.787,0-1.182
		c0.002-0.525,0.112-0.684,0.614-0.803c1.039-0.244,2.006-0.654,2.916-1.207c0.456-0.277,0.622-0.25,0.998,0.131
		c0.275,0.275,0.545,0.557,0.801,0.816c0.792-0.795,1.57-1.572,2.39-2.395c-0.264-0.252-0.564-0.533-0.859-0.822
		c-0.334-0.33-0.365-0.516-0.126-0.912c0.57-0.941,1-1.938,1.251-3.014c0.105-0.451,0.279-0.566,0.755-0.566
		c0.398-0.002,0.796,0,1.211,0c0-1.119,0-2.217,0-3.341c-0.404,0-0.801,0-1.196,0c-0.505-0.001-0.629-0.13-0.789-0.604
		c-0.255-0.762-0.547-1.511-0.829-2.265c-0.025-0.065-0.068-0.124-0.129-0.228c-0.312,0.319-0.609,0.607-0.882,0.919
		c-0.052,0.058-0.017,0.223,0.025,0.319c0.535,1.247,0.801,2.541,0.749,3.9c-0.144,3.594-2.616,6.789-6.056,7.822
		c-0.364,0.109-0.668-0.023-0.77-0.338c-0.093-0.291,0.066-0.596,0.415-0.709c0.893-0.291,1.722-0.693,2.443-1.293
		c2.064-1.705,3.019-3.893,2.817-6.569c-0.072-0.965-0.361-1.87-0.801-2.729c-0.24-0.466-0.216-0.615,0.153-0.98
		c0.506-0.504,1.015-1.008,1.522-1.51c0.424-0.418,0.771-0.373,1.079,0.129c0.528,0.867,0.95,1.782,1.213,2.765
		c0.053,0.191,0.133,0.269,0.343,0.258c0.388-0.02,0.777-0.01,1.168-0.003c0.438,0.006,0.653,0.218,0.655,0.653
		c0.002,1.421,0.002,2.84,0,4.26c-0.002,0.438-0.218,0.648-0.655,0.654c-0.407,0.006-0.815-0.004-1.224,0.008
		c-0.081,0.004-0.204,0.061-0.229,0.121c-0.354,0.895-0.697,1.791-1.064,2.744c0.26,0.258,0.585,0.572,0.904,0.893
		c0.361,0.363,0.361,0.641-0.002,1.004c-0.977,0.98-1.954,1.957-2.935,2.934c-0.363,0.361-0.637,0.359-1.002-0.004
		c-0.322-0.32-0.64-0.643-0.895-0.9c-0.945,0.363-1.834,0.703-2.717,1.057c-0.066,0.025-0.14,0.137-0.144,0.211
		c-0.015,0.371-0.022,0.746-0.004,1.113c0.019,0.35-0.083,0.617-0.393,0.789C15.649,29.257,14.053,29.257,12.457,29.257z"/>
	<path fill-rule="evenodd" clip-rule="evenodd" fill="#FFFFFF" d="M21.479,0.743c0.312,0.174,0.396,0.443,0.395,0.789
		c-0.011,1.819-0.004,3.639-0.004,5.458c0,0.1,0,0.199,0,0.324c0.394,0,0.764,0.005,1.133-0.001
		c0.279-0.005,0.519,0.059,0.646,0.333c0.133,0.28,0.002,0.497-0.176,0.706c-2.033,2.388-4.063,4.779-6.101,7.165
		c-0.164,0.191-0.251,0.379-0.243,0.644c0.021,0.642,0,1.282,0.011,1.921c0.004,0.262-0.085,0.463-0.268,0.645
		c-1.09,1.076-2.178,2.154-3.264,3.234c-0.2,0.199-0.424,0.311-0.7,0.199c-0.28-0.111-0.344-0.354-0.344-0.639
		c0.005-1.791-0.002-3.582,0.009-5.372c0.001-0.253-0.073-0.433-0.234-0.623c-2.036-2.383-4.069-4.774-6.101-7.163
		c-0.029-0.035-0.06-0.071-0.088-0.107C6.002,8.065,5.944,7.86,6.058,7.633c0.111-0.221,0.3-0.318,0.544-0.318
		c0.501,0.001,1.002,0,1.504,0c4.129,0,8.26,0,12.39,0c0.074,0,0.146,0,0.238,0c0-1.818,0-3.622,0-5.442c-3.916,0-7.829,0-11.786,0
		c0,0.091,0,0.188,0,0.285c0,1.188,0.001,2.377,0,3.564c0,0.111-0.001,0.225-0.027,0.331c-0.058,0.248-0.278,0.42-0.522,0.424
		c-0.243,0.004-0.466-0.161-0.533-0.41C7.841,5.97,7.835,5.866,7.835,5.765C7.833,4.354,7.84,2.943,7.828,1.532
		C7.825,1.187,7.913,0.917,8.224,0.743C12.643,0.743,17.061,0.743,21.479,0.743z M21.925,8.446c-4.739,0-9.421,0-14.148,0
		c0.12,0.143,0.214,0.255,0.308,0.366c1.778,2.093,3.557,4.186,5.34,6.275c0.181,0.212,0.263,0.432,0.261,0.71
		c-0.008,1.389-0.004,2.782-0.004,4.174c0,0.094,0,0.189,0,0.281c0.029,0.014,0.061,0.025,0.09,0.039
		c0.72-0.734,1.443-1.471,2.154-2.213c0.064-0.068,0.09-0.197,0.092-0.299c0.008-0.668,0.01-1.339,0-2.006
		c-0.005-0.268,0.083-0.479,0.255-0.68c1.255-1.467,2.504-2.938,3.755-4.41C20.649,9.951,21.271,9.216,21.925,8.446z"/>
	<path fill-rule="evenodd" clip-rule="evenodd" fill="#FFFFFF" d="M14.713,2.916c1.066,0,2.131-0.003,3.198,0.001
		c0.471,0.002,0.745,0.333,0.62,0.728c-0.079,0.244-0.286,0.381-0.611,0.383c-0.564,0.005-1.129,0.002-1.695,0.002
		c-1.548,0-3.095,0-4.642-0.001c-0.074,0-0.15,0.003-0.223-0.006c-0.293-0.036-0.504-0.257-0.514-0.53
		c-0.011-0.281,0.204-0.525,0.504-0.568c0.092-0.013,0.186-0.01,0.278-0.01C12.656,2.914,13.685,2.915,14.713,2.916
		C14.713,2.915,14.713,2.915,14.713,2.916z"/>
	<path fill-rule="evenodd" clip-rule="evenodd" fill="#FFFFFF" d="M15.471,6.255c-0.203,0-0.407,0.01-0.61-0.003
		c-0.335-0.02-0.572-0.267-0.564-0.566c0.009-0.293,0.239-0.529,0.563-0.539c0.424-0.014,0.852-0.014,1.276,0.002
		c0.321,0.013,0.548,0.257,0.55,0.55c0,0.292-0.229,0.523-0.55,0.555c-0.019,0.002-0.037,0.002-0.057,0.002
		C15.878,6.257,15.673,6.256,15.471,6.255C15.471,6.256,15.471,6.256,15.471,6.255z"/>
	<path fill-rule="evenodd" clip-rule="evenodd" fill="#FFFFFF" d="M11.993,6.255c-0.194,0-0.39,0.01-0.584-0.003
		c-0.327-0.02-0.557-0.248-0.563-0.542c-0.007-0.303,0.229-0.551,0.57-0.563c0.398-0.013,0.797-0.014,1.196,0.001
		c0.328,0.011,0.557,0.248,0.564,0.542c0.006,0.303-0.231,0.545-0.572,0.563C12.402,6.265,12.197,6.255,11.993,6.255z"/>
	<path fill-rule="evenodd" clip-rule="evenodd" fill="#FFFFFF" d="M15.421,24.521c0.001,0.314-0.252,0.564-0.567,0.559
		c-0.297-0.004-0.552-0.256-0.554-0.549c-0.004-0.301,0.269-0.566,0.574-0.561C15.18,23.976,15.418,24.216,15.421,24.521z"/>
	<path fill-rule="evenodd" clip-rule="evenodd" fill="#FFFFFF" d="M18.301,6.254c-0.288-0.002-0.552-0.27-0.55-0.557
		c0.005-0.289,0.271-0.551,0.559-0.549c0.288,0.003,0.552,0.27,0.548,0.558C18.855,5.994,18.59,6.256,18.301,6.254z"/>
	<path fill-rule="evenodd" clip-rule="evenodd" fill="#FFFFFF" d="M14.486,13.087c-0.124,0.161-0.207,0.366-0.354,0.435
		c-0.148,0.071-0.366,0.031-0.544-0.009c-0.093-0.02-0.172-0.135-0.244-0.219c-0.639-0.746-1.279-1.492-1.908-2.248
		c-0.1-0.122-0.174-0.287-0.199-0.442c-0.036-0.22,0.079-0.425,0.288-0.485c0.168-0.049,0.37-0.015,0.547,0.024
		c0.084,0.018,0.156,0.125,0.222,0.202c0.638,0.747,1.278,1.494,1.908,2.248C14.309,12.722,14.374,12.886,14.486,13.087z"/>
</g>
</svg>
