<?xml version="1.0" encoding="utf-8"?>
<!-- Generator: Adobe Illustrator 16.0.0, SVG Export Plug-In . SVG Version: 6.00 Build 0)  -->
<!DOCTYPE svg PUBLIC "-//W3C//DTD SVG 1.1//EN" "http://www.w3.org/Graphics/SVG/1.1/DTD/svg11.dtd">
<svg version="1.1" id="Layer_1" xmlns="http://www.w3.org/2000/svg" xmlns:xlink="http://www.w3.org/1999/xlink" x="0px" y="0px"
	 width="30px" height="30px" viewBox="0 0 30 30" enable-background="new 0 0 30 30" xml:space="preserve">
<g>
	<g>
		<path fill="#19ACE0" d="M-70.045-15.69c-0.002-0.002-0.002-0.003-0.006-0.005c0-0.001-0.002-0.003-0.005-0.004
			c-0.428-0.424-1.042-0.552-1.604-0.333l-24.492,9.577c-0.648,0.254-1.027,0.887-0.945,1.578c0.083,0.69,0.601,1.216,1.291,1.309
			l11.971,1.615c0.022,0.002,0.04,0.021,0.043,0.042l1.615,11.97c0.092,0.689,0.619,1.209,1.309,1.292
			c0.063,0.008,0.126,0.011,0.188,0.011c0.615,0,1.159-0.368,1.39-0.956l9.577-24.493C-69.497-14.649-69.622-15.264-70.045-15.69z
			 M-95.612-5.008c-0.027-0.003-0.039-0.005-0.043-0.043c-0.004-0.039,0.007-0.043,0.032-0.054l22.917-8.96L-83.427-3.347
			C-83.496-3.367-95.612-5.008-95.612-5.008z M-80.642,9.877c-0.01,0.026-0.014,0.037-0.053,0.031
			c-0.039-0.004-0.042-0.016-0.045-0.043c0,0-1.641-12.116-1.661-12.185l10.72-10.719L-80.642,9.877z"/>
	</g>
</g>
<g>
	<g>
		<path fill="#19ACE0" d="M-88.957,29.348c0-5.48-3.45-10.262-8.479-12.087c-0.445-0.161-0.936,0.068-1.096,0.511
			c-0.162,0.445,0.069,0.936,0.51,1.098c4.343,1.576,7.354,5.707,7.354,10.479c0,5.212-3.604,9.599-8.46,10.813l1.803-1.531
			c0.358-0.307,0.401-0.846,0.096-1.205c-0.304-0.361-0.847-0.404-1.206-0.096l-3.963,3.371c-0.495,0.42-0.36,1.236,0.269,1.457
			l4.909,1.74c0.445,0.158,0.935-0.074,1.093-0.521c0.156-0.445-0.077-0.934-0.521-1.092l-1.623-0.576
			C-92.985,40.196-88.957,35.312-88.957,29.348z"/>
	</g>
</g>
<g>
	<g>
		<path fill="#19ACE0" d="M-101.556,16.537l-4.912-1.738c-0.444-0.156-0.933,0.076-1.09,0.521c-0.158,0.445,0.074,0.934,0.52,1.092
			l1.625,0.576c-5.287,1.512-9.316,6.396-9.316,12.359c0,5.479,3.452,10.261,8.479,12.089c0.445,0.16,0.935-0.068,1.097-0.514
			c0.161-0.445-0.068-0.934-0.513-1.096c-4.341-1.576-7.352-5.707-7.352-10.479c0-5.211,3.605-9.6,8.458-10.814l-1.801,1.533
			c-0.359,0.307-0.403,0.845-0.097,1.204c0.306,0.361,0.846,0.405,1.205,0.097l3.965-3.373
			C-100.783,17.564-100.946,16.754-101.556,16.537z"/>
	</g>
</g>
<g>
	<g>
		<path fill="#19ACE0" d="M-44.704-5.088c-0.47-0.469-1.032-0.703-1.69-0.703h-23.928c-0.659,0-1.222,0.234-1.691,0.703
			c-0.468,0.469-0.703,1.032-0.703,1.69v18.185c0,0.658,0.234,1.223,0.703,1.689c0.469,0.471,1.032,0.703,1.691,0.703h23.928
			c0.658,0,1.221-0.232,1.69-0.703C-44.235,16.01-44,15.445-44,14.787V-3.398C-44-4.056-44.235-4.619-44.704-5.088z M-45.916,14.787
			c0,0.129-0.047,0.242-0.142,0.338c-0.095,0.094-0.207,0.141-0.337,0.141h-23.928c-0.13,0-0.242-0.047-0.337-0.143
			c-0.094-0.094-0.142-0.207-0.142-0.336V5.695h24.885V14.787L-45.916,14.787z M-45.916-0.049h-24.885v-3.349
			c0-0.13,0.048-0.242,0.142-0.337c0.095-0.095,0.207-0.142,0.337-0.142h23.928c0.13,0,0.242,0.047,0.337,0.142
			s0.142,0.207,0.142,0.337V-0.049L-45.916-0.049z"/>
		<rect x="-68.887" y="11.439" fill="#19ACE0" width="3.829" height="1.912"/>
		<rect x="-63.143" y="11.439" fill="#19ACE0" width="5.742" height="1.912"/>
	</g>
</g>
<g>
	<g>
		<path fill="#19ACE0" d="M-56.75,45.752c-0.771-0.336-1.642-0.717-2.632-1.171l-0.045-0.021l-0.033,0.035
			c-0.334,0.321-0.7,0.626-1.096,0.906l-0.101,0.072l0.112,0.051c1.247,0.579,2.325,1.055,3.236,1.454
			c3.385,1.476,3.813,1.764,3.813,2.568c0,0.554-0.545,1.221-1.222,1.221h-20.685c-0.676,0-1.221-0.667-1.221-1.221
			c0-0.805,0.428-1.093,3.813-2.568c0.912-0.399,1.991-0.875,3.235-1.454l0.112-0.051l-0.101-0.072
			c-0.394-0.28-0.762-0.585-1.093-0.906l-0.035-0.035l-0.045,0.021c-0.992,0.454-1.863,0.835-2.63,1.171
			c-3.415,1.488-4.692,2.046-4.692,3.895c0,1.392,1.266,2.658,2.657,2.658h20.685c1.392,0,2.657-1.267,2.657-2.658
			C-52.059,47.798-53.336,47.24-56.75,45.752z"/>
	</g>
</g>
<g>
	<g>
		<path fill="#19ACE0" d="M-54.948,32.084h-1.443c0-4.786-3.883-8.666-8.667-8.666c-4.786,0-8.667,3.88-8.667,8.666h-1.444
			c-0.798,0-1.444,0.646-1.444,1.443v4.334c0,0.798,0.646,1.443,1.444,1.443h1.444c0.426,0,0.8-0.192,1.064-0.486
			c0.044,0.063,0.083,0.126,0.135,0.186c1,3.957,3.969,6.837,7.468,6.837c3.583,0,6.604-3.024,7.529-7.13
			c0.263,0.352,0.663,0.594,1.138,0.594h1.443c0.798,0,1.444-0.646,1.444-1.443v-4.334C-53.503,32.73-54.15,32.084-54.948,32.084z
			 M-73.725,37.861h-1.444v-4.334h1.444V37.861z M-65.058,44.405c-2.337,0-4.379-1.648-5.494-4.094
			c1.711,0.745,3.955,1.16,5.494,1.16c0.398,0,0.723-0.322,0.723-0.722s-0.324-0.723-0.723-0.723c-2.539,0-5.248-1.016-6.157-1.739
			c-0.149-0.706-0.236-1.447-0.236-2.216c0-4.594,2.868-8.33,6.393-8.33c3.523,0,6.393,3.736,6.393,8.33
			C-58.666,40.667-61.535,44.405-65.058,44.405z M-57.853,32.256c-1.196-3.494-3.976-5.949-7.205-5.949
			c-3.231,0-6.011,2.455-7.205,5.949c-0.002-0.059-0.018-0.113-0.018-0.172c0-3.982,3.24-7.223,7.222-7.223
			c3.98,0,7.222,3.24,7.222,7.223C-57.836,32.143-57.853,32.197-57.853,32.256z M-54.948,37.861h-1.443v-4.334h1.443V37.861z"/>
	</g>
</g>
<g>
	<g>
		<g>
			<path fill="#1BACDE" d="M15.01,29.217c7.951,0,14.421-6.467,14.421-14.42c0-7.952-6.47-14.421-14.421-14.421
				c-7.952,0-14.421,6.469-14.421,14.421C0.589,22.75,7.058,29.217,15.01,29.217z M15.01,1.817c7.158,0,12.979,5.822,12.979,12.979
				c0,7.158-5.821,12.979-12.979,12.979c-7.157,0-12.979-5.82-12.979-12.979C2.031,7.639,7.853,1.817,15.01,1.817z"/>
			<path fill="#1BACDE" d="M12.286,19.361c0.143,0.142,0.324,0.212,0.512,0.212c0.189,0,0.37-0.07,0.512-0.212
				c0.282-0.282,0.282-0.734,0-1.021l-2.822-2.822h10.786c0.398,0,0.724-0.322,0.724-0.722c0-0.4-0.325-0.723-0.724-0.723H10.487
				l2.822-2.824c0.282-0.284,0.282-0.735,0-1.017c-0.282-0.284-0.735-0.284-1.017,0l-4.051,4.052c-0.284,0.282-0.284,0.736,0,1.017
				L12.286,19.361z"/>
		</g>
	</g>
</g>
</svg>
