<?xml version="1.0" encoding="utf-8"?>
<!-- Generator: Adobe Illustrator 16.0.0, SVG Export Plug-In . SVG Version: 6.00 Build 0)  -->
<!DOCTYPE svg PUBLIC "-//W3C//DTD SVG 1.1//EN" "http://www.w3.org/Graphics/SVG/1.1/DTD/svg11.dtd">
<svg version="1.1" id="Capa_1" xmlns="http://www.w3.org/2000/svg" xmlns:xlink="http://www.w3.org/1999/xlink" x="0px" y="0px"
	 width="20px" height="20px" viewBox="0 0 20 20" enable-background="new 0 0 20 20" xml:space="preserve">
<g>
	<path fill-rule="evenodd" clip-rule="evenodd" fill="#CBCBCB" d="M48.488,6.5c-0.178,0.795-0.695,1.365-1.264,1.901
		C47.1,8.518,46.973,8.634,46.859,8.76c-0.438,0.48-1.004,0.655-1.627,0.678c-0.73,0.024-1.439-0.116-2.133-0.332
		c-1.428-0.445-2.725-1.153-3.947-1.999c-2.021-1.399-3.77-3.092-5.265-5.043c-0.962-1.251-1.778-2.592-2.349-4.07
		c-0.277-0.72-0.49-1.456-0.549-2.231c-0.004-0.039-0.018-0.076-0.025-0.114c0-0.217,0-0.434,0-0.65
		c0.01-0.037,0.025-0.074,0.03-0.112c0.06-0.502,0.24-0.945,0.614-1.299c0.182-0.173,0.353-0.356,0.526-0.538
		c0.505-0.53,1.062-0.981,1.806-1.131c0.148,0,0.297,0,0.445,0c1.051,0.225,1.661,1,2.242,1.804c0.329,0.454,0.61,0.935,0.748,1.487
		c0.162,0.649,0.002,1.22-0.425,1.718c-0.226,0.263-0.462,0.521-0.716,0.757c-0.213,0.199-0.25,0.419-0.18,0.681
		c0.129,0.471,0.393,0.871,0.678,1.256c0.889,1.196,1.942,2.237,3.045,3.23c0.564,0.509,1.15,0.986,1.832,1.335
		c0.1,0.052,0.209,0.092,0.313,0.132c0.324,0.122,0.602,0.095,0.844-0.191c0.184-0.217,0.41-0.397,0.617-0.591
		c0.645-0.597,1.383-0.733,2.18-0.385c0.998,0.435,1.857,1.061,2.521,1.935c0.219,0.287,0.326,0.621,0.402,0.969
		C48.488,6.203,48.488,6.35,48.488,6.5z M45.105,8.881c0.279-0.057,0.568-0.082,0.828-0.184c0.197-0.077,0.377-0.232,0.529-0.387
		c0.393-0.397,0.795-0.79,1.131-1.231c0.432-0.563,0.408-1.139-0.023-1.699C47,4.645,46.264,4.113,45.428,3.723
		c-0.621-0.288-1.188-0.186-1.686,0.282c-0.23,0.216-0.459,0.432-0.68,0.652c-0.244,0.24-0.527,0.349-0.867,0.314
		c-0.564-0.058-1.045-0.323-1.488-0.642c-1.658-1.183-3.061-2.628-4.332-4.206c-0.357-0.444-0.664-0.927-0.854-1.472
		c-0.184-0.53-0.133-1.002,0.314-1.4c0.229-0.203,0.432-0.438,0.635-0.669c0.383-0.439,0.483-0.943,0.261-1.481
		c-0.366-0.884-0.923-1.639-1.669-2.238c-0.588-0.471-1.171-0.492-1.77-0.033c-0.432,0.331-0.799,0.744-1.207,1.107
		c-0.373,0.333-0.504,0.758-0.523,1.237c-0.029,0.716,0.119,1.405,0.34,2.08c0.542,1.649,1.426,3.115,2.477,4.482
		c1.43,1.86,3.1,3.48,5.026,4.828c1.181,0.826,2.435,1.521,3.815,1.96C43.832,8.721,44.455,8.849,45.105,8.881z"/>
</g>
<g>
	<path fill-rule="evenodd" clip-rule="evenodd" fill="#CBCBCB" d="M10.481,0.304c0.396,0.063,0.801,0.099,1.191,0.193
		c2.402,0.58,4.191,1.964,5.285,4.184c1.096,2.219,1.061,4.471,0.063,6.722c-0.985,2.221-2.404,4.141-4.119,5.842
		c-0.795,0.791-1.655,1.516-2.493,2.262c-0.285,0.256-0.542,0.246-0.834,0.01c-1.632-1.324-3.134-2.779-4.418-4.449
		c-0.989-1.283-1.83-2.662-2.411-4.178c-0.702-1.83-0.724-3.68-0.034-5.525c0.524-1.4,1.386-2.551,2.571-3.46
		c1.046-0.803,2.224-1.298,3.524-1.51c0.217-0.035,0.434-0.06,0.651-0.089C9.8,0.304,10.14,0.304,10.481,0.304z M9.99,18.439
		c0.32-0.279,0.634-0.543,0.937-0.816c1.901-1.709,3.553-3.619,4.725-5.91c0.411-0.803,0.773-1.624,0.913-2.531
		c0.269-1.756-0.057-3.389-1.064-4.848c-1.231-1.782-2.953-2.767-5.124-2.916C9.04,1.327,7.785,1.636,6.627,2.315
		C5.374,3.05,4.454,4.088,3.868,5.415C3.396,6.486,3.239,7.612,3.351,8.779c0.102,1.056,0.499,2.014,0.972,2.943
		c0.723,1.422,1.647,2.701,2.706,3.887C7.934,16.625,8.919,17.555,9.99,18.439z"/>
	<path fill-rule="evenodd" clip-rule="evenodd" fill="#CBCBCB" d="M9.98,3.226c2.703-0.009,4.922,2.206,4.936,4.922
		c0.011,2.711-2.209,4.944-4.926,4.95c-2.71,0.008-4.942-2.229-4.935-4.941C5.062,5.441,7.266,3.234,9.98,3.226z M9.991,12
		c2.117-0.006,3.84-1.742,3.828-3.853c-0.014-2.113-1.739-3.832-3.839-3.824C7.871,4.331,6.155,6.05,6.151,8.159
		C6.147,10.272,7.883,12.008,9.991,12z"/>
</g>
</svg>
