<?xml version="1.0" encoding="utf-8"?>
<!-- Generator: Adobe Illustrator 16.0.0, SVG Export Plug-In . SVG Version: 6.00 Build 0)  -->
<!DOCTYPE svg PUBLIC "-//W3C//DTD SVG 1.1//EN" "http://www.w3.org/Graphics/SVG/1.1/DTD/svg11.dtd">
<svg version="1.1" id="Layer_1" xmlns="http://www.w3.org/2000/svg" xmlns:xlink="http://www.w3.org/1999/xlink" x="0px" y="0px"
	 width="20px" height="20px" viewBox="0 0 20 20" enable-background="new 0 0 20 20" xml:space="preserve">
<g>
	<path fill-rule="evenodd" clip-rule="evenodd" fill="#9E2380" d="M16.096,6.889c-0.022,1.438-0.391,2.793-0.92,4.111
		c-0.833,2.079-1.999,3.969-3.33,5.758c-0.557,0.752-1.162,1.466-1.748,2.192c-0.151,0.188-0.413,0.182-0.601-0.026
		c-0.302-0.337-0.602-0.677-0.876-1.034c-1.557-2.036-2.862-4.218-3.795-6.61c-0.43-1.098-0.75-2.227-0.873-3.403
		C3.787,6.277,4.015,4.757,4.94,3.401c0.866-1.27,2.091-2.01,3.58-2.317c1.621-0.333,3.195-0.198,4.676,0.584
		c1.557,0.823,2.444,2.142,2.752,3.857C16.028,5.975,16.048,6.435,16.096,6.889z M9.821,17.919c0.06-0.067,0.097-0.106,0.132-0.147
		c1.018-1.188,1.929-2.454,2.744-3.792c0.813-1.335,1.523-2.723,2.012-4.215c0.412-1.264,0.636-2.551,0.412-3.881
		c-0.294-1.751-1.247-2.987-2.908-3.647c-1.107-0.44-2.253-0.491-3.415-0.277C6.433,2.393,4.992,4.102,4.838,6.504
		c-0.092,1.449,0.246,2.826,0.745,4.169c0.849,2.283,2.08,4.357,3.516,6.313C9.328,17.297,9.571,17.597,9.821,17.919z"/>
	<path fill-rule="evenodd" clip-rule="evenodd" fill="#9E2380" d="M9.997,9.44C8.609,9.419,7.528,8.297,7.552,6.902
		c0.023-1.334,1.161-2.421,2.51-2.399c1.356,0.022,2.437,1.152,2.417,2.529C12.46,8.36,11.325,9.461,9.997,9.44z M10.019,8.519
		c0.857,0.002,1.541-0.675,1.549-1.536c0.008-0.857-0.671-1.549-1.526-1.555C9.155,5.422,8.467,6.097,8.465,6.97
		C8.463,7.833,9.149,8.517,10.019,8.519z"/>
</g>
</svg>
