<?xml version="1.0" encoding="utf-8"?>
<!-- Generator: Adobe Illustrator 16.0.0, SVG Export Plug-In . SVG Version: 6.00 Build 0)  -->
<!DOCTYPE svg PUBLIC "-//W3C//DTD SVG 1.1//EN" "http://www.w3.org/Graphics/SVG/1.1/DTD/svg11.dtd">
<svg version="1.1" id="Layer_1" xmlns="http://www.w3.org/2000/svg" xmlns:xlink="http://www.w3.org/1999/xlink" x="0px" y="0px"
	 width="20px" height="20px" viewBox="0 0 20 20" enable-background="new 0 0 20 20" xml:space="preserve">
<g>
	<path fill-rule="evenodd" clip-rule="evenodd" fill="#CBCBCB" d="M0.928,18.045c0-3.414,0-6.827,0-10.24
		c0.123-0.121,0.233-0.262,0.373-0.36c0.763-0.538,1.531-1.065,2.3-1.592c0.096-0.066,0.14-0.135,0.138-0.257
		C3.732,5.046,3.735,4.497,3.736,3.948c0.001-0.39,0.185-0.572,0.574-0.572c0.904-0.001,1.808,0.002,2.71-0.004
		c0.098-0.001,0.21-0.037,0.29-0.092c0.771-0.524,1.536-1.057,2.304-1.587C9.936,1.47,10.066,1.47,10.383,1.69
		c0.755,0.525,1.509,1.054,2.271,1.573c0.094,0.064,0.224,0.107,0.337,0.107c0.903,0.009,1.807,0.004,2.71,0.005
		c0.376,0,0.563,0.187,0.563,0.566c0.002,0.556,0.004,1.11-0.003,1.665c-0.001,0.127,0.04,0.202,0.145,0.273
		c0.773,0.53,1.538,1.075,2.314,1.6c0.247,0.167,0.345,0.369,0.345,0.665c-0.004,3.012,0.002,6.024,0.007,9.034
		c0,0.265,0.004,0.531-0.001,0.796c-0.005,0.257-0.181,0.444-0.437,0.472c-0.076,0.01-0.152,0.007-0.229,0.007
		c-5.614,0.007-11.23,0.014-16.845,0.021C1.159,18.475,1.066,18.411,0.928,18.045z M11.749,12.104
		c0.055-0.034,0.099-0.063,0.143-0.092c1.1-0.765,2.198-1.531,3.301-2.292c0.104-0.072,0.142-0.148,0.142-0.274
		c-0.004-1.647-0.003-3.294-0.003-4.942c0-0.063-0.008-0.125-0.012-0.187c-3.558,0-7.096,0-10.638,0
		C4.676,4.359,4.67,4.388,4.67,4.417c0,1.701-0.002,3.401,0.004,5.102c0.001,0.07,0.063,0.163,0.125,0.205
		c1.108,0.773,2.222,1.538,3.331,2.311c0.097,0.067,0.156,0.059,0.243-0.009c0.403-0.319,0.81-0.633,1.216-0.947
		c0.347-0.268,0.491-0.269,0.831-0.004C10.863,11.417,11.304,11.761,11.749,12.104z M10.006,11.93
		c-2.408,1.867-4.8,3.725-7.208,5.591c4.806,0,9.583,0,14.359,0c0.002-0.013,0.006-0.024,0.008-0.038
		C14.785,15.637,12.403,13.788,10.006,11.93z M18.129,8.805c-1.891,1.314-3.741,2.603-5.608,3.899
		c1.881,1.459,3.737,2.898,5.608,4.349C18.129,14.294,18.129,11.573,18.129,8.805z M7.482,12.713
		c-1.881-1.301-3.74-2.584-5.602-3.87c0,2.748,0,5.465,0,8.215C3.763,15.598,5.612,14.163,7.482,12.713z M3.718,8.982
		c0-0.707,0-1.383,0-2.084C3.208,7.251,2.72,7.587,2.21,7.939C2.72,8.292,3.211,8.632,3.718,8.982z M17.746,7.939
		c-0.498-0.345-0.975-0.676-1.468-1.018c0,0.69,0,1.35,0,2.04C16.777,8.613,17.252,8.283,17.746,7.939z M8.825,3.367
		c0.799,0,1.547,0,2.342,0c-0.396-0.274-0.753-0.526-1.116-0.771C10.024,2.578,9.96,2.587,9.929,2.607
		C9.573,2.848,9.221,3.094,8.825,3.367z"/>
	<path fill-rule="evenodd" clip-rule="evenodd" fill="#CBCBCB" d="M10,8.583c1.026,0,2.054,0.001,3.08-0.001
		c0.179-0.001,0.323,0.05,0.433,0.193c0.106,0.14,0.131,0.292,0.057,0.449c-0.074,0.158-0.2,0.262-0.381,0.28
		c-0.058,0.006-0.117,0.003-0.176,0.003c-2.008,0-4.015,0-6.022,0c-0.378,0-0.605-0.178-0.6-0.47
		c0.006-0.285,0.229-0.455,0.599-0.455C7.992,8.583,8.995,8.583,10,8.583z"/>
	<path fill-rule="evenodd" clip-rule="evenodd" fill="#CBCBCB" d="M10.014,6.168c1.015,0,2.03,0.001,3.046-0.002
		c0.169,0,0.318,0.031,0.43,0.163c0.108,0.129,0.157,0.277,0.093,0.444c-0.066,0.173-0.192,0.278-0.374,0.315
		c-0.041,0.008-0.083,0.006-0.123,0.006c-2.055,0-4.108,0-6.164,0.002c-0.163,0-0.304-0.042-0.412-0.166
		C6.389,6.789,6.346,6.625,6.43,6.453c0.088-0.184,0.235-0.286,0.449-0.285c0.838,0.001,1.676,0,2.515,0
		C9.601,6.167,9.807,6.167,10.014,6.168z"/>
</g>
</svg>
