<?xml version="1.0" encoding="utf-8"?>
<!-- Generator: Adobe Illustrator 16.0.0, SVG Export Plug-In . SVG Version: 6.00 Build 0)  -->
<!DOCTYPE svg PUBLIC "-//W3C//DTD SVG 1.1//EN" "http://www.w3.org/Graphics/SVG/1.1/DTD/svg11.dtd">
<svg version="1.1" id="Layer_1" xmlns="http://www.w3.org/2000/svg" xmlns:xlink="http://www.w3.org/1999/xlink" x="0px" y="0px"
	 width="170px" height="70px" viewBox="-16 -10.5 170 70" enable-background="new -16 -10.5 170 70" xml:space="preserve">
<g>
	<path fill="#FF00C9" d="M140.424,10.729c-0.541,1.479-1.848,2.36-2.916,1.969c-1.056-0.393-1.479-1.906-0.936-3.382
		c0.54-1.48,1.841-2.361,2.908-1.975C140.54,7.735,140.968,9.247,140.424,10.729z"/>
	<path fill="#FF00C9" d="M140.935,9.619c0.208-0.281,0.482-0.526,0.64-0.659c0.736-0.626,1.716-0.98,2.636-0.532
		c1.839,0.884,1.764,1.939,3.335,1.109c0,0-1.716,1.97-2.881,0.696c-0.516-0.572-1.286-0.349-1.915-0.082
		c-0.429,0.184-1.338,0.859-1.824,0.578C140.468,10.459,140.639,10.008,140.935,9.619z"/>
	<g>
		<g>
			<path fill="#FFFFFF" d="M89.418,44.164c-0.063,0.236-0.135,0.439-0.216,0.609c-0.085,0.166-0.189,0.275-0.318,0.316
				c-0.136,0.299-0.354,0.594-0.657,0.881c-0.306,0.289-0.545,0.516-0.714,0.678c-0.168,0.158-0.366,0.277-0.594,0.361
				c-0.231,0.08-0.354,0.203-0.367,0.373c-0.02,0.168-0.029,0.377-0.036,0.637c-0.006,0.256-0.012,0.533-0.012,0.836v0.188v0.162
				c0,0.381-0.016,0.73-0.044,1.047h-0.208c0-0.922,0.01-1.697,0.03-2.316c0.019-0.623,0.055-1.256,0.107-1.898
				c0.051-0.641,0.136-1.344,0.253-2.104c0.021-0.021,0.043-0.043,0.066-0.068c0.022-0.025,0.055-0.033,0.097-0.025
				c0.046,0.047,0.068,0.088,0.068,0.123c0,0.021-0.008,0.047-0.022,0.086c-0.016,0.035-0.034,0.074-0.046,0.115
				c0,0.283-0.035,0.736-0.105,1.359c-0.069,0.621-0.102,1.049-0.102,1.289c0.038,0.012,0.08,0.021,0.122,0.021
				c0.097,0,0.195-0.027,0.284-0.09c0.092-0.059,0.265-0.207,0.515-0.447c0.247-0.24,0.495-0.496,0.742-0.77
				c0.248-0.27,0.46-0.58,0.637-0.922c0.179-0.344,0.267-0.695,0.267-1.066c-0.053-0.145-0.127-0.273-0.225-0.391
				c-0.095-0.117-0.215-0.203-0.357-0.256c-0.141-0.061-0.289-0.09-0.443-0.09c-0.149,0-0.409,0.051-0.778,0.156
				c-0.371,0.102-0.586,0.158-0.649,0.162c-0.213,0.1-0.371,0.193-0.478,0.266c-0.101,0.074-0.153,0.172-0.153,0.297
				c0,0.066,0.022,0.131,0.055,0.199c-0.068-0.023-0.111-0.068-0.138-0.139c-0.026-0.074-0.05-0.141-0.071-0.207
				c0.124-0.316,0.432-0.543,0.925-0.678s0.809-0.24,0.948-0.318c0.072,0,0.143,0,0.215,0c0.073,0,0.147,0,0.225,0
				c0.199,0,0.366,0.02,0.498,0.059c0.129,0.037,0.248,0.123,0.358,0.25c0.13,0.092,0.219,0.215,0.277,0.365
				c0.057,0.15,0.083,0.314,0.083,0.496c0,0.094-0.004,0.164-0.008,0.217C89.44,43.982,89.43,44.059,89.418,44.164z"/>
			<path fill="#FFFFFF" d="M93.491,46.557c0.009,0.041-0.003,0.086-0.034,0.119c-0.033,0.035-0.063,0.068-0.088,0.094
				c-0.037,0.004-0.085,0.008-0.146,0.008c-0.104,0-0.252-0.029-0.452-0.094c-0.194-0.061-0.332-0.092-0.404-0.092
				c-0.064,0-0.134,0.014-0.204,0.047c-0.069,0.025-0.143,0.072-0.218,0.133c-0.418,0.537-0.733,1.07-0.949,1.6
				c-0.215,0.531-0.324,1.117-0.324,1.754c-0.021,0.006-0.058,0.029-0.111,0.08c-0.054,0.043-0.107,0.064-0.166,0.051
				c-0.136-0.619-0.235-1.121-0.309-1.521c-0.079-0.402-0.139-0.822-0.191-1.268c-0.05-0.443-0.077-0.887-0.077-1.336
				c0-0.035,0.019-0.074,0.053-0.121c0.035-0.049,0.085-0.082,0.146-0.096c0.097,0.26,0.201,0.736,0.302,1.416
				c0.104,0.686,0.174,1.092,0.207,1.217c0.12-0.164,0.307-0.527,0.569-1.1c0.258-0.57,0.586-0.941,0.983-1.115
				c0.105-0.059,0.216-0.086,0.329-0.086c0.102,0,0.283,0.051,0.539,0.154C93.199,46.504,93.383,46.557,93.491,46.557z"/>
			<path fill="#FFFFFF" d="M97.736,48.596c0.052,0.086,0.078,0.17,0.078,0.254c0,0.137-0.071,0.293-0.213,0.457
				c-0.138,0.168-0.272,0.322-0.396,0.463c-0.164,0.168-0.363,0.293-0.599,0.367c-0.233,0.078-0.485,0.115-0.758,0.115
				c-0.289,0-0.561-0.039-0.824-0.119c-0.335-0.227-0.667-0.443-0.994-0.666c-0.375-0.297-0.562-0.627-0.562-0.99
				c0-0.031,0-0.07,0.008-0.111c0.006-0.047,0.053-0.221,0.145-0.529c0.092-0.307,0.273-0.67,0.542-1.082
				c0.271-0.412,0.637-0.691,1.092-0.84c0.185,0,0.33,0.043,0.438,0.133c0.11,0.09,0.2,0.223,0.277,0.391
				c-0.096,0.49-0.351,0.934-0.76,1.33c-0.414,0.398-0.702,0.674-0.871,0.83c-0.027,0.01-0.085,0.016-0.178,0.029
				c-0.092,0.008-0.152,0.043-0.177,0.107c0.083,0.215,0.19,0.373,0.327,0.48c0.133,0.107,0.543,0.342,1.229,0.701
				c0.07,0,0.168,0,0.285,0s0.202,0,0.255,0c0.126,0,0.234-0.01,0.32-0.027c0.082-0.02,0.179-0.057,0.286-0.123
				c0.189-0.131,0.372-0.297,0.544-0.494C97.404,49.072,97.572,48.848,97.736,48.596z M95.542,46.67v-0.363
				c-0.03-0.008-0.076-0.01-0.132-0.01c-0.271,0-0.517,0.119-0.733,0.361c-0.215,0.238-0.394,0.439-0.532,0.594l0.056,0.072
				c0.026,0.047,0.02,0.096-0.019,0.129c-0.04,0.035-0.075,0.072-0.105,0.104c-0.066,0.178-0.111,0.301-0.132,0.369
				c-0.022,0.066-0.031,0.131-0.031,0.199c0,0.123,0.04,0.225,0.123,0.309c0.296-0.232,0.575-0.508,0.847-0.824
				C95.151,47.291,95.371,46.977,95.542,46.67z"/>
			<path fill="#FFFFFF" d="M101.637,45.977c-0.123,0.104-0.361,0.188-0.719,0.248c-0.358,0.061-0.608,0.152-0.75,0.275
				c-0.058,0.414-0.114,0.842-0.176,1.293c-0.059,0.451-0.089,0.85-0.089,1.205c0,0.104,0.002,0.217,0.004,0.338
				c0.003,0.129,0.022,0.283,0.059,0.48c0.088,0.086,0.185,0.131,0.295,0.131c0.063,0,0.14-0.025,0.229-0.068l0.682-0.859
				c0.007,0.053,0.014,0.092,0.014,0.125c0,0.176-0.068,0.359-0.204,0.557c-0.138,0.193-0.288,0.357-0.459,0.492
				c-0.04,0.012-0.099,0.023-0.176,0.037s-0.141,0.025-0.195,0.025c-0.139,0-0.252-0.029-0.344-0.086
				c-0.086-0.057-0.15-0.195-0.179-0.426c-0.03-0.23-0.046-0.51-0.046-0.848c0-0.381,0.016-0.715,0.046-1.006
				c0.028-0.289,0.083-0.725,0.16-1.311c-0.071-0.018-0.142-0.021-0.206-0.021c-0.134,0-0.366,0.066-0.698,0.197
				c-0.331,0.133-0.576,0.199-0.735,0.199c-0.03,0.021-0.05,0.064-0.058,0.129c-0.01,0.063-0.025,0.107-0.043,0.143
				c-0.035,0.02-0.069,0.01-0.103-0.027c-0.028-0.041-0.052-0.068-0.069-0.09v-0.197c0.51-0.273,0.896-0.461,1.154-0.553
				c0.26-0.096,0.513-0.156,0.758-0.191c0.115-0.244,0.2-0.641,0.262-1.184c0.064-0.543,0.133-0.961,0.204-1.266
				c0.073-0.299,0.242-0.564,0.506-0.789c0.029,0,0.056,0.023,0.076,0.063c-0.165,0.377-0.279,0.748-0.34,1.121
				c-0.06,0.367-0.142,0.99-0.247,1.863c0.027,0.012,0.061,0.02,0.1,0.023c0.042,0,0.078,0.002,0.103,0.002
				c0.064,0,0.2-0.027,0.403-0.076c0.201-0.047,0.341-0.074,0.412-0.074C101.403,45.852,101.529,45.893,101.637,45.977z"/>
			<path fill="#FFFFFF" d="M105.429,45.977c-0.123,0.104-0.363,0.188-0.719,0.248c-0.359,0.061-0.609,0.152-0.753,0.275
				c-0.056,0.414-0.114,0.842-0.173,1.293c-0.058,0.451-0.09,0.85-0.09,1.205c0,0.104,0.003,0.217,0.006,0.338
				c0.002,0.129,0.022,0.283,0.058,0.48c0.088,0.086,0.184,0.131,0.295,0.131c0.063,0,0.143-0.025,0.231-0.068l0.676-0.859
				c0.012,0.053,0.016,0.092,0.016,0.125c0,0.176-0.067,0.359-0.202,0.557c-0.137,0.193-0.289,0.357-0.457,0.492
				c-0.045,0.012-0.104,0.023-0.179,0.037c-0.078,0.014-0.14,0.025-0.196,0.025c-0.136,0-0.251-0.029-0.342-0.086
				c-0.089-0.057-0.151-0.195-0.181-0.426c-0.031-0.23-0.047-0.51-0.047-0.848c0-0.381,0.016-0.715,0.047-1.006
				c0.029-0.289,0.086-0.725,0.163-1.311c-0.074-0.018-0.142-0.021-0.21-0.021c-0.132,0-0.364,0.066-0.696,0.197
				c-0.331,0.133-0.577,0.199-0.736,0.199c-0.028,0.021-0.05,0.064-0.056,0.129c-0.011,0.063-0.024,0.107-0.044,0.143
				c-0.035,0.02-0.07,0.01-0.1-0.027c-0.03-0.041-0.055-0.068-0.07-0.09v-0.197c0.509-0.273,0.894-0.461,1.15-0.553
				c0.262-0.096,0.515-0.156,0.762-0.191c0.112-0.244,0.2-0.641,0.26-1.184c0.063-0.543,0.129-0.961,0.205-1.266
				c0.074-0.299,0.24-0.564,0.503-0.789c0.032,0,0.059,0.023,0.079,0.063c-0.166,0.377-0.278,0.748-0.342,1.121
				c-0.06,0.367-0.143,0.99-0.246,1.863c0.027,0.012,0.06,0.02,0.1,0.023c0.043,0,0.077,0.002,0.103,0.002
				c0.065,0,0.201-0.027,0.402-0.076c0.203-0.047,0.342-0.074,0.415-0.074C105.198,45.852,105.322,45.893,105.429,45.977z"/>
			<path fill="#FFFFFF" d="M108.126,45.977l-0.424,0.699c-0.116,0.523-0.214,0.959-0.287,1.314
				c-0.068,0.357-0.107,0.713-0.107,1.061l0.209,0.061c-0.157,0.297-0.265,0.605-0.312,0.938c-0.048,0.33-0.073,0.725-0.073,1.182
				c0,0.16,0,0.322,0,0.479c0,0.158,0,0.32,0,0.484c0,0.426-0.012,0.748-0.035,0.961c-0.028,0.211-0.069,0.426-0.128,0.635
				l0.116,1.012h0.162c0.017,0.045,0.017,0.082-0.004,0.111c-0.017,0.027-0.049,0.061-0.095,0.105
				c-0.048,0.016-0.094,0.027-0.14,0.027c-0.084,0-0.143-0.068-0.186-0.207c-0.044-0.139-0.085-0.223-0.123-0.254
				c0-0.34,0.026-0.939,0.087-1.803c0.059-0.859,0.088-1.445,0.088-1.75c0-0.135,0-0.279-0.005-0.445
				c0-0.166-0.024-0.371-0.063-0.623c-0.314-0.58-0.54-0.998-0.666-1.248c-0.128-0.25-0.248-0.555-0.365-0.908
				c-0.112-0.357-0.173-0.713-0.173-1.066h0.27c0.104,0.484,0.233,0.938,0.394,1.363c0.16,0.424,0.364,0.832,0.609,1.219
				c0.058-0.119,0.093-0.264,0.11-0.441c0.007-0.254,0.021-0.514,0.037-0.766c0.086-0.594,0.204-1.078,0.354-1.457
				C107.527,46.281,107.774,46.055,108.126,45.977z"/>
			<path fill="#FFFFFF" d="M115.061,44.318c-0.055,0.01-0.094,0.055-0.106,0.143c-0.015,0.09-0.046,0.148-0.093,0.176
				c0.006-0.045,0.009-0.086,0.009-0.109c0-0.035,0-0.1,0-0.186s0-0.154,0-0.207c0-0.117-0.009-0.215-0.027-0.289
				s-0.062-0.15-0.128-0.234c-0.185-0.115-0.371-0.193-0.563-0.238c-0.19-0.047-0.391-0.07-0.6-0.07
				c-0.413,0-0.829,0.088-1.247,0.262c-0.418,0.18-0.836,0.408-1.251,0.693c-0.006,0.025-0.047,0.082-0.123,0.168
				c-0.078,0.09-0.105,0.158-0.085,0.209c-0.029,0-0.074-0.025-0.131-0.072c-0.049-0.051-0.079-0.105-0.079-0.164
				c0-0.047,0.088-0.158,0.262-0.336c0.176-0.18,0.48-0.363,0.91-0.553c0.433-0.193,0.812-0.334,1.14-0.434
				c0.328-0.094,0.514-0.143,0.551-0.143c0.038,0,0.068,0,0.089,0c0.313,0,0.604,0.066,0.874,0.203
				c0.271,0.139,0.471,0.342,0.598,0.594L115.061,44.318L115.061,44.318z M114.715,46.777c-0.097,0.045-0.21,0.072-0.342,0.072
				c-0.036,0-0.098-0.004-0.19-0.012c-0.093-0.002-0.17-0.004-0.23-0.004v-0.057c-0.628,0.074-1.117,0.158-1.466,0.256
				c-0.35,0.105-0.653,0.227-0.91,0.379c-0.144,0.561-0.288,1.121-0.434,1.676c0,0.152,0.029,0.299,0.084,0.436
				c0.053,0.139,0.141,0.264,0.266,0.381c0.111,0,0.229,0,0.351,0c0.12,0,0.248,0,0.371,0c0.429,0,0.792-0.035,1.095-0.104
				c0.299-0.07,0.553-0.213,0.757-0.428l0.063-0.322c0.034,0.057,0.052,0.121,0.052,0.186c0,0.086-0.04,0.205-0.123,0.352
				c-0.081,0.145-0.128,0.232-0.14,0.258c-0.303,0.225-0.72,0.342-1.249,0.348c-0.532,0.002-0.909,0.027-1.123,0.063
				c-0.206-0.086-0.374-0.186-0.505-0.305s-0.215-0.285-0.257-0.486c0.042-0.461,0.134-0.992,0.28-1.602
				c0.146-0.611,0.287-1.213,0.422-1.807c0.139-0.598,0.207-1.107,0.207-1.533c0.043-0.018,0.082-0.023,0.113-0.023
				c0.067,0,0.111,0.037,0.138,0.117c0.023,0.082,0.042,0.15,0.06,0.207c0.019,0.063,0.028,0.121,0.033,0.184
				c0.009,0.063,0.009,0.123,0.009,0.18c0,0.178-0.047,0.461-0.147,0.842c-0.094,0.385-0.144,0.65-0.144,0.805
				c0.201,0,0.526-0.07,0.979-0.207c0.451-0.141,0.795-0.209,1.032-0.209c0.174,0,0.341,0.029,0.502,0.082
				C114.427,46.557,114.578,46.646,114.715,46.777z"/>
			<path fill="#FFFFFF" d="M117.532,45.262c0.018,0.045,0.026,0.078,0.026,0.104c0,0.047-0.042,0.084-0.124,0.115
				c-0.084,0.033-0.172,0.129-0.27,0.293c-0.1,0.164-0.214,0.389-0.356,0.664c-0.139,0.279-0.249,0.543-0.339,0.797
				c0.021,0.195,0.144,0.416,0.373,0.67c0.229,0.256,0.36,0.426,0.392,0.506c0.035,0.078,0.065,0.148,0.089,0.209
				c0.022,0.063,0.032,0.123,0.032,0.188c0,0.049-0.01,0.094-0.03,0.129l-0.109,0.041c-0.102-0.227-0.224-0.441-0.364-0.641
				c-0.14-0.201-0.297-0.365-0.467-0.504c-0.205,0.338-0.363,0.693-0.482,1.072c-0.116,0.377-0.173,0.768-0.173,1.176
				c0.04,0.037,0.087,0.068,0.133,0.1c0.017,0.014,0.014,0.033-0.008,0.049c-0.021,0.021-0.044,0.023-0.071,0.016
				c-0.07,0.035-0.115,0.012-0.136-0.066c-0.016-0.08-0.037-0.127-0.055-0.141c-0.02-0.104-0.024-0.213-0.024-0.32
				c0-0.313,0.063-0.672,0.191-1.068c0.13-0.4,0.252-0.781,0.371-1.154c-0.314-0.361-0.627-0.73-0.942-1.094
				c0-0.084,0.009-0.15,0.016-0.188c0.01-0.037,0.051-0.045,0.118-0.018h0.108c0.083,0.211,0.189,0.396,0.329,0.555
				c0.139,0.156,0.308,0.275,0.502,0.355c0.143-0.361,0.291-0.723,0.44-1.084C116.912,45.619,117.188,45.371,117.532,45.262z"/>
			<path fill="#FFFFFF" d="M120.185,47.711c-0.029,0.084-0.092,0.311-0.186,0.689c-0.091,0.375-0.239,0.656-0.438,0.846
				c-0.043,0.25-0.161,0.465-0.356,0.637c-0.194,0.168-0.433,0.297-0.709,0.373c-0.123-0.068-0.234-0.125-0.331-0.174
				c-0.099-0.049-0.162-0.125-0.192-0.221c-0.031-0.186-0.048-0.367-0.048-0.547c0-0.412,0.052-0.787,0.159-1.119
				c0.105-0.334,0.299-0.867,0.58-1.609c0.119,0,0.255-0.109,0.413-0.336c0.155-0.223,0.276-0.334,0.359-0.334
				c0.101,0,0.201,0.102,0.318,0.316c0.115,0.332,0.209,0.602,0.275,0.801C120.098,47.238,120.15,47.465,120.185,47.711z
				 M119.732,47.986c0-0.033,0.002-0.08,0.009-0.129c0.003-0.051,0.006-0.111,0.006-0.172c0-0.287-0.043-0.549-0.125-0.791
				c-0.085-0.24-0.22-0.426-0.4-0.563c-0.207,0.451-0.422,0.896-0.631,1.346c-0.227,0.549-0.341,1.047-0.341,1.488
				c0.007,0.016,0.028,0.137,0.068,0.359c0.035,0.227,0.115,0.357,0.234,0.387c0.303-0.17,0.521-0.389,0.662-0.664
				C119.354,48.98,119.522,48.559,119.732,47.986z"/>
			<path fill="#FFFFFF" d="M123.894,45.977c-0.123,0.104-0.363,0.188-0.72,0.248c-0.358,0.061-0.609,0.152-0.752,0.275
				c-0.056,0.414-0.113,0.842-0.175,1.293c-0.059,0.451-0.087,0.85-0.087,1.205c0,0.104,0.002,0.217,0.003,0.338
				c0.004,0.129,0.023,0.283,0.058,0.48c0.09,0.086,0.185,0.131,0.295,0.131c0.066,0,0.141-0.025,0.229-0.068l0.68-0.859
				c0.011,0.053,0.017,0.092,0.017,0.125c0,0.176-0.068,0.359-0.203,0.557c-0.141,0.193-0.288,0.357-0.458,0.492
				c-0.043,0.012-0.104,0.023-0.179,0.037c-0.078,0.014-0.143,0.025-0.195,0.025c-0.137,0-0.252-0.029-0.344-0.086
				c-0.088-0.057-0.148-0.195-0.18-0.426c-0.029-0.23-0.044-0.51-0.044-0.848c0-0.381,0.015-0.715,0.044-1.006
				c0.031-0.289,0.084-0.725,0.164-1.311c-0.074-0.018-0.144-0.021-0.208-0.021c-0.136,0-0.367,0.066-0.699,0.197
				c-0.33,0.133-0.576,0.199-0.734,0.199c-0.032,0.021-0.051,0.064-0.059,0.129c-0.007,0.063-0.021,0.107-0.042,0.143
				c-0.037,0.02-0.069,0.01-0.1-0.027c-0.031-0.041-0.054-0.068-0.072-0.09v-0.197c0.51-0.273,0.896-0.461,1.155-0.553
				c0.258-0.096,0.511-0.156,0.759-0.191c0.111-0.244,0.2-0.641,0.261-1.184c0.062-0.543,0.129-0.961,0.204-1.266
				c0.073-0.299,0.242-0.564,0.502-0.789c0.034,0,0.059,0.023,0.078,0.063c-0.163,0.377-0.275,0.748-0.338,1.121
				c-0.063,0.367-0.145,0.99-0.248,1.863c0.026,0.012,0.06,0.02,0.101,0.023c0.043,0,0.075,0.002,0.101,0.002
				c0.066,0,0.201-0.027,0.403-0.076c0.203-0.047,0.342-0.074,0.413-0.074C123.661,45.852,123.785,45.893,123.894,45.977z"/>
			<path fill="#FFFFFF" d="M125.727,44.896c-0.048-0.004-0.165-0.064-0.355-0.178c-0.194-0.113-0.335-0.156-0.431-0.139
				c-0.052,0.088-0.097,0.168-0.137,0.24c-0.039,0.076-0.056,0.148-0.056,0.229c0,0.053,0,0.098,0,0.137
				c-0.143-0.1-0.239-0.172-0.292-0.211c-0.054-0.047-0.08-0.094-0.08-0.154c0-0.053,0.026-0.121,0.082-0.197
				c0.064-0.113,0.131-0.207,0.209-0.279c0.079-0.072,0.165-0.104,0.27-0.104c0.172,0,0.337,0.041,0.489,0.131
				c0.15,0.084,0.252,0.209,0.298,0.373v0.152H125.727z M125.311,49.283c0.046,0.104,0.072,0.205,0.072,0.305
				c0,0.141-0.037,0.273-0.111,0.393c-0.073,0.119-0.175,0.211-0.306,0.271c-0.249-0.061-0.434-0.197-0.556-0.414
				c0.025-0.127,0.04-0.25,0.046-0.369c0.002-0.121,0.008-0.279,0.008-0.477c0-0.121,0-0.24,0-0.361s0-0.24,0-0.363
				c0-0.447,0.032-0.832,0.099-1.154c0.065-0.316,0.2-0.596,0.404-0.828c0.066-0.027,0.113-0.016,0.139,0.031
				c0.012,0.045,0.029,0.09,0.053,0.131c-0.09,0.1-0.158,0.229-0.203,0.377c-0.044,0.152-0.066,0.379-0.066,0.686v0.279v0.109
				c0,0.027,0,0.061,0,0.09c0,0.043,0,0.074,0,0.094c0,0.039,0,0.082,0,0.121c0,0.043,0,0.084,0,0.133
				c0,0.113-0.015,0.305-0.041,0.574c-0.023,0.268-0.034,0.447-0.034,0.527c0,0.119,0.005,0.205,0.011,0.26
				c0.008,0.053,0.029,0.123,0.066,0.209c0.117-0.063,0.212-0.154,0.291-0.264C125.256,49.533,125.299,49.414,125.311,49.283z"/>
			<path fill="#FFFFFF" d="M129.342,48.855c0.013,0.021,0.022,0.045,0.022,0.066c0,0.023-0.028,0.078-0.081,0.164
				c-0.057,0.08-0.084,0.141-0.084,0.182c0,0.043,0.019,0.08,0.054,0.117c-0.215,0.268-0.494,0.477-0.84,0.635
				c-0.344,0.158-0.707,0.236-1.091,0.236c-0.239,0-0.458-0.027-0.656-0.076c-0.201-0.053-0.375-0.168-0.521-0.354
				c-0.146-0.18-0.235-0.289-0.267-0.324c-0.009-0.066-0.019-0.135-0.022-0.209c-0.006-0.078-0.009-0.156-0.009-0.234
				c0-0.523,0.13-1.027,0.393-1.512c0.261-0.488,0.604-0.873,1.027-1.17c0.193-0.092,0.391-0.188,0.582-0.283
				c0.266-0.119,0.477-0.178,0.642-0.178c0.129,0,0.24,0.035,0.338,0.105c0.098,0.072,0.176,0.191,0.232,0.355
				c0.044,0.17,0.069,0.352,0.069,0.541c0,0.318-0.062,0.633-0.184,0.943c-0.118,0.309-0.287,0.572-0.502,0.781l-0.078-0.076h0.078
				c-0.035-0.094-0.057-0.195-0.057-0.303c0-0.148,0.074-0.381,0.222-0.697c0.146-0.32,0.219-0.529,0.219-0.637
				s-0.027-0.209-0.089-0.314c-0.057-0.104-0.156-0.209-0.295-0.316c-0.552,0.078-1.02,0.352-1.409,0.814
				c-0.386,0.465-0.649,0.988-0.791,1.576c0.028,0.203,0.053,0.412,0.079,0.619c0.051,0.225,0.177,0.367,0.377,0.436
				c0.17,0.045,0.334,0.072,0.493,0.072c0.273,0,0.602-0.064,0.988-0.195c0.251-0.096,0.436-0.164,0.552-0.199
				C128.819,49.123,129.021,48.93,129.342,48.855z"/>
			<path fill="#FFFFFF" d="M137.732,49.314c-0.191,0.223-0.338,0.398-0.441,0.52c-0.106,0.119-0.246,0.184-0.418,0.184
				c-0.028,0-0.081-0.008-0.162-0.02c-0.114-0.137-0.194-0.297-0.235-0.486c-0.045-0.182-0.068-0.389-0.068-0.621
				c0-0.145,0.012-0.381,0.039-0.707c0.025-0.326,0.039-0.537,0.039-0.635h-0.232c-0.068,0.109-0.244,0.387-0.534,0.83
				c-0.29,0.449-0.522,0.822-0.696,1.125c-0.175,0.307-0.321,0.615-0.438,0.93l-0.325-0.041c-0.016-0.121-0.024-0.248-0.024-0.375
				c0-0.262,0.055-0.682,0.168-1.266c0.107-0.586,0.163-0.941,0.163-1.064c0-0.121-0.017-0.24-0.044-0.346
				c0.027-0.139,0.044-0.305,0.044-0.492c0-0.195-0.017-0.35-0.044-0.455c-0.321,0.424-0.607,0.828-0.865,1.209
				c-0.255,0.379-0.494,0.762-0.714,1.143c-0.222,0.381-0.423,0.777-0.602,1.191c0,0.037-0.035,0.055-0.108,0.055
				c-0.057,0-0.094,0.006-0.114,0.025c-0.048-0.061-0.087-0.123-0.117-0.193s-0.047-0.143-0.047-0.221
				c0-0.066,0.017-0.129,0.047-0.193c0.028-0.096,0.096-0.441,0.196-1.033c0.102-0.592,0.235-1.012,0.402-1.258h0.163
				c-0.084,0.461-0.163,0.918-0.24,1.377c0,0.088,0.011,0.174,0.024,0.26c0.044-0.051,0.295-0.453,0.764-1.211
				c0.468-0.76,0.831-1.254,1.085-1.49c0.047-0.063,0.104-0.094,0.17-0.094c0.057,0,0.115,0.023,0.174,0.066
				c0.058,0.045,0.099,0.096,0.122,0.156c0.021,0.148,0.029,0.32,0.029,0.512c0,0.305-0.048,0.799-0.142,1.479
				c-0.096,0.682-0.145,1.125-0.145,1.338l0.278-0.338c0.058-0.117,0.117-0.244,0.178-0.367c0.063-0.131,0.136-0.254,0.217-0.379
				c0.083-0.223,0.254-0.469,0.515-0.744c0.262-0.273,0.548-0.574,0.856-0.898c0.025-0.012,0.061,0,0.101,0.027
				c0.041,0.023,0.077,0.033,0.11,0.025c0.001,0.041,0.006,0.082,0.01,0.121c0,0.037,0.004,0.086,0.004,0.143
				c0,0.148-0.028,0.424-0.083,0.828c-0.061,0.402-0.088,0.691-0.088,0.865c0,0.154,0.015,0.293,0.036,0.42
				c0.022,0.125,0.068,0.258,0.137,0.391c0.249-0.094,0.428-0.178,0.535-0.258c0.106-0.076,0.198-0.172,0.272-0.291
				c0.074,0.025,0.107,0.063,0.107,0.1C137.788,49.18,137.77,49.23,137.732,49.314z M132.879,46.949H132.6v-0.15
				c0-0.104,0.015-0.195,0.04-0.264c0.026-0.072,0.078-0.102,0.159-0.102c0.012,0,0.037,0,0.08,0V46.949z"/>
			<path fill="#FFFFFF" d="M142.28,48.596c0.05,0.086,0.077,0.17,0.077,0.254c0,0.137-0.071,0.293-0.211,0.457
				c-0.144,0.168-0.275,0.322-0.398,0.463c-0.166,0.168-0.363,0.293-0.596,0.367c-0.235,0.078-0.486,0.115-0.761,0.115
				c-0.287,0-0.562-0.039-0.825-0.119c-0.334-0.227-0.663-0.443-0.99-0.666c-0.377-0.297-0.565-0.627-0.565-0.99
				c0-0.031,0.004-0.07,0.01-0.111c0.006-0.047,0.053-0.221,0.145-0.529c0.092-0.307,0.273-0.67,0.543-1.082
				c0.271-0.412,0.635-0.691,1.089-0.84c0.188,0,0.332,0.043,0.442,0.133c0.106,0.09,0.199,0.223,0.274,0.391
				c-0.095,0.49-0.35,0.934-0.761,1.33c-0.411,0.398-0.701,0.674-0.87,0.83c-0.027,0.01-0.087,0.016-0.181,0.029
				c-0.09,0.008-0.148,0.043-0.175,0.107c0.083,0.215,0.193,0.373,0.327,0.48c0.136,0.107,0.546,0.342,1.229,0.701
				c0.073,0,0.168,0,0.286,0c0.117,0,0.203,0,0.255,0c0.127,0,0.236-0.01,0.317-0.027c0.084-0.02,0.182-0.057,0.291-0.123
				c0.189-0.131,0.368-0.297,0.542-0.494C141.947,49.072,142.114,48.848,142.28,48.596z M140.083,46.67v-0.363
				c-0.03-0.008-0.074-0.01-0.133-0.01c-0.272,0-0.515,0.119-0.729,0.361c-0.22,0.238-0.395,0.439-0.534,0.594l0.058,0.072
				c0.024,0.047,0.017,0.096-0.021,0.129c-0.04,0.035-0.076,0.072-0.107,0.104c-0.063,0.178-0.107,0.301-0.13,0.369
				c-0.021,0.066-0.029,0.131-0.029,0.199c0,0.123,0.041,0.225,0.123,0.309c0.293-0.232,0.574-0.508,0.845-0.824
				C139.694,47.291,139.913,46.977,140.083,46.67z"/>
			<path fill="#FFFFFF" d="M143.322,50.004c0,0.066-0.034,0.113-0.093,0.129c-0.064,0.021-0.123,0.035-0.181,0.051h-0.207
				c0-0.061-0.018-0.098-0.053-0.115c0.035-0.012,0.098-0.047,0.188-0.104c0.092-0.059,0.158-0.086,0.205-0.086
				C143.249,49.879,143.295,49.918,143.322,50.004z M143.513,44.234c0,0.447-0.016,0.906-0.048,1.379
				c-0.031,0.475-0.063,0.969-0.095,1.479c-0.033,0.516-0.047,0.955-0.047,1.32c-0.011,0.012-0.035,0.039-0.067,0.066
				c-0.033,0.033-0.05,0.064-0.05,0.096c0,0.016,0.007,0.033,0.023,0.061l-0.179,0.006c0-0.445,0.014-0.928,0.045-1.445
				c0.026-0.518,0.057-1.051,0.089-1.609c0.034-0.557,0.053-1.006,0.053-1.346c0.063-0.039,0.112-0.064,0.146-0.064
				C143.407,44.178,143.452,44.197,143.513,44.234z"/>
			<path fill="#FFFFFF" d="M144.731,50.004c0,0.066-0.031,0.113-0.095,0.129c-0.063,0.021-0.119,0.035-0.175,0.051h-0.209
				c0-0.061-0.02-0.098-0.054-0.115c0.034-0.012,0.099-0.047,0.189-0.104c0.09-0.059,0.158-0.086,0.203-0.086
				C144.658,49.879,144.704,49.918,144.731,50.004z M144.923,44.234c0,0.447-0.018,0.906-0.049,1.379
				c-0.03,0.475-0.065,0.969-0.096,1.479c-0.032,0.516-0.047,0.955-0.047,1.32c-0.012,0.012-0.033,0.039-0.067,0.066
				c-0.031,0.033-0.051,0.064-0.051,0.096c0,0.016,0.008,0.033,0.023,0.061l-0.175,0.006c0-0.445,0.013-0.928,0.043-1.445
				c0.028-0.518,0.057-1.051,0.091-1.609c0.031-0.557,0.049-1.006,0.049-1.346c0.067-0.039,0.116-0.064,0.146-0.064
				C144.817,44.178,144.86,44.197,144.923,44.234z"/>
		</g>
	</g>
	<g>
		<g>
			<g>
				
					<linearGradient id="SVGID_1_" gradientUnits="userSpaceOnUse" x1="334.0703" y1="-337.4502" x2="304.1006" y2="-289.8512" gradientTransform="matrix(1 0 0 -1 -256 -296)">
					<stop  offset="0.0385" style="stop-color:#F8951D"/>
					<stop  offset="0.3626" style="stop-color:#FF00C9"/>
					<stop  offset="0.6429" style="stop-color:#86269B"/>
					<stop  offset="1" style="stop-color:#00D2F1"/>
				</linearGradient>
				<path fill="url(#SVGID_1_)" d="M52.653,22.901c-1.995,0-3.822,0.771-5.48,2.308c-1.657,1.541-2.485,3.197-2.485,4.973
					c0,1.209,0.321,2.135,0.966,2.77c0.644,0.637,1.563,0.953,2.757,0.953c0.941,0,1.912-0.219,2.91-0.66
					c0.998-0.438,2.054-1.123,3.168-2.049l-0.259-0.424c-0.911,0.676-1.786,1.189-2.627,1.545c-0.84,0.355-1.598,0.527-2.273,0.527
					c-0.628,0-1.108-0.17-1.438-0.506c-0.33-0.336-0.51-0.846-0.54-1.518c2.92-0.693,5.073-1.467,6.456-2.322
					c1.383-0.857,2.074-1.836,2.074-2.936c0-0.833-0.287-1.484-0.86-1.955C54.447,23.137,53.659,22.901,52.653,22.901z
					 M52.088,28.076c-1.21,0.949-2.788,1.621-4.736,2.014c0.454-1.9,1.189-3.459,2.202-4.678c1.014-1.218,2.03-1.828,3.051-1.828
					c0.425,0,0.746,0.123,0.965,0.367c0.221,0.242,0.332,0.599,0.332,1.07C53.902,26.107,53.297,27.125,52.088,28.076z
					 M44.312,23.526c-0.251-0.322-0.637-0.482-1.155-0.482c-0.927,0-1.937,0.567-3.027,1.709c-1.091,1.14-2.257,2.839-3.499,5.103
					l1.933-6.671l-2.899,0.494l-2.686,10.087h2.544c1.179-2.828,2.368-5.094,3.571-6.797c1.203-1.705,2.171-2.558,2.911-2.558
					c0.125,0,0.235,0.069,0.329,0.201c0.095,0.134,0.142,0.304,0.142,0.507c0,0.314-0.149,1.121-0.447,2.426l-0.023,0.139
					l2.309-0.375c0.125-0.502,0.22-0.943,0.282-1.32c0.063-0.375,0.095-0.713,0.095-1.014C44.689,24.33,44.563,23.847,44.312,23.526
					z M37.937,14.136c1.673-2.717,2.51-5.396,2.51-8.036c0-2.168-0.644-3.915-1.932-5.242c-1.29-1.328-2.977-1.991-5.067-1.991
					c-3.125,0-6.079,1.631-8.86,4.889c-2.78,3.26-5.891,8.825-9.331,16.696c2.042-6.787,3.42-11.497,4.136-14.127
					c0.715-2.631,1.197-4.717,1.448-6.256l-3.463,1.225c-1.398,6.395-3.056,12.799-4.973,19.217
					c-1.917,6.417-4.107,12.845-6.573,19.288l3.086,1.836c3.817-13.367,7.74-23.638,11.771-30.809
					c4.03-7.17,7.88-10.755,11.557-10.755c1.494,0,2.69,0.529,3.594,1.59c0.904,1.06,1.356,2.463,1.356,4.206
					c0,2.074-0.468,4.28-1.401,6.621c-0.934,2.342-2.236,4.509-3.9,6.503c-1.384,1.682-2.872,2.937-4.465,3.77
					c-1.595,0.833-3.287,1.247-5.077,1.247c-0.41,0-0.907-0.033-1.497-0.104c-0.589-0.072-1.284-0.177-2.086-0.319l-1.295,1.837
					c0.173,0.016,0.35,0.027,0.53,0.035c0.18,0.006,0.451,0.012,0.813,0.012c2.246,0,4.378-0.334,6.398-1
					c2.018-0.669,3.938-1.671,5.761-3.007C33.944,19.295,36.266,16.854,37.937,14.136z M73.411,31.361
					c-1.318,0.959-2.223,1.438-2.71,1.438c-0.154,0-0.278-0.059-0.364-0.18c-0.085-0.115-0.128-0.285-0.128-0.506
					c0-0.063,0.019-0.174,0.058-0.328c0.04-0.156,0.105-0.369,0.201-0.639l3.132-9.778h3.181v-0.683h-3.04l2.616-8.436l-3.109,0.661
					l-2.592,7.775h-1.603v0.684h1.37l-2.759,9.26c-0.063,0.221-0.111,0.447-0.141,0.686c-0.031,0.234-0.047,0.484-0.047,0.754
					c0,0.547,0.199,1,0.602,1.354c0.399,0.355,0.923,0.529,1.566,0.529c0.582,0,1.259-0.209,2.026-0.625
					c0.77-0.418,1.705-1.07,2.804-1.967l-0.307-0.539C73.995,30.943,73.74,31.125,73.411,31.361z M122.931-0.19
					c-0.777-0.723-1.982-1.084-3.618-1.084c-1.646,0-3.298,0.276-4.946,0.826c-1.651,0.55-3.19,1.334-4.62,2.354
					c-1.288,0.927-2.243,1.871-2.862,2.829c-0.622,0.957-0.931,1.964-0.931,3.016c0,0.314,0.06,0.64,0.177,0.979
					c0.119,0.337,0.296,0.719,0.529,1.142l1.227,2.098c0.032,0.047,0.062,0.11,0.094,0.188c0.03,0.079,0.047,0.142,0.047,0.189
					c0,0.206-0.322,0.471-0.966,0.803c-0.095,0.047-0.166,0.086-0.213,0.117l-1.768,1.014c-3.346,1.822-5.83,3.703-7.457,5.644
					c-1.624,1.94-2.439,3.98-2.439,6.116c0,2.592,0.899,4.572,2.698,5.949c1.8,1.375,4.387,2.063,7.763,2.063
					c1.603,0,3.392-0.195,5.361-0.586c1.972-0.393,4.253-1.014,6.847-1.863l0.636-3.393c-3.11,1.635-5.846,2.84-8.2,3.615
					c-2.355,0.779-4.445,1.168-6.267,1.168c-2.123,0-3.772-0.441-4.951-1.318c-1.179-0.881-1.767-2.115-1.767-3.701
					c0-1.648,0.756-3.35,2.273-5.101c1.516-1.75,3.784-3.539,6.8-5.36c0.518-0.314,1.192-0.692,2.026-1.131
					c1.353-0.708,2.023-1.265,2.023-1.673c0-0.156-0.393-0.817-1.177-1.979c-0.788-1.163-1.179-2.223-1.179-3.182
					c0-0.942,0.502-2.115,1.507-3.522c1.008-1.405,2.332-2.744,3.982-4.017c1.133-0.848,2.238-1.5,3.322-1.956
					c1.084-0.455,2.064-0.684,2.946-0.684c0.881,0,1.543,0.166,1.989,0.495c0.449,0.33,0.673,0.809,0.673,1.438
					c0,0.582-0.177,1.397-0.529,2.45c-0.354,1.054-1.065,2.772-2.133,5.159l2.804-0.424c0.485-1.179,0.852-2.21,1.096-3.098
					c0.243-0.887,0.364-1.622,0.364-2.204C124.097,1.655,123.709,0.532,122.931-0.19z M66.65,12.251l-3.11,0.661l-2.592,7.775
					h-1.603v0.684h1.367l-2.758,9.26c-0.062,0.223-0.11,0.445-0.14,0.684c-0.031,0.236-0.046,0.484-0.046,0.754
					c0,0.549,0.2,1.004,0.601,1.355c0.401,0.354,0.924,0.531,1.567,0.531c0.581,0,1.257-0.209,2.025-0.627
					c0.77-0.416,1.704-1.072,2.804-1.967l-0.306-0.541c-0.173,0.123-0.424,0.305-0.754,0.541c-1.32,0.959-2.223,1.438-2.71,1.438
					c-0.156,0-0.277-0.059-0.364-0.18c-0.086-0.115-0.13-0.285-0.13-0.506c0-0.063,0.02-0.174,0.058-0.328
					c0.039-0.156,0.107-0.369,0.2-0.639l3.134-9.778h3.182v-0.683h-3.039L66.65,12.251z M89.046,31.607
					c-0.526,0.322-1.058,0.627-1.59,0.908l2.593-9.378h-2.924c-1.209,2.89-2.465,5.193-3.77,6.904
					c-1.303,1.713-2.411,2.568-3.322,2.568c-0.202,0-0.353-0.07-0.446-0.211c-0.095-0.143-0.142-0.348-0.142-0.613
					c0-0.393,0.198-1.262,0.602-2.605c0.399-1.342,1.087-3.402,2.06-6.182l-3.248,0.446l-0.097,0.331
					c-1.318,4.083-1.978,6.676-1.978,7.776c0,0.738,0.174,1.316,0.518,1.732c0.345,0.416,0.835,0.623,1.462,0.623
					c1.241,0,2.522-0.662,3.841-1.988c1.319-1.328,2.584-3.217,3.795-5.67l-2.569,8.203c-2.246,1.16-4.004,2.439-5.277,3.84
					c-1.272,1.398-1.91,2.734-1.91,4.008c0,0.801,0.209,1.412,0.626,1.834c0.417,0.426,1.016,0.639,1.801,0.639
					c1.666,0,3.183-0.959,4.548-2.875c1.367-1.916,2.553-4.752,3.56-8.506c0.673-0.346,1.321-0.711,1.941-1.098
					c0.622-0.385,1.222-0.797,1.804-1.234l-0.236-0.521C90.117,30.928,89.572,31.287,89.046,31.607z M80.917,42.318
					c-0.684,1.209-1.387,1.814-2.108,1.814c-0.301,0-0.542-0.129-0.73-0.391c-0.191-0.256-0.284-0.609-0.284-1.047
					c0-1.209,0.516-2.475,1.542-3.795c1.028-1.318,2.466-2.537,4.302-3.65C82.506,38.752,81.6,41.107,80.917,42.318z"/>
			</g>
		</g>
		<path fill="#FF00C9" d="M126.262,14.43c0,0,5.501-6.015,6.535-2.406c1.028,3.608-8.421,27.847,8.598,21.832
			c0,0-7.737,1.631-8.167-4.729c-0.358-5.345,1.291-13.149,1.808-16.762C135.548,8.757,131.763,6.351,126.262,14.43z"/>
		<path fill="#FF00C9" d="M114.802,36.996c0,0,28.291-28.285,36.591-23.553C151.39,13.443,143.478,1.954,114.802,36.996z"/>
		<g>
			<path fill="#26A9E0" d="M-5.375-10.041c0,0,3.229-0.69,5.273,1.665l0.232,0.744l-1.793-0.257l1.893,0.616
				c0,0,0.281,0.485,0.281,0.794c0,0-4.251-0.971-7.525,0.104c0,0,0.69-1.562,0.997-1.871c1.052-0.176,2.306-0.077,2.97,0.181
				c0,0-1.225-0.693-2.915-0.591C-5.96-8.657-5.529-9.68-5.375-10.041z"/>
			<path fill="#26A9E0" d="M-10.776-5.583c0,0,5.412-3.097,16.587-0.384c0,0,1.132,0.384,0.191,0.616
				C5.058-5.122-5.333-6.48-13.393-1.587l1.512-2.125c0.514-0.301,2.316-1.203,4.867-1.565c0,0-1.546-0.254-4.521,1.052
				L-10.776-5.583z"/>
			<path fill="#26A9E0" d="M-6.654-4.328c0,0,0.254,2.612,1.893,3.483c1.638,0.872,0.617,2.816,0.617,2.816l1.176-0.461
				c0,0-0.563-1.535,0.358-2.152C-1.689-1.254-0.408-2.997-0.865-5.3C-1.329-7.606-6.5-4.535-6.654-4.328z"/>
			<path fill="#26A9E0" d="M-5.818,29.375c0,0-0.19,4.607,0.903,8.297c0.589,1.984,1.327,4.268,0.735,6.316
				c-0.138,0.477-0.958,2.936,0.546,9.904c0,0,2.032-6.543,1.283-9.207c-0.951-3.369,0.629-6.695,0.562-10.09
				c-0.022-1.145-0.284-2.387-0.477-3.52C-3.086,26.232-5.818,29.375-5.818,29.375z"/>
		</g>
		<path fill="#EB00AD" d="M-3.999,1.304c0,0-6.433,2.907-6.49,4.25c-0.054,1.343,4.477,6.712,4.867,10.683
			c0.388,3.97-6.096,11.802-5.534,15.772c0,0,10.827,0.389,13.514,5.76c0,0,1.342-11.336-2.535-16.705
			c-3.877-5.37-3.877-4.773-2.386-8.054c1.489-3.282,5.67-8.65,5.966-13.347C3.474-2.352-1.705,0.48-3.999,1.304z"/>
		
			<linearGradient id="SVGID_2_" gradientUnits="userSpaceOnUse" x1="250.4238" y1="-320.875" x2="261.0228" y2="-326.0891" gradientTransform="matrix(1 0 0 -1 -256 -296)">
			<stop  offset="0" style="stop-color:#FFFFFF"/>
			<stop  offset="1" style="stop-color:#EB00AD"/>
		</linearGradient>
		<path opacity="0.39" fill="url(#SVGID_2_)" enable-background="new    " d="M-0.177,21.064c-1.371-1.897-2.248-3.039-2.754-3.88
			c1.722,6.086-1.584,13.511-2.639,15.649c3.083,0.758,6.564,2.205,7.927,4.936C2.357,37.77,3.699,26.434-0.177,21.064z"/>
		
			<linearGradient id="SVGID_3_" gradientUnits="userSpaceOnUse" x1="255.8428" y1="-304.6309" x2="246.5267" y2="-304.6309" gradientTransform="matrix(1 0 0 -1 -256 -296)">
			<stop  offset="0" style="stop-color:#FFFFFF"/>
			<stop  offset="1" style="stop-color:#EB00AD"/>
		</linearGradient>
		<path opacity="0.39" fill="url(#SVGID_3_)" enable-background="new    " d="M-10.489,5.554c-0.054,1.342,4.477,6.711,4.867,10.683
			c0.002,0.032,0,0.063,0.007,0.104C-0.703,9.03-2.547,2.373-3.042,0.923c-0.352,0.147-0.673,0.28-0.958,0.38
			C-3.999,1.304-10.434,4.208-10.489,5.554z"/>
	</g>
	<path fill="#1B75BB" d="M-1.097,53.355c0,0,35.895-25.639,111.441-15.383c0,0,3.079,1.709-0.341,2.736
		C106.584,41.734,51.206,26.354-1.097,53.355z"/>
</g>
</svg>
