<?xml version="1.0" encoding="utf-8"?>
<!-- Generator: Adobe Illustrator 16.0.0, SVG Export Plug-In . SVG Version: 6.00 Build 0)  -->
<!DOCTYPE svg PUBLIC "-//W3C//DTD SVG 1.1//EN" "http://www.w3.org/Graphics/SVG/1.1/DTD/svg11.dtd">
<svg version="1.1" id="Layer_1" xmlns="http://www.w3.org/2000/svg" xmlns:xlink="http://www.w3.org/1999/xlink" x="0px" y="0px"
	 width="138px" height="110px" viewBox="0 -30.5 138 110" enable-background="new 0 -30.5 138 110" xml:space="preserve">
<g>
	<g>
		<g>
			<path fill="#FFFFFF" d="M18.927,56.922c-0.121,0.455-0.255,0.847-0.415,1.173c-0.157,0.327-0.359,0.527-0.607,0.606
				c-0.258,0.573-0.68,1.139-1.269,1.697c-0.59,0.558-1.045,0.991-1.372,1.301c-0.325,0.305-0.71,0.538-1.149,0.694
				c-0.44,0.161-0.678,0.402-0.705,0.724c-0.03,0.316-0.052,0.727-0.064,1.223c-0.018,0.495-0.025,1.035-0.025,1.616v0.354v0.313
				c0,0.734-0.03,1.406-0.087,2.019H12.83c0-1.778,0.022-3.268,0.059-4.464c0.042-1.201,0.109-2.416,0.211-3.65
				c0.096-1.236,0.262-2.589,0.49-4.054c0.04-0.037,0.081-0.08,0.127-0.133c0.043-0.045,0.106-0.064,0.183-0.045
				c0.092,0.09,0.135,0.169,0.135,0.235c0,0.041-0.014,0.096-0.043,0.161c-0.031,0.071-0.06,0.148-0.092,0.228
				c0,0.544-0.066,1.411-0.199,2.611c-0.135,1.196-0.2,2.021-0.2,2.478c0.079,0.03,0.156,0.046,0.235,0.046
				c0.189,0,0.37-0.058,0.549-0.173c0.178-0.115,0.505-0.4,0.987-0.863c0.481-0.46,0.954-0.953,1.433-1.479
				c0.472-0.526,0.879-1.119,1.222-1.777c0.341-0.658,0.512-1.344,0.512-2.056c-0.098-0.276-0.243-0.528-0.43-0.751
				c-0.188-0.224-0.418-0.392-0.688-0.5c-0.274-0.111-0.557-0.164-0.854-0.164c-0.289,0-0.786,0.098-1.498,0.298
				c-0.71,0.196-1.128,0.302-1.246,0.312c-0.413,0.201-0.723,0.37-0.919,0.51c-0.199,0.144-0.299,0.336-0.299,0.574
				c0,0.128,0.035,0.258,0.106,0.387c-0.13-0.039-0.219-0.129-0.27-0.268c-0.048-0.136-0.093-0.272-0.135-0.397
				c0.238-0.604,0.833-1.041,1.782-1.305c0.952-0.259,1.559-0.464,1.825-0.612c0.137,0,0.277,0,0.412,0c0.14,0,0.283,0,0.434,0
				c0.383,0,0.703,0.039,0.954,0.11c0.255,0.072,0.487,0.233,0.691,0.48c0.247,0.181,0.424,0.417,0.534,0.709
				C18.946,55.382,19,55.698,19,56.046c0,0.179-0.004,0.315-0.014,0.412C18.977,56.559,18.957,56.713,18.927,56.922z"/>
			<path fill="#FFFFFF" d="M26.775,61.521c0.019,0.087-0.003,0.165-0.066,0.238c-0.063,0.063-0.122,0.127-0.17,0.174
				c-0.069,0.013-0.163,0.018-0.283,0.018c-0.196,0-0.49-0.058-0.867-0.18c-0.381-0.113-0.638-0.179-0.777-0.179
				c-0.129,0-0.259,0.03-0.395,0.082c-0.135,0.055-0.274,0.143-0.42,0.259c-0.804,1.032-1.409,2.057-1.827,3.085
				c-0.414,1.021-0.624,2.146-0.624,3.377c-0.039,0.005-0.112,0.057-0.216,0.143c-0.103,0.093-0.208,0.126-0.318,0.104
				c-0.258-1.187-0.459-2.165-0.601-2.933c-0.144-0.769-0.264-1.581-0.364-2.434c-0.098-0.857-0.146-1.717-0.146-2.576
				c0-0.06,0.034-0.137,0.103-0.229c0.067-0.094,0.164-0.158,0.283-0.184c0.188,0.502,0.38,1.412,0.578,2.727
				c0.197,1.321,0.331,2.098,0.403,2.337c0.227-0.308,0.593-1.009,1.089-2.11c0.5-1.099,1.132-1.814,1.895-2.152
				c0.207-0.109,0.416-0.162,0.634-0.162c0.2,0,0.544,0.099,1.042,0.297C26.217,61.422,26.57,61.521,26.775,61.521z"/>
			<path fill="#FFFFFF" d="M34.95,65.452c0.1,0.168,0.148,0.332,0.148,0.488c0,0.265-0.135,0.559-0.41,0.877
				c-0.272,0.324-0.525,0.62-0.764,0.896c-0.316,0.322-0.699,0.56-1.148,0.709c-0.451,0.144-0.939,0.221-1.463,0.221
				c-0.554,0-1.081-0.08-1.589-0.236c-0.642-0.423-1.281-0.853-1.915-1.271c-0.721-0.577-1.082-1.211-1.082-1.916
				c0-0.056,0.007-0.13,0.016-0.214c0.011-0.085,0.104-0.42,0.281-1.016c0.181-0.592,0.529-1.285,1.045-2.081
				c0.518-0.791,1.223-1.336,2.1-1.621c0.357,0,0.638,0.09,0.848,0.26s0.388,0.423,0.534,0.753c-0.188,0.94-0.678,1.793-1.471,2.557
				c-0.788,0.767-1.347,1.3-1.677,1.608c-0.045,0.009-0.161,0.021-0.337,0.042c-0.18,0.02-0.294,0.093-0.344,0.208
				c0.159,0.418,0.37,0.729,0.632,0.933c0.262,0.204,1.049,0.65,2.367,1.345c0.137,0,0.318,0,0.55,0c0.226,0,0.389,0,0.489,0
				c0.247,0,0.451-0.018,0.615-0.052c0.163-0.036,0.349-0.11,0.557-0.228c0.366-0.253,0.713-0.576,1.044-0.955
				C34.31,66.367,34.634,65.933,34.95,65.452z M30.724,61.743v-0.699c-0.062-0.008-0.145-0.017-0.253-0.017
				c-0.523,0-0.993,0.23-1.407,0.691c-0.417,0.458-0.758,0.845-1.026,1.149l0.105,0.134c0.048,0.102,0.039,0.182-0.04,0.253
				c-0.074,0.07-0.14,0.134-0.199,0.194c-0.13,0.346-0.215,0.582-0.254,0.711c-0.04,0.131-0.057,0.258-0.057,0.39
				c0,0.234,0.076,0.433,0.235,0.59c0.566-0.445,1.106-0.975,1.627-1.589C29.973,62.938,30.395,62.336,30.724,61.743z"/>
			<path fill="#FFFFFF" d="M42.456,60.407c-0.235,0.2-0.699,0.356-1.39,0.476c-0.686,0.119-1.169,0.296-1.443,0.531
				c-0.112,0.792-0.222,1.621-0.334,2.487c-0.114,0.865-0.169,1.642-0.169,2.321c0,0.2,0,0.417,0.006,0.652
				c0.004,0.236,0.042,0.544,0.113,0.922c0.166,0.167,0.353,0.25,0.565,0.25c0.127,0,0.276-0.042,0.443-0.132l1.307-1.648
				c0.02,0.101,0.029,0.178,0.029,0.236c0,0.336-0.131,0.693-0.393,1.068c-0.264,0.374-0.557,0.691-0.884,0.947
				c-0.077,0.02-0.193,0.047-0.341,0.076c-0.147,0.031-0.27,0.044-0.372,0.044c-0.266,0-0.488-0.054-0.657-0.161
				c-0.175-0.11-0.293-0.384-0.35-0.826c-0.062-0.438-0.089-0.979-0.089-1.621c0-0.735,0.027-1.377,0.089-1.939
				c0.057-0.56,0.163-1.401,0.313-2.527c-0.138-0.034-0.273-0.047-0.401-0.047c-0.258,0-0.704,0.128-1.343,0.386
				c-0.638,0.259-1.11,0.385-1.417,0.385c-0.057,0.043-0.096,0.123-0.111,0.244c-0.016,0.126-0.042,0.219-0.081,0.276
				c-0.07,0.041-0.135,0.024-0.193-0.049c-0.058-0.077-0.105-0.134-0.133-0.174v-0.379c0.978-0.523,1.713-0.879,2.216-1.062
				c0.499-0.186,0.987-0.309,1.463-0.364c0.217-0.477,0.384-1.234,0.505-2.279c0.115-1.045,0.248-1.857,0.391-2.434
				c0.145-0.578,0.469-1.085,0.97-1.521c0.058,0,0.108,0.041,0.15,0.117c-0.318,0.723-0.534,1.44-0.653,2.154
				c-0.122,0.713-0.279,1.909-0.478,3.59c0.05,0.022,0.114,0.036,0.193,0.039c0.079,0.008,0.143,0.009,0.195,0.009
				c0.128,0,0.387-0.045,0.777-0.143c0.393-0.094,0.655-0.141,0.792-0.141C42.011,60.169,42.251,60.249,42.456,60.407z"/>
			<path fill="#FFFFFF" d="M49.755,60.407c-0.235,0.2-0.697,0.356-1.388,0.476c-0.684,0.119-1.167,0.296-1.443,0.531
				c-0.112,0.792-0.222,1.621-0.334,2.487c-0.115,0.865-0.172,1.642-0.172,2.321c0,0.2,0.002,0.417,0.01,0.652
				c0.006,0.236,0.042,0.544,0.113,0.922c0.167,0.167,0.355,0.25,0.561,0.25c0.131,0,0.28-0.042,0.447-0.132l1.307-1.648
				c0.021,0.101,0.031,0.178,0.031,0.236c0,0.336-0.133,0.693-0.395,1.068c-0.262,0.374-0.556,0.691-0.882,0.947
				c-0.081,0.02-0.195,0.047-0.343,0.076c-0.146,0.031-0.27,0.044-0.37,0.044c-0.266,0-0.488-0.054-0.66-0.161
				c-0.174-0.11-0.29-0.384-0.348-0.826c-0.062-0.438-0.092-0.979-0.092-1.621c0-0.735,0.03-1.377,0.092-1.939
				c0.059-0.56,0.161-1.401,0.312-2.527c-0.137-0.034-0.272-0.047-0.403-0.047c-0.255,0-0.701,0.128-1.34,0.386
				c-0.64,0.259-1.11,0.385-1.416,0.385c-0.059,0.043-0.098,0.123-0.111,0.244c-0.018,0.126-0.045,0.219-0.083,0.276
				c-0.07,0.041-0.135,0.024-0.195-0.049c-0.059-0.077-0.102-0.134-0.133-0.174v-0.379c0.979-0.523,1.717-0.879,2.217-1.062
				c0.499-0.186,0.987-0.309,1.462-0.364c0.217-0.477,0.385-1.234,0.505-2.279c0.117-1.045,0.248-1.857,0.392-2.434
				c0.145-0.578,0.469-1.085,0.972-1.521c0.056,0,0.108,0.041,0.146,0.117c-0.316,0.723-0.532,1.44-0.651,2.154
				c-0.12,0.713-0.279,1.909-0.476,3.59c0.048,0.022,0.114,0.036,0.192,0.039c0.08,0.008,0.142,0.009,0.194,0.009
				c0.131,0,0.388-0.045,0.78-0.143c0.389-0.094,0.655-0.141,0.792-0.141C49.314,60.169,49.549,60.249,49.755,60.407z"/>
			<path fill="#FFFFFF" d="M54.947,60.407l-0.816,1.353c-0.225,0.995-0.41,1.841-0.547,2.526s-0.206,1.366-0.206,2.04l0.398,0.119
				c-0.303,0.564-0.504,1.163-0.598,1.802c-0.096,0.639-0.142,1.399-0.142,2.276c0,0.307,0,0.614,0,0.921c0,0.305,0,0.617,0,0.934
				c0,0.822-0.023,1.438-0.071,1.851c-0.046,0.409-0.126,0.817-0.24,1.226l0.225,1.94h0.314c0.03,0.091,0.028,0.161-0.007,0.219
				c-0.037,0.053-0.098,0.121-0.185,0.201c-0.093,0.032-0.185,0.052-0.272,0.052c-0.158,0-0.276-0.132-0.355-0.4
				c-0.081-0.269-0.16-0.429-0.237-0.491c0-0.65,0.055-1.81,0.171-3.472c0.113-1.66,0.169-2.779,0.169-3.366
				c0-0.256-0.002-0.546-0.008-0.86c-0.004-0.316-0.046-0.719-0.124-1.203c-0.61-1.119-1.039-1.919-1.286-2.399
				c-0.243-0.49-0.479-1.07-0.698-1.753c-0.221-0.686-0.332-1.366-0.332-2.049h0.519c0.197,0.93,0.448,1.802,0.758,2.623
				c0.308,0.827,0.696,1.604,1.171,2.348c0.111-0.228,0.177-0.508,0.209-0.848c0.02-0.494,0.046-0.985,0.075-1.483
				c0.165-1.136,0.395-2.069,0.682-2.799C53.798,60.994,54.277,60.556,54.947,60.407z"/>
			<path fill="#FFFFFF" d="M68.303,57.22c-0.11,0.009-0.179,0.103-0.208,0.277c-0.033,0.17-0.089,0.28-0.181,0.329
				c0.011-0.087,0.017-0.159,0.017-0.208c0-0.068,0-0.188,0-0.356c0-0.167,0-0.302,0-0.398c0-0.23-0.019-0.416-0.052-0.559
				c-0.033-0.144-0.115-0.297-0.244-0.455c-0.355-0.217-0.717-0.369-1.083-0.454c-0.366-0.095-0.751-0.137-1.156-0.137
				c-0.792,0-1.591,0.17-2.399,0.506c-0.804,0.345-1.61,0.786-2.409,1.33c-0.011,0.049-0.089,0.158-0.238,0.328
				c-0.146,0.168-0.204,0.302-0.161,0.398c-0.058,0-0.139-0.048-0.244-0.138c-0.106-0.098-0.157-0.2-0.157-0.318
				c0-0.09,0.168-0.305,0.505-0.647c0.334-0.34,0.919-0.693,1.75-1.059c0.832-0.367,1.563-0.645,2.197-0.833
				c0.632-0.187,0.987-0.28,1.062-0.28c0.071,0,0.13,0,0.169,0c0.602,0,1.164,0.135,1.682,0.402c0.519,0.264,0.904,0.646,1.151,1.14
				v1.132H68.303z M67.633,61.951c-0.189,0.089-0.407,0.133-0.653,0.133c-0.07,0-0.192-0.006-0.371-0.014
				c-0.179-0.009-0.327-0.015-0.444-0.015v-0.104c-1.209,0.138-2.146,0.305-2.822,0.497c-0.672,0.194-1.253,0.434-1.749,0.724
				c-0.277,1.081-0.555,2.154-0.835,3.225c0,0.298,0.053,0.578,0.159,0.843c0.103,0.262,0.273,0.506,0.51,0.733
				c0.22,0,0.44,0,0.675,0c0.229,0,0.473,0,0.719,0c0.821,0,1.52-0.065,2.099-0.197c0.58-0.137,1.066-0.409,1.462-0.823l0.12-0.623
				c0.067,0.107,0.104,0.225,0.104,0.356c0,0.166-0.078,0.393-0.237,0.673c-0.156,0.285-0.246,0.449-0.266,0.497
				c-0.586,0.435-1.387,0.66-2.411,0.668c-1.024,0.011-1.743,0.052-2.156,0.124c-0.399-0.157-0.721-0.357-0.975-0.59
				c-0.25-0.231-0.417-0.544-0.497-0.941c0.077-0.881,0.257-1.906,0.542-3.08c0.281-1.171,0.553-2.33,0.815-3.48
				c0.262-1.145,0.395-2.132,0.395-2.948c0.089-0.03,0.163-0.047,0.222-0.047c0.131,0,0.215,0.076,0.261,0.229
				c0.043,0.153,0.083,0.285,0.118,0.4c0.035,0.114,0.056,0.231,0.067,0.349c0.012,0.119,0.014,0.233,0.014,0.343
				c0,0.342-0.094,0.882-0.279,1.622c-0.19,0.738-0.286,1.256-0.286,1.552c0.388,0,1.018-0.135,1.884-0.397
				c0.871-0.273,1.534-0.408,1.989-0.408c0.335,0,0.658,0.05,0.965,0.156C67.081,61.516,67.366,61.691,67.633,61.951z"/>
			<path fill="#FFFFFF" d="M73.063,59.041c0.031,0.077,0.047,0.141,0.047,0.191c0,0.089-0.077,0.161-0.238,0.224
				c-0.156,0.058-0.327,0.246-0.517,0.563c-0.189,0.32-0.416,0.745-0.683,1.281c-0.269,0.531-0.485,1.042-0.653,1.527
				c0.039,0.379,0.278,0.807,0.719,1.302c0.438,0.489,0.691,0.808,0.76,0.96c0.061,0.154,0.118,0.291,0.16,0.406
				c0.048,0.123,0.067,0.237,0.067,0.36c0,0.099-0.02,0.18-0.058,0.252l-0.207,0.07c-0.201-0.433-0.432-0.845-0.703-1.231
				c-0.273-0.383-0.575-0.704-0.902-0.96c-0.396,0.643-0.702,1.329-0.928,2.053c-0.224,0.728-0.333,1.486-0.333,2.268
				c0.079,0.068,0.164,0.135,0.253,0.193c0.027,0.032,0.024,0.063-0.016,0.095c-0.042,0.039-0.085,0.044-0.135,0.022
				c-0.138,0.072-0.225,0.03-0.261-0.127c-0.035-0.152-0.07-0.237-0.112-0.257c-0.029-0.208-0.046-0.416-0.046-0.625
				c0-0.604,0.127-1.29,0.373-2.055c0.247-0.77,0.485-1.506,0.71-2.223c-0.603-0.699-1.207-1.401-1.808-2.108
				c0-0.163,0.009-0.288,0.031-0.36c0.019-0.075,0.093-0.085,0.222-0.038h0.208c0.158,0.414,0.37,0.773,0.638,1.078
				c0.268,0.299,0.59,0.523,0.966,0.674c0.277-0.693,0.56-1.39,0.846-2.08C71.867,59.724,72.402,59.239,73.063,59.041z"/>
			<path fill="#FFFFFF" d="M78.17,63.751c-0.058,0.154-0.179,0.598-0.356,1.322c-0.178,0.728-0.461,1.271-0.848,1.626
				c-0.079,0.484-0.305,0.892-0.683,1.225c-0.375,0.332-0.832,0.572-1.366,0.719c-0.233-0.13-0.449-0.237-0.639-0.332
				c-0.185-0.097-0.313-0.236-0.371-0.423c-0.054-0.354-0.085-0.704-0.085-1.053c0-0.79,0.102-1.504,0.304-2.148
				c0.199-0.643,0.576-1.676,1.12-3.102c0.229,0,0.49-0.22,0.795-0.647c0.302-0.429,0.53-0.646,0.688-0.646
				c0.189,0,0.392,0.204,0.606,0.608c0.228,0.645,0.406,1.159,0.535,1.551C78,62.84,78.097,63.27,78.17,63.751z M77.295,64.282
				c0-0.072,0.005-0.153,0.009-0.255c0.013-0.098,0.023-0.205,0.023-0.326c0-0.551-0.083-1.061-0.249-1.519
				c-0.161-0.461-0.412-0.823-0.762-1.092c-0.408,0.871-0.813,1.741-1.221,2.6c-0.434,1.056-0.65,2.011-0.65,2.859
				c0.006,0.029,0.051,0.263,0.127,0.698c0.075,0.434,0.227,0.681,0.451,0.741c0.582-0.324,1.008-0.75,1.276-1.275
				C76.568,66.192,76.897,65.38,77.295,64.282z"/>
			<path fill="#FFFFFF" d="M85.307,60.407c-0.241,0.2-0.702,0.356-1.393,0.476c-0.687,0.119-1.169,0.296-1.44,0.531
				c-0.113,0.792-0.225,1.621-0.337,2.487c-0.115,0.865-0.168,1.642-0.168,2.321c0,0.2,0,0.417,0.004,0.652
				c0.007,0.236,0.045,0.544,0.113,0.922c0.166,0.167,0.354,0.25,0.565,0.25c0.127,0,0.277-0.042,0.447-0.132l1.306-1.648
				c0.017,0.101,0.027,0.178,0.027,0.236c0,0.336-0.129,0.693-0.394,1.068c-0.262,0.374-0.558,0.691-0.885,0.947
				c-0.074,0.02-0.188,0.047-0.338,0.076c-0.151,0.031-0.272,0.044-0.372,0.044c-0.269,0-0.49-0.054-0.658-0.161
				c-0.174-0.11-0.296-0.384-0.354-0.826c-0.056-0.438-0.085-0.979-0.085-1.621c0-0.735,0.029-1.377,0.085-1.939
				c0.058-0.56,0.165-1.401,0.313-2.527c-0.136-0.034-0.272-0.047-0.398-0.047c-0.261,0-0.703,0.128-1.342,0.386
				c-0.642,0.259-1.111,0.385-1.421,0.385c-0.055,0.043-0.093,0.123-0.11,0.244c-0.016,0.126-0.038,0.219-0.081,0.276
				c-0.065,0.041-0.136,0.024-0.191-0.049c-0.056-0.077-0.105-0.134-0.133-0.174v-0.379c0.976-0.523,1.715-0.879,2.217-1.062
				c0.499-0.186,0.986-0.309,1.46-0.364c0.219-0.477,0.388-1.234,0.504-2.279c0.121-1.045,0.254-1.857,0.397-2.434
				c0.143-0.578,0.464-1.085,0.969-1.521c0.058,0,0.106,0.041,0.147,0.117c-0.32,0.723-0.535,1.44-0.652,2.154
				c-0.121,0.713-0.275,1.909-0.476,3.59c0.047,0.022,0.11,0.036,0.195,0.039c0.077,0.008,0.141,0.009,0.191,0.009
				c0.127,0,0.39-0.045,0.776-0.143c0.394-0.094,0.657-0.141,0.794-0.141C84.859,60.169,85.098,60.249,85.307,60.407z"/>
			<path fill="#FFFFFF" d="M88.837,58.331c-0.093-0.014-0.318-0.124-0.683-0.341c-0.365-0.217-0.643-0.307-0.831-0.269
				c-0.101,0.171-0.186,0.319-0.263,0.462c-0.074,0.139-0.11,0.281-0.11,0.43c0,0.108,0,0.198,0,0.269
				c-0.271-0.188-0.458-0.326-0.56-0.411s-0.153-0.183-0.153-0.29c0-0.11,0.057-0.237,0.167-0.384
				c0.116-0.22,0.25-0.403,0.397-0.536c0.148-0.139,0.321-0.207,0.521-0.207c0.331,0,0.65,0.081,0.941,0.252
				c0.292,0.165,0.482,0.408,0.572,0.727V58.331L88.837,58.331z M88.033,66.773c0.089,0.197,0.135,0.396,0.135,0.59
				c0,0.27-0.066,0.516-0.206,0.752c-0.137,0.23-0.34,0.406-0.597,0.527c-0.473-0.124-0.827-0.387-1.063-0.799
				c0.047-0.25,0.077-0.488,0.086-0.716c0.008-0.228,0.019-0.532,0.019-0.919c0-0.229,0-0.459,0-0.691c0-0.23,0-0.463,0-0.705
				c0-0.861,0.062-1.599,0.189-2.217c0.132-0.615,0.385-1.148,0.774-1.594c0.127-0.051,0.219-0.029,0.263,0.058
				c0.034,0.089,0.063,0.174,0.103,0.253c-0.171,0.198-0.302,0.438-0.39,0.728c-0.086,0.287-0.13,0.728-0.13,1.319v0.534v0.209
				c0,0.057,0,0.115,0,0.176c0,0.079,0,0.138,0,0.176c0,0.081,0,0.16,0,0.238c0,0.081,0,0.164,0,0.249
				c0,0.22-0.024,0.592-0.071,1.108c-0.052,0.521-0.074,0.861-0.074,1.018c0,0.228,0.008,0.397,0.022,0.499
				c0.017,0.102,0.06,0.238,0.128,0.406c0.221-0.126,0.409-0.3,0.562-0.508C87.927,67.252,88.012,67.018,88.033,66.773z"/>
			<path fill="#FFFFFF" d="M95.793,65.94c0.034,0.048,0.042,0.095,0.042,0.135c0,0.049-0.048,0.153-0.15,0.313
				c-0.103,0.158-0.155,0.276-0.155,0.354c0,0.081,0.034,0.155,0.107,0.226c-0.42,0.515-0.956,0.926-1.621,1.226
				c-0.66,0.304-1.362,0.455-2.106,0.455c-0.452,0-0.875-0.052-1.264-0.148c-0.379-0.099-0.715-0.324-1-0.678
				c-0.281-0.349-0.451-0.563-0.509-0.63c-0.022-0.121-0.036-0.255-0.044-0.401c-0.014-0.147-0.021-0.3-0.021-0.444
				c0-1.011,0.257-1.98,0.762-2.916c0.502-0.935,1.161-1.684,1.975-2.249c0.373-0.176,0.748-0.361,1.122-0.549
				c0.507-0.225,0.919-0.34,1.231-0.34c0.249,0,0.467,0.068,0.658,0.208c0.182,0.136,0.334,0.366,0.442,0.681
				c0.09,0.327,0.134,0.677,0.134,1.043c0,0.611-0.117,1.216-0.347,1.815c-0.234,0.599-0.558,1.101-0.97,1.507l-0.148-0.149h0.148
				c-0.072-0.178-0.104-0.37-0.104-0.583c0-0.283,0.138-0.733,0.423-1.348c0.279-0.613,0.422-1.018,0.422-1.215
				c0-0.211-0.061-0.411-0.17-0.611c-0.115-0.197-0.307-0.398-0.575-0.604c-1.055,0.145-1.962,0.67-2.705,1.563
				c-0.752,0.896-1.256,1.906-1.523,3.033c0.051,0.402,0.1,0.793,0.148,1.189c0.103,0.437,0.341,0.717,0.728,0.846
				c0.328,0.09,0.643,0.135,0.954,0.135c0.519,0,1.152-0.124,1.896-0.373c0.485-0.185,0.841-0.313,1.068-0.385
				C94.795,66.469,95.181,66.099,95.793,65.94z"/>
			<path fill="#FFFFFF" d="M111.949,66.835c-0.365,0.432-0.65,0.77-0.851,1c-0.203,0.233-0.475,0.349-0.812,0.349
				c-0.047,0-0.153-0.009-0.311-0.03c-0.219-0.269-0.37-0.578-0.455-0.936c-0.08-0.355-0.123-0.757-0.123-1.204
				c0-0.276,0.025-0.727,0.071-1.357c0.052-0.625,0.073-1.037,0.073-1.223h-0.441c-0.129,0.206-0.474,0.742-1.03,1.602
				c-0.563,0.857-1.008,1.583-1.345,2.166c-0.335,0.585-0.617,1.174-0.847,1.778l-0.621-0.075c-0.029-0.235-0.047-0.479-0.047-0.727
				c0-0.492,0.107-1.308,0.319-2.433c0.216-1.129,0.319-1.808,0.319-2.048c0-0.236-0.034-0.457-0.092-0.665
				c0.058-0.269,0.092-0.587,0.092-0.951c0-0.375-0.034-0.67-0.092-0.875c-0.61,0.822-1.168,1.596-1.661,2.328
				c-0.493,0.73-0.956,1.468-1.383,2.203c-0.424,0.735-0.813,1.502-1.153,2.293c0,0.068-0.071,0.104-0.212,0.104
				c-0.111,0-0.18,0.017-0.222,0.044c-0.09-0.107-0.166-0.229-0.222-0.365c-0.061-0.135-0.089-0.274-0.089-0.422
				c0-0.132,0.028-0.25,0.089-0.374c0.054-0.191,0.184-0.853,0.381-1.991c0.189-1.138,0.449-1.947,0.776-2.422h0.311
				c-0.162,0.887-0.311,1.771-0.464,2.654c0,0.171,0.02,0.338,0.047,0.504c0.079-0.098,0.57-0.876,1.473-2.335
				c0.902-1.46,1.594-2.413,2.093-2.872c0.09-0.12,0.195-0.175,0.326-0.175c0.106,0,0.219,0.04,0.329,0.123
				c0.115,0.085,0.191,0.188,0.232,0.307c0.04,0.288,0.059,0.612,0.059,0.979c0,0.596-0.096,1.542-0.276,2.849
				c-0.181,1.308-0.272,2.166-0.272,2.584l0.53-0.655c0.112-0.226,0.224-0.464,0.34-0.711c0.12-0.245,0.26-0.488,0.416-0.727
				c0.16-0.423,0.491-0.902,0.993-1.43c0.506-0.529,1.054-1.105,1.648-1.729c0.049-0.02,0.116-0.008,0.192,0.044
				c0.079,0.053,0.151,0.068,0.214,0.06c0.003,0.078,0.015,0.152,0.019,0.229c0.007,0.073,0.007,0.166,0.007,0.272
				c0,0.285-0.051,0.821-0.162,1.595c-0.11,0.775-0.162,1.335-0.162,1.673c0,0.296,0.021,0.562,0.065,0.809
				c0.042,0.237,0.132,0.492,0.259,0.748c0.487-0.179,0.83-0.342,1.033-0.489c0.209-0.148,0.379-0.335,0.526-0.565
				c0.138,0.047,0.21,0.115,0.21,0.193C112.057,66.576,112.021,66.673,111.949,66.835z M102.602,62.278h-0.529v-0.283
				c0-0.208,0.021-0.378,0.073-0.513c0.047-0.132,0.15-0.199,0.313-0.199c0.02,0,0.064,0,0.143,0V62.278z"/>
			<path fill="#FFFFFF" d="M120.702,65.452c0.102,0.168,0.153,0.332,0.153,0.488c0,0.265-0.138,0.559-0.411,0.877
				c-0.271,0.324-0.524,0.62-0.768,0.896c-0.314,0.322-0.697,0.56-1.148,0.709c-0.446,0.144-0.937,0.221-1.459,0.221
				c-0.559,0-1.085-0.08-1.59-0.236c-0.642-0.423-1.278-0.853-1.912-1.271c-0.724-0.577-1.084-1.211-1.084-1.916
				c0-0.056,0.006-0.13,0.017-0.214c0.012-0.085,0.106-0.42,0.285-1.016c0.174-0.592,0.521-1.285,1.042-2.081
				c0.515-0.791,1.222-1.336,2.1-1.621c0.355,0,0.639,0.09,0.845,0.26c0.208,0.17,0.387,0.423,0.535,0.753
				c-0.189,0.94-0.678,1.793-1.471,2.557c-0.787,0.767-1.35,1.3-1.677,1.608c-0.047,0.009-0.161,0.021-0.339,0.042
				c-0.179,0.02-0.295,0.093-0.344,0.208c0.162,0.418,0.371,0.729,0.631,0.933c0.264,0.204,1.051,0.65,2.368,1.345
				c0.139,0,0.317,0,0.549,0c0.228,0,0.389,0,0.491,0c0.245,0,0.451-0.018,0.613-0.052c0.165-0.036,0.351-0.11,0.562-0.228
				c0.36-0.253,0.711-0.576,1.042-0.955C120.06,66.367,120.39,65.933,120.702,65.452z M116.476,61.743v-0.699
				c-0.058-0.008-0.143-0.017-0.253-0.017c-0.523,0-0.991,0.23-1.406,0.691c-0.415,0.458-0.76,0.845-1.027,1.149l0.106,0.134
				c0.047,0.102,0.036,0.182-0.04,0.253c-0.074,0.07-0.14,0.134-0.198,0.194c-0.132,0.346-0.213,0.582-0.251,0.711
				c-0.045,0.131-0.061,0.258-0.061,0.39c0,0.234,0.082,0.433,0.237,0.59c0.563-0.445,1.108-0.975,1.625-1.589
				C115.724,62.938,116.15,62.336,116.476,61.743z"/>
			<path fill="#FFFFFF" d="M122.708,68.158c0,0.132-0.062,0.217-0.177,0.253c-0.123,0.033-0.236,0.066-0.343,0.099h-0.406
				c0-0.118-0.029-0.194-0.102-0.225c0.072-0.021,0.191-0.085,0.37-0.2c0.166-0.114,0.3-0.17,0.39-0.17
				C122.569,67.915,122.657,67.997,122.708,68.158z M123.08,57.05c0,0.861-0.033,1.747-0.096,2.656
				c-0.059,0.913-0.121,1.862-0.185,2.853c-0.063,0.987-0.092,1.838-0.092,2.54c-0.023,0.026-0.062,0.073-0.13,0.134
				c-0.063,0.058-0.094,0.12-0.094,0.178c0,0.028,0.014,0.067,0.045,0.118l-0.343,0.018c0-0.862,0.03-1.792,0.084-2.787
				c0.049-0.991,0.107-2.027,0.176-3.101c0.063-1.072,0.094-1.938,0.094-2.587c0.132-0.079,0.225-0.119,0.285-0.119
				C122.872,56.948,122.957,56.981,123.08,57.05z"/>
			<path fill="#FFFFFF" d="M125.42,68.158c0,0.132-0.055,0.217-0.174,0.253c-0.123,0.033-0.232,0.066-0.343,0.099h-0.402
				c0-0.118-0.033-0.194-0.106-0.225c0.073-0.021,0.196-0.085,0.37-0.2c0.166-0.114,0.298-0.17,0.388-0.17
				C125.286,67.915,125.371,67.997,125.42,68.158z M125.795,57.05c0,0.861-0.035,1.747-0.099,2.656
				c-0.055,0.913-0.118,1.862-0.183,2.853c-0.059,0.987-0.094,1.838-0.094,2.54c-0.021,0.026-0.059,0.073-0.123,0.134
				c-0.068,0.063-0.1,0.12-0.1,0.178c0,0.028,0.015,0.067,0.044,0.118l-0.34,0.018c0-0.862,0.027-1.792,0.082-2.787
				c0.05-0.991,0.113-2.027,0.178-3.101c0.063-1.072,0.096-1.938,0.096-2.587c0.13-0.079,0.223-0.119,0.283-0.119
				C125.587,56.948,125.675,56.981,125.795,57.05z"/>
		</g>
	</g>
	<g>
		<g>
			<g>
				<g>
					<g>
						
							<linearGradient id="SVGID_1_" gradientUnits="userSpaceOnUse" x1="296.9922" y1="-313.2061" x2="335.2041" y2="-313.2061" gradientTransform="matrix(1 0 0 -1 -256 -296)">
							<stop  offset="0.0385" style="stop-color:#F8951D"/>
							<stop  offset="0.3626" style="stop-color:#FF00C9"/>
							<stop  offset="0.6429" style="stop-color:#86269B"/>
							<stop  offset="1" style="stop-color:#00D2F1"/>
						</linearGradient>
						<path fill="url(#SVGID_1_)" d="M79.035-4.413c-0.404-2.773-1.553-4.893-3.446-6.353c-1.897-1.457-4.183-1.995-6.853-1.607
							c-4.001,0.582-7.479,3.215-10.432,7.901c-2.952,4.689-5.898,12.387-8.84,23.095c1.351-9.063,2.243-15.341,2.669-18.844
							c0.428-3.499,0.657-6.258,0.694-8.271L48.62-6.282c-0.603,8.443-1.536,16.944-2.797,25.511
							c-1.26,8.568-2.871,17.2-4.831,25.904l4.289,1.774c2.404-17.816,5.52-31.684,9.344-41.608
							c3.826-9.925,8.091-15.227,12.795-15.908c1.908-0.276,3.541,0.177,4.893,1.366c1.353,1.19,2.187,2.899,2.513,5.13
							c0.385,2.655,0.197,5.565-0.566,8.732c-0.764,3.172-2.022,6.186-3.78,9.047c-1.458,2.407-3.13,4.292-5.018,5.653
							c-1.884,1.361-3.973,2.206-6.265,2.54c-0.523,0.077-1.167,0.125-1.935,0.144c-0.767,0.017-1.678,0.011-2.727-0.022
							l-1.315,2.593c0.224-0.014,0.453-0.03,0.684-0.053c0.233-0.024,0.58-0.069,1.043-0.138c2.874-0.416,5.542-1.239,8.001-2.469
							c2.459-1.226,4.731-2.865,6.816-4.912c3.396-3.323,5.914-6.881,7.547-10.668C78.949,2.545,79.524-1.035,79.035-4.413z"/>
					</g>
				</g>
				<g>
					
						<linearGradient id="SVGID_2_" gradientUnits="userSpaceOnUse" x1="340.6426" y1="-304.5439" x2="346.0596" y2="-304.5439" gradientTransform="matrix(1 0 0 -1 -256 -296)">
						<stop  offset="0.0385" style="stop-color:#F8951D"/>
						<stop  offset="0.3626" style="stop-color:#FF00C9"/>
						<stop  offset="0.6429" style="stop-color:#86269B"/>
						<stop  offset="1" style="stop-color:#00D2F1"/>
					</linearGradient>
					<path fill="url(#SVGID_2_)" d="M89.95,9.086c-0.422,1.998-1.93,3.365-3.365,3.069c-1.432-0.309-2.254-2.167-1.832-4.158
						c0.412-1.998,1.92-3.366,3.36-3.064C89.534,5.236,90.373,7.089,89.95,9.086z"/>
					
						<linearGradient id="SVGID_3_" gradientUnits="userSpaceOnUse" x1="346.1396" y1="-303.1836" x2="354.835" y2="-303.1836" gradientTransform="matrix(1 0 0 -1 -256 -296)">
						<stop  offset="0.0385" style="stop-color:#F8951D"/>
						<stop  offset="0.3626" style="stop-color:#FF00C9"/>
						<stop  offset="0.6429" style="stop-color:#86269B"/>
						<stop  offset="1" style="stop-color:#00D2F1"/>
					</linearGradient>
					<path fill="url(#SVGID_3_)" d="M90.396,7.573c0.214-0.399,0.518-0.765,0.693-0.958c0.828-0.939,2.02-1.577,3.275-1.17
						c2.512,0.789,2.62,2.15,4.471,0.802c0,0-1.829,2.837-3.557,1.426c-0.766-0.634-1.715-0.208-2.467,0.251
						c-0.511,0.313-1.553,1.347-2.227,1.08C89.954,8.741,90.093,8.126,90.396,7.573z"/>
					
						<linearGradient id="SVGID_4_" gradientUnits="userSpaceOnUse" x1="328.5088" y1="-320.4839" x2="351.4844" y2="-320.4839" gradientTransform="matrix(1 0 0 -1 -256 -296)">
						<stop  offset="0.0385" style="stop-color:#F8951D"/>
						<stop  offset="0.3626" style="stop-color:#FF00C9"/>
						<stop  offset="0.6429" style="stop-color:#86269B"/>
						<stop  offset="1" style="stop-color:#00D2F1"/>
					</linearGradient>
					<path fill="url(#SVGID_4_)" d="M72.509,16.454c0,0,5.925-8.717,7.918-4.287c1.981,4.42-5.608,37.196,15.058,26.338
						c0,0-9.602,3.52-11.335-4.534c-1.451-6.771-0.783-17.071-0.792-21.786C83.341,7.471,78.055,5.096,72.509,16.454z"/>
					
						<linearGradient id="SVGID_5_" gradientUnits="userSpaceOnUse" x1="318.0391" y1="-324.2031" x2="360.4854" y2="-324.2031" gradientTransform="matrix(1 0 0 -1 -256 -296)">
						<stop  offset="0.0385" style="stop-color:#F8951D"/>
						<stop  offset="0.3626" style="stop-color:#FF00C9"/>
						<stop  offset="0.6429" style="stop-color:#86269B"/>
						<stop  offset="1" style="stop-color:#00D2F1"/>
					</linearGradient>
					<path fill="url(#SVGID_5_)" d="M62.039,47.456c0,0,30.947-41.444,42.447-36.927C104.485,10.529,92.222-2.704,62.039,47.456z"/>
				</g>
			</g>
			
				<linearGradient id="SVGID_6_" gradientUnits="userSpaceOnUse" x1="281.4307" y1="-305.4082" x2="368.874" y2="-305.4082" gradientTransform="matrix(1 0 0 -1 -256 -296)">
				<stop  offset="0.0385" style="stop-color:#F8951D"/>
				<stop  offset="0.3626" style="stop-color:#FF00C9"/>
				<stop  offset="0.6429" style="stop-color:#86269B"/>
				<stop  offset="1" style="stop-color:#00D2F1"/>
			</linearGradient>
			<path fill="url(#SVGID_6_)" d="M100.018-16.013C92.137-23.9,81.262-28.806,69.265-28.866l0,0H69.25c-0.037,0-0.067,0-0.105,0
				c-0.033,0-0.069,0-0.104,0h-0.014l0,0C57.032-28.806,46.163-23.9,38.274-16.013C30.34-8.073,25.431,2.888,25.431,14.977
				c1.373,13.707,5.805,24.261,15.435,32.706c-9.379-11.303-9.773-26.593-9.806-32.71c-0.004-10.534,4.28-20.086,11.196-27.008
				c6.895-6.894,16.402-11.172,26.892-11.203c10.493,0.031,20,4.311,26.893,11.203c6.92,6.921,11.202,16.474,11.197,27.008
				c-0.031,6.117-0.426,21.407-9.802,32.71c9.623-8.445,14.064-18.999,15.438-32.706C112.87,2.89,107.956-8.073,100.018-16.013z"/>
		</g>
	</g>
</g>
</svg>
