<?xml version="1.0" encoding="utf-8"?>
<!-- Generator: Adobe Illustrator 16.0.0, SVG Export Plug-In . SVG Version: 6.00 Build 0)  -->
<!DOCTYPE svg PUBLIC "-//W3C//DTD SVG 1.1//EN" "http://www.w3.org/Graphics/SVG/1.1/DTD/svg11.dtd">
<svg version="1.1" id="Layer_1" xmlns="http://www.w3.org/2000/svg" xmlns:xlink="http://www.w3.org/1999/xlink" x="0px" y="0px"
	 width="20px" height="20px" viewBox="0 0 20 20" enable-background="new 0 0 20 20" xml:space="preserve">
<g>
	<path fill-rule="evenodd" clip-rule="evenodd" fill="#9E2380" d="M30.245-19.785c-0.022,1.439-0.391,2.793-0.92,4.111
		c-0.833,2.079-1.999,3.97-3.33,5.759c-0.557,0.752-1.162,1.465-1.748,2.191c-0.151,0.189-0.412,0.182-0.601-0.025
		c-0.302-0.338-0.603-0.678-0.876-1.035c-1.557-2.035-2.862-4.217-3.795-6.61c-0.43-1.098-0.751-2.227-0.873-3.404
		c-0.166-1.598,0.062-3.117,0.987-4.475c0.866-1.27,2.091-2.01,3.58-2.316c1.621-0.334,3.195-0.197,4.676,0.584
		c1.557,0.822,2.444,2.141,2.752,3.857C30.178-20.699,30.197-20.24,30.245-19.785z M23.971-8.755
		c0.06-0.066,0.097-0.105,0.132-0.146c1.019-1.189,1.93-2.455,2.744-3.793c0.813-1.334,1.523-2.724,2.012-4.216
		c0.412-1.264,0.636-2.551,0.412-3.881c-0.294-1.75-1.247-2.986-2.908-3.646c-1.107-0.439-2.253-0.49-3.415-0.277
		c-2.364,0.434-3.806,2.143-3.96,4.545c-0.092,1.449,0.246,2.826,0.746,4.17c0.848,2.284,2.079,4.358,3.516,6.313
		C23.478-9.376,23.721-9.077,23.971-8.755z"/>
	<path fill-rule="evenodd" clip-rule="evenodd" fill="#9E2380" d="M24.146-17.234c-1.387-0.02-2.468-1.143-2.443-2.537
		c0.022-1.334,1.16-2.422,2.51-2.398c1.356,0.021,2.437,1.152,2.417,2.527C26.609-18.314,25.475-17.213,24.146-17.234z
		 M24.168-18.156c0.857,0.002,1.541-0.674,1.549-1.535c0.008-0.857-0.671-1.549-1.526-1.555c-0.886-0.006-1.574,0.668-1.576,1.543
		C22.612-18.84,23.298-18.156,24.168-18.156z"/>
</g>
<g>
	<path fill-rule="evenodd" clip-rule="evenodd" fill="#9E2380" d="M-10.232-20.697c-0.064-0.393,0.125-0.666,0.368-0.947
		c1.065-1.227,2.347-2.145,3.849-2.755c0.607-0.247,1.15-0.078,1.646,0.294c0.09,0.068,0.164,0.185,0.201,0.294
		c0.472,1.421,0.94,2.843,1.402,4.267c0.125,0.387,0.1,0.783-0.064,1.146C-2.922-18.197-3.077-18-3.254-17.869
		c-0.389,0.286-0.809,0.529-1.218,0.789c-0.366,0.235-0.459,0.497-0.281,0.898c0.087,0.193,0.212,0.373,0.34,0.541
		c1.185,1.563,2.532,2.961,4.129,4.103c0.231,0.165,0.529,0.252,0.811,0.328c0.226,0.06,0.404-0.056,0.53-0.271
		c0.243-0.407,0.507-0.8,0.763-1.201c0.285-0.444,0.935-0.731,1.455-0.613c1.493,0.33,2.964,0.729,4.361,1.36
		c0.712,0.32,1.069,1.175,0.778,1.91c-0.65,1.661-1.693,3.033-3.083,4.144C5.274-5.834,5.183-5.806,5.108-5.806
		C3.275-5.832,1.488-6.12-0.196-6.862c-4.677-2.061-7.876-5.487-9.458-10.374c-0.168-0.52-0.282-1.063-0.369-1.603
		C-10.123-19.453-10.166-20.076-10.232-20.697z M4.533-6.581c0.181-0.052,0.405-0.052,0.536-0.163
		c1.152-0.981,2.042-2.163,2.586-3.585c0.133-0.346-0.043-0.729-0.379-0.874c-0.145-0.063-0.289-0.134-0.438-0.181
		c-1.164-0.354-2.323-0.731-3.497-1.046c-0.538-0.143-0.742-0.031-0.979,0.398c-0.188,0.339-0.43,0.653-0.626,0.988
		c-0.287,0.483-0.729,0.648-1.251,0.64c-0.408-0.007-0.792-0.132-1.123-0.374c-1.773-1.3-3.321-2.821-4.583-4.625
		c-0.132-0.188-0.239-0.403-0.308-0.621c-0.185-0.584-0.139-1.346,0.628-1.754c0.344-0.182,0.662-0.416,0.991-0.625
		c0.448-0.285,0.529-0.457,0.368-0.97c-0.411-1.304-0.834-2.604-1.258-3.901c-0.137-0.42-0.498-0.58-0.917-0.412
		c-1.369,0.545-2.515,1.404-3.466,2.521c-0.113,0.133-0.181,0.352-0.178,0.527c0.021,1.113,0.192,2.205,0.526,3.27
		c1.068,3.403,3.131,6.086,6.011,8.146C-0.634-7.654,1.805-6.737,4.533-6.581z"/>
	<path fill-rule="evenodd" clip-rule="evenodd" fill="#9E2380" d="M8.861-15.826c0,0.112,0.003,0.225-0.001,0.336
		c-0.009,0.246-0.154,0.376-0.385,0.398c-0.204,0.02-0.374-0.154-0.397-0.385c-0.052-0.51-0.068-1.023-0.156-1.525
		c-0.6-3.404-3.235-6.141-6.616-6.857c-0.562-0.118-1.143-0.146-1.716-0.205c-0.321-0.031-0.505-0.174-0.498-0.41
		c0.007-0.242,0.198-0.385,0.517-0.385c4.251-0.002,8.128,3.127,9.02,7.293c0.123,0.572,0.185,1.156,0.273,1.733
		C8.889-15.83,8.876-15.828,8.861-15.826z"/>
	<path fill-rule="evenodd" clip-rule="evenodd" fill="#9E2380" d="M6.242-15.863c0.004,0.102,0.016,0.204,0.016,0.307
		c-0.001,0.246-0.17,0.444-0.393,0.469c-0.219,0.022-0.404-0.151-0.44-0.412c-0.062-0.488-0.076-0.989-0.193-1.465
		c-0.62-2.537-2.894-4.363-5.505-4.447c-0.055-0.002-0.11,0-0.167-0.005c-0.286-0.019-0.475-0.188-0.468-0.415
		c0.007-0.233,0.197-0.397,0.485-0.393c0.777,0.014,1.541,0.133,2.266,0.426c2.501,1.007,3.952,2.854,4.369,5.517
		C6.232-16.145,6.232-16.003,6.242-15.863z"/>
	<path fill-rule="evenodd" clip-rule="evenodd" fill="#9E2380" d="M-0.392-19.444c2.108,0.093,3.788,1.812,3.818,3.837
		c0.006,0.332-0.116,0.502-0.37,0.52c-0.25,0.016-0.417-0.174-0.438-0.502c-0.081-1.334-0.737-2.279-1.953-2.813
		c-0.332-0.146-0.714-0.197-1.079-0.246c-0.355-0.048-0.517-0.149-0.514-0.415c0.004-0.269,0.175-0.39,0.533-0.381
		C-0.368-19.444-0.341-19.444-0.392-19.444z"/>
</g>
<g>
	<path fill-rule="evenodd" clip-rule="evenodd" fill="#9E2380" d="M19.167,2.833c0,4.482,0,8.961,0,13.444
		c-6.111,0-12.223,0-18.333,0c0-4.482,0-8.962,0-13.444C6.944,2.833,13.056,2.833,19.167,2.833z M2.077,4.062
		c0.055,0.061,0.085,0.099,0.12,0.133c2.11,2.094,4.219,4.188,6.332,6.278c0.239,0.238,0.486,0.47,0.752,0.676
		c0.435,0.339,0.993,0.336,1.434,0.002c0.218-0.164,0.421-0.349,0.615-0.54c2.163-2.14,4.323-4.283,6.483-6.425
		c0.032-0.032,0.058-0.071,0.1-0.124C12.629,4.062,7.374,4.062,2.077,4.062z M2.348,15.038c5.118,0,10.194,0,15.303,0
		c-1.667-1.363-3.306-2.705-4.986-4.08c-0.054,0.076-0.095,0.153-0.154,0.209c-0.335,0.313-0.654,0.644-1.015,0.924
		c-0.91,0.709-2.067,0.709-2.982,0.011c-0.277-0.213-0.53-0.458-0.781-0.7c-0.142-0.136-0.258-0.294-0.39-0.449
		C5.651,12.336,4.013,13.677,2.348,15.038z M17.934,5.833c-0.013-0.011-0.026-0.021-0.041-0.03
		c-1.421,1.452-2.844,2.905-4.275,4.368c1.405,1.149,2.849,2.331,4.316,3.531C17.934,11.055,17.934,8.443,17.934,5.833z
		 M6.371,10.18C4.937,8.716,3.515,7.264,2.07,5.787c0,2.654,0,5.267,0,7.912C3.534,12.502,4.974,11.324,6.371,10.18z"/>
</g>
</svg>
