<?xml version="1.0" encoding="utf-8"?>
<!-- Generator: Adobe Illustrator 16.0.0, SVG Export Plug-In . SVG Version: 6.00 Build 0)  -->
<!DOCTYPE svg PUBLIC "-//W3C//DTD SVG 1.1//EN" "http://www.w3.org/Graphics/SVG/1.1/DTD/svg11.dtd">
<svg version="1.1" id="Capa_1" xmlns="http://www.w3.org/2000/svg" xmlns:xlink="http://www.w3.org/1999/xlink" x="0px" y="0px"
	 width="20px" height="20px" viewBox="0 0 20 20" enable-background="new 0 0 20 20" xml:space="preserve">
<g>
	<g>
		<polygon fill="#737980" points="-144.018,-72.918 -144.028,-66.251 -129.743,-64.347 -144.028,-62.442 -144.018,-55.775 
			-124.028,-64.347 		"/>
	</g>
</g>
<g>
	<path fill-rule="evenodd" clip-rule="evenodd" fill="#FCFCFC" d="M-137.235-46.03c0.016,0.009,0.029,0.022,0.045,0.027
		c0.52,0.157,0.732,0.438,0.742,0.976c0.004,0.223,0.004,0.223,0.23,0.223c0.801,0,1.604,0.016,2.404-0.007
		c0.572-0.017,1.004,0.392,1,0.999c-0.01,1.749-0.002,3.498-0.008,5.247c0,0.097-0.027,0.225-0.092,0.282
		c-0.068,0.061-0.203,0.088-0.297,0.07c-0.131-0.023-0.188-0.139-0.188-0.278c0.002-0.646,0.002-1.29,0-1.935
		c0-0.192-0.01-0.385,0.004-0.576c0.012-0.172-0.053-0.215-0.217-0.215c-1.377,0.006-2.754,0.004-4.133,0.004
		c-3.084,0-6.17-0.001-9.256,0.002c-0.421,0-0.352-0.045-0.353,0.35c-0.002,2.557-0.001,5.114-0.001,7.671
		c-0.001,0.38,0.092,0.475,0.473,0.475c2.516,0.001,5.032,0,7.548,0.001c0.058,0,0.118-0.002,0.175,0.003
		c0.172,0.014,0.273,0.116,0.277,0.273c0.004,0.166-0.1,0.284-0.279,0.289c-0.348,0.008-0.697,0.004-1.046,0.004
		c-2.184,0-4.369,0-6.554-0.001c-0.75,0-0.894-0.095-1.181-0.771c0-3.708,0-7.416,0-11.125c0.01-0.014,0.025-0.025,0.03-0.041
		c0.155-0.508,0.442-0.723,0.965-0.721c0.801,0,1.602,0,2.402,0c0.239,0,0.239,0,0.242-0.247c0.004-0.448,0.216-0.772,0.594-0.909
		c0.065-0.023,0.13-0.047,0.194-0.069c0.082,0,0.163,0,0.244,0c0.008,0.008,0.014,0.021,0.024,0.023
		c0.553,0.194,0.738,0.441,0.732,1.011c-0.001,0.156,0.046,0.195,0.197,0.194c1.259-0.005,2.518-0.003,3.778-0.003
		c0.34,0,0.293,0.031,0.297-0.299c0.004-0.436,0.25-0.764,0.668-0.885c0.031-0.01,0.063-0.028,0.092-0.042
		C-137.397-46.03-137.315-46.03-137.235-46.03z M-144.315-44.219c-0.062-0.003-0.113-0.008-0.165-0.008c-0.825,0-1.65,0-2.476,0.001
		c-0.289,0-0.395,0.106-0.396,0.402c-0.002,0.593-0.001,1.186-0.001,1.778c-0.001,0.262,0,0.262,0.268,0.263
		c1.592,0,3.184-0.001,4.776-0.001c2.899,0,5.798,0,8.698,0.004c0.164,0,0.221-0.042,0.219-0.214
		c-0.012-0.61-0.004-1.221-0.006-1.831c0-0.293-0.107-0.401-0.396-0.401c-0.826-0.001-1.65-0.001-2.477-0.001
		c-0.057,0-0.111,0-0.168,0c-0.01,0.16-0.014,0.293-0.029,0.426c-0.061,0.483-0.455,0.801-0.951,0.77
		c-0.461-0.028-0.816-0.406-0.82-0.874c-0.002-0.103,0-0.204,0-0.308c-1.438,0-2.845,0-4.265,0
		c-0.001,0.291,0.014,0.572-0.168,0.813c-0.184,0.242-0.422,0.375-0.73,0.372C-143.973-43.033-144.221-43.352-144.315-44.219z
		 M-143.086-44.516c0,0,0,0,0.001,0c0-0.192,0.002-0.384-0.001-0.575c-0.004-0.204-0.133-0.347-0.312-0.351
		c-0.175-0.003-0.318,0.137-0.322,0.342c-0.007,0.389-0.005,0.777,0.002,1.166c0.004,0.199,0.134,0.326,0.311,0.328
		c0.189,0.001,0.313-0.127,0.319-0.336C-143.082-44.133-143.086-44.324-143.086-44.516z M-137.661-44.52c-0.002,0-0.002,0-0.002,0
		c0,0.196-0.002,0.395,0.004,0.592c0.002,0.189,0.121,0.314,0.293,0.324c0.172,0.009,0.322-0.105,0.328-0.29
		c0.014-0.417,0.012-0.835,0-1.253c-0.006-0.182-0.164-0.305-0.328-0.293c-0.168,0.012-0.289,0.143-0.293,0.328
		C-137.665-44.914-137.661-44.718-137.661-44.52z"/>
	<path fill-rule="evenodd" clip-rule="evenodd" fill="#FCFCFC" d="M-134.317-37.551c2.168-0.002,3.908,1.744,3.914,3.924
		c0.004,2.144-1.77,3.91-3.924,3.908c-2.154-0.004-3.912-1.763-3.912-3.915C-138.239-35.807-136.493-37.548-134.317-37.551z
		 M-130.983-33.643c-0.006-1.854-1.498-3.333-3.355-3.33c-1.846,0.002-3.326,1.503-3.324,3.363c0.006,1.832,1.521,3.313,3.383,3.311
		C-132.477-30.304-130.977-31.825-130.983-33.643z"/>
	<path fill-rule="evenodd" clip-rule="evenodd" fill="#FCFCFC" d="M-134.926-39.961c0.166,0,0.291,0.119,0.289,0.277
		c-0.002,0.159-0.125,0.28-0.289,0.281c-0.168,0.001-0.283-0.113-0.283-0.281C-135.209-39.854-135.098-39.962-134.926-39.961z"/>
	<path fill-rule="evenodd" clip-rule="evenodd" fill="#FCFCFC" d="M-145.824-38.148c0.173-0.001,0.286,0.109,0.286,0.275
		c0,0.168-0.114,0.283-0.282,0.285c-0.161,0.001-0.291-0.124-0.293-0.28C-146.115-38.025-145.99-38.147-145.824-38.148z"/>
	<path fill-rule="evenodd" clip-rule="evenodd" fill="#FCFCFC" d="M-142.19-38.147c0.173-0.001,0.282,0.106,0.282,0.277
		c0,0.167-0.115,0.281-0.283,0.281c-0.165-0.001-0.287-0.12-0.287-0.28C-142.479-38.029-142.357-38.147-142.19-38.147z"/>
	<path fill-rule="evenodd" clip-rule="evenodd" fill="#FCFCFC" d="M-145.539-36.063c0.003,0.169-0.109,0.285-0.278,0.287
		c-0.163,0.003-0.294-0.119-0.298-0.274c-0.004-0.157,0.122-0.282,0.285-0.285C-145.658-36.34-145.542-36.23-145.539-36.063z"/>
	<path fill-rule="evenodd" clip-rule="evenodd" fill="#FCFCFC" d="M-142.187-36.335c0.172,0.002,0.282,0.113,0.279,0.283
		c-0.001,0.164-0.122,0.28-0.289,0.277c-0.161-0.003-0.286-0.128-0.284-0.287C-142.479-36.223-142.354-36.339-142.187-36.335z"/>
	<path fill-rule="evenodd" clip-rule="evenodd" fill="#FCFCFC" d="M-145.539-34.242c-0.001,0.167-0.117,0.28-0.285,0.279
		c-0.163,0-0.291-0.124-0.29-0.281c0-0.157,0.126-0.278,0.292-0.278C-145.648-34.522-145.538-34.413-145.539-34.242z"/>
	<path fill-rule="evenodd" clip-rule="evenodd" fill="#FCFCFC" d="M-142.18-34.522c0.17,0.004,0.276,0.116,0.271,0.29
		c-0.004,0.165-0.124,0.274-0.293,0.27c-0.161-0.003-0.284-0.133-0.277-0.29C-142.473-34.416-142.351-34.524-142.18-34.522z"/>
	<path fill-rule="evenodd" clip-rule="evenodd" fill="#FCFCFC" d="M-143.991-34.522c0.169,0.007,0.276,0.126,0.269,0.295
		c-0.007,0.164-0.132,0.275-0.3,0.266c-0.159-0.008-0.285-0.144-0.275-0.298C-144.289-34.42-144.161-34.529-143.991-34.522z"/>
	<path fill-rule="evenodd" clip-rule="evenodd" fill="#FCFCFC" d="M-140.37-39.961c0.174,0.002,0.281,0.113,0.277,0.287
		c-0.004,0.16-0.115,0.27-0.277,0.271c-0.171,0.001-0.286-0.111-0.287-0.281C-140.658-39.854-140.545-39.962-140.37-39.961z"/>
	<path fill-rule="evenodd" clip-rule="evenodd" fill="#FCFCFC" d="M-136.737-39.961c0.17,0.001,0.279,0.113,0.277,0.282
		c-0.002,0.165-0.121,0.278-0.289,0.276c-0.168-0.003-0.279-0.117-0.277-0.287C-137.022-39.857-136.911-39.963-136.737-39.961z"/>
	<path fill-rule="evenodd" clip-rule="evenodd" fill="#FCFCFC" d="M-144.002-38.149c0.169,0.001,0.28,0.114,0.279,0.283
		c-0.002,0.167-0.12,0.279-0.288,0.277c-0.161-0.004-0.291-0.133-0.287-0.286C-144.295-38.033-144.168-38.15-144.002-38.149z"/>
	<path fill-rule="evenodd" clip-rule="evenodd" fill="#FCFCFC" d="M-144.004-36.335c0.174,0.001,0.282,0.11,0.281,0.281
		c-0.002,0.166-0.118,0.279-0.287,0.277c-0.163-0.001-0.289-0.126-0.288-0.283C-144.296-36.218-144.171-36.335-144.004-36.335z"/>
	<path fill-rule="evenodd" clip-rule="evenodd" fill="#FCFCFC" d="M-140.093-36.063c0.002,0.168-0.109,0.284-0.276,0.287
		c-0.167,0.003-0.286-0.109-0.289-0.274c-0.002-0.169,0.107-0.282,0.278-0.284C-140.206-36.339-140.096-36.233-140.093-36.063z"/>
	<path fill-rule="evenodd" clip-rule="evenodd" fill="#FCFCFC" d="M-140.092-37.876c0.003,0.165-0.111,0.286-0.275,0.288
		c-0.167,0.002-0.286-0.111-0.291-0.277c-0.004-0.167,0.107-0.282,0.278-0.284C-140.208-38.15-140.094-38.043-140.092-37.876z"/>
	<path fill-rule="evenodd" clip-rule="evenodd" fill="#FCFCFC" d="M-140.373-34.522c0.172,0.003,0.282,0.112,0.28,0.281
		c-0.002,0.167-0.116,0.279-0.285,0.279c-0.165,0-0.281-0.117-0.28-0.283C-140.657-34.414-140.545-34.523-140.373-34.522z"/>
	<path fill-rule="evenodd" clip-rule="evenodd" fill="#FCFCFC" d="M-138.561-39.962c0.17-0.001,0.285,0.108,0.287,0.275
		c0.002,0.163-0.117,0.284-0.281,0.285c-0.166,0.001-0.283-0.114-0.287-0.279C-138.844-39.85-138.733-39.962-138.561-39.962z"/>
	<path fill-rule="evenodd" clip-rule="evenodd" fill="#FCFCFC" d="M-138.555-38.148c0.172,0.001,0.281,0.111,0.279,0.281
		c-0.002,0.165-0.119,0.279-0.285,0.278c-0.168-0.003-0.281-0.117-0.279-0.285C-138.838-38.043-138.727-38.149-138.555-38.148z"/>
	<path fill-rule="evenodd" clip-rule="evenodd" fill="#FCFCFC" d="M-134.61-34.541c0-0.291-0.002-0.581,0-0.872
		c0.002-0.202,0.105-0.32,0.281-0.323c0.184-0.003,0.295,0.12,0.295,0.329c0.002,0.442,0.006,0.883-0.002,1.323
		c0,0.121,0.037,0.163,0.158,0.161c0.436-0.006,0.871-0.002,1.307-0.001c0.23,0,0.354,0.103,0.352,0.289
		c-0.004,0.18-0.133,0.288-0.361,0.288c-0.557,0.002-1.113,0.002-1.672,0c-0.252,0-0.357-0.108-0.357-0.36
		C-134.612-33.984-134.61-34.263-134.61-34.541z"/>
</g>
<g>
	<path fill-rule="evenodd" clip-rule="evenodd" fill="#FFFFFF" d="M-75.467-1.286c-0.166,0.535-0.545,0.708-1.08,0.704
		c-1.723-0.014-3.448-0.003-5.171-0.009c-0.164-0.001-0.327-0.061-0.49-0.076c-0.069-0.005-0.166,0.009-0.21,0.053
		c-0.172,0.178-0.347,0.358-0.491,0.557c-0.797,1.094-1.487,2.253-2.088,3.466c-0.042,0.084-0.063,0.188-0.061,0.281
		c0.006,0.651,0.003,1.303,0.045,1.953c0.039,0.637-0.299,0.998-0.785,1.188c-0.637,0.25-1.266,0.213-1.853-0.145
		c-0.146-0.088-0.282-0.234-0.356-0.385c-0.454-0.92-0.854-1.863-0.934-2.898c-0.027-0.351,0.05-0.713,0.1-1.066
		c0.077-0.546,0.174-1.087,0.271-1.669c-0.089,0-0.164,0-0.241,0c-1.338,0.002-2.678,0.003-4.017,0.003
		c-0.331,0-0.655-0.03-0.951-0.198c-0.38-0.216-0.594-0.551-0.695-0.967c-0.015-0.054-0.031-0.106-0.045-0.158
		c0-0.162,0-0.324,0-0.484c0.095-0.381,0.217-0.748,0.493-1.043c0.028-0.029,0.024-0.105,0.009-0.148
		c-0.247-0.6-0.167-1.172,0.168-1.705c0.144-0.221,0.21-0.393,0.122-0.674c-0.185-0.605,0.014-1.158,0.377-1.658
		c0.035-0.055,0.074-0.131,0.065-0.188c-0.021-0.152-0.079-0.299-0.099-0.451c-0.104-0.859,0.274-1.771,1.238-2.117
		c0.465-0.168,0.944-0.182,1.429-0.182c2.263,0,4.525,0.01,6.788-0.006c0.562-0.004,1.066,0.109,1.531,0.42
		c0.089,0.059,0.208,0.068,0.327,0.105c0.011-0.18,0.002-0.316,0.03-0.447c0.083-0.4,0.41-0.627,0.889-0.627
		c1.563-0.002,3.125,0.008,4.689-0.006c0.495-0.006,0.836,0.17,0.994,0.652C-75.467-6.57-75.467-3.928-75.467-1.286z M-87.605-0.134
		c-0.144,0.848-0.285,1.663-0.418,2.483c-0.054,0.341-0.14,0.69-0.111,1.028c0.081,0.913,0.448,1.745,0.839,2.563
		c0.021,0.041,0.054,0.094,0.092,0.109c0.398,0.16,0.801,0.22,1.198-0.003c0.137-0.075,0.203-0.169,0.197-0.34
		c-0.025-0.676-0.025-1.352-0.047-2.027c-0.009-0.23,0.03-0.444,0.146-0.641c0.579-0.98,1.161-1.961,1.736-2.942
		c0.496-0.841,1.146-1.521,2.014-1.981c0.125-0.064,0.166-0.152,0.166-0.295c-0.005-1.828-0.005-3.658-0.005-5.488
		c0-0.066,0-0.133,0-0.152c-0.271-0.08-0.546-0.096-0.739-0.23c-0.51-0.35-1.048-0.521-1.662-0.451
		C-84.247-8.496-84.297-8.5-84.346-8.5c-2.227,0-4.454,0-6.681,0c-0.412,0.002-0.803,0.074-1.118,0.367
		c-0.538,0.506-0.457,1.355,0.204,1.51c0.009,0.002,0.017,0.018,0.023,0.027c0.021,0.123-0.043,0.166-0.156,0.201
		c-0.496,0.139-0.777,0.488-0.872,0.984c-0.064,0.326,0.091,0.633,0.385,0.801c0.089,0.049,0.188,0.086,0.341,0.156
		c-0.088,0.076-0.144,0.156-0.217,0.18c-0.459,0.143-0.747,0.447-0.867,0.908c-0.093,0.361,0.045,0.682,0.369,0.871
		c0.095,0.057,0.197,0.098,0.294,0.145c0.003,0.129-0.045,0.188-0.174,0.221c-0.309,0.076-0.543,0.267-0.701,0.541
		c-0.197,0.34-0.267,0.697-0.069,1.061c0.191,0.35,0.526,0.396,0.88,0.396c1.627-0.002,3.252-0.002,4.875-0.002
		C-87.755-0.134-87.684-0.134-87.605-0.134z M-81.075-9.053c0,2.557,0,5.104,0,7.648c1.604,0,3.196,0,4.794,0
		c0-2.553,0-5.098,0-7.648C-77.882-9.053-79.469-9.053-81.075-9.053z"/>
</g>
<g>
	<path fill-rule="evenodd" clip-rule="evenodd" fill="#CBCBCB" d="M-28.367-13.942c0.087-0.267,0.153-0.542,0.266-0.797
		c0.159-0.355,0.426-0.63,0.757-0.838c0.649-0.411,1.296-0.824,1.953-1.224c0.291-0.176,0.41-0.406,0.42-0.748
		c0.011-0.396-0.047-0.729-0.334-1.036c-0.333-0.358-0.536-0.808-0.68-1.279c-0.02-0.064-0.067-0.125-0.114-0.177
		c-0.169-0.182-0.271-0.393-0.276-0.641c-0.007-0.359-0.023-0.72,0.006-1.078c0.015-0.177,0.125-0.346,0.19-0.519
		c0.028-0.075,0.07-0.15,0.072-0.226c0.008-0.293,0.008-0.587,0.003-0.88c-0.021-1.263,0.82-2.533,2.373-2.775
		c0.809-0.125,1.598-0.075,2.354,0.267c0.029,0.014,0.061,0.019,0.047,0.015c0.139-0.348,0.236-0.706,0.417-1.014
		c0.392-0.671,1.032-1.019,1.769-1.18c0.949-0.208,1.899-0.197,2.837,0.086c1.156,0.348,1.852,1.321,1.825,2.529
		c-0.011,0.498-0.006,0.996-0.002,1.494c0.002,0.061,0.021,0.132,0.057,0.181c0.164,0.224,0.227,0.477,0.228,0.748
		c0.003,0.332,0.003,0.665,0,0.996c-0.002,0.456-0.187,0.81-0.584,1.048c-0.05,0.03-0.095,0.092-0.116,0.149
		c-0.23,0.621-0.539,1.198-0.941,1.725c-0.032,0.041-0.057,0.099-0.058,0.148c-0.004,0.295-0.006,0.588,0.001,0.88
		c0.008,0.347,0.196,0.571,0.499,0.722c0.846,0.419,1.689,0.843,2.535,1.266c0.722,0.359,1.209,0.913,1.414,1.702
		c0.032,0.128,0.056,0.258,0.082,0.387c0,0.466,0,0.93,0,1.396c-0.062-0.004-0.121-0.009-0.182-0.009c-5.546,0-11.091,0-16.636,0
		c-0.061,0-0.121,0.005-0.182,0.009C-28.367-13.057-28.367-13.5-28.367-13.942z M-11.955-13.2c0-0.29,0.026-0.563-0.005-0.831
		c-0.076-0.631-0.397-1.117-0.948-1.439c-0.266-0.158-0.547-0.291-0.823-0.428c-0.647-0.324-1.295-0.649-1.942-0.971
		c-0.487-0.243-0.768-0.625-0.788-1.174c-0.016-0.377-0.008-0.752-0.005-1.128c0-0.049,0.029-0.107,0.062-0.146
		c0.479-0.585,0.818-1.244,1.06-1.959c0.02-0.06,0.086-0.125,0.146-0.148c0.259-0.099,0.421-0.271,0.428-0.551
		c0.01-0.387,0.016-0.775-0.007-1.161c-0.009-0.13-0.112-0.254-0.172-0.382c-0.035-0.08-0.095-0.161-0.098-0.243
		c-0.006-0.592-0.001-1.184,0.003-1.775c0.004-0.84-0.447-1.533-1.233-1.829c-1.003-0.378-2.031-0.38-3.044-0.062
		c-0.915,0.288-1.419,1.013-1.405,1.893c0.01,0.597,0.009,1.195,0.004,1.792c0,0.072-0.041,0.157-0.09,0.212
		c-0.11,0.126-0.186,0.259-0.186,0.431c0.001,0.371,0,0.741,0.001,1.112c0,0.196,0.09,0.344,0.236,0.471
		c0.068,0.06,0.133,0.148,0.155,0.234c0.182,0.718,0.508,1.363,0.951,1.954c0.042,0.058,0.067,0.14,0.069,0.211
		c0.007,0.303,0.001,0.608,0.004,0.912c0.005,0.594-0.253,1.023-0.778,1.304c-0.779,0.417-1.553,0.848-2.33,1.269
		c-1.039,0.561-1.223,1.419-1.121,2.432C-19.859-13.2-15.906-13.2-11.955-13.2z M-27.789-13.198
		c0.046,0.003,0.079,0.008,0.111,0.008c0.614,0.001,1.228,0.001,1.842,0.001c0.426,0,0.852-0.006,1.278,0.002
		c0.125,0.003,0.167-0.038,0.158-0.161c-0.009-0.132-0.003-0.266-0.002-0.398c0.011-0.987,0.416-1.76,1.267-2.279
		c0.311-0.188,0.632-0.367,0.959-0.527c0.325-0.159,0.613-0.38,0.946-0.524c0.233-0.102,0.451-0.237,0.671-0.362
		c0.26-0.15,0.401-0.375,0.405-0.679c0.004-0.264,0.006-0.531-0.001-0.796c-0.003-0.077-0.028-0.164-0.072-0.228
		c-0.396-0.573-0.701-1.189-0.893-1.859c-0.016-0.056-0.047-0.115-0.088-0.154c-0.255-0.246-0.361-0.548-0.357-0.896
		c0.003-0.337-0.012-0.676,0.006-1.012c0.009-0.178,0.026-0.381,0.119-0.524c0.148-0.232,0.163-0.469,0.155-0.724
		c-0.005-0.155-0.001-0.31-0.001-0.465c0-0.474,0.002-0.479-0.444-0.653c-0.641-0.251-1.303-0.275-1.975-0.16
		c-1.091,0.186-1.833,1.065-1.833,2.171c0,0.376-0.002,0.752,0.003,1.129c0.001,0.106-0.021,0.188-0.107,0.259
		c-0.126,0.104-0.181,0.242-0.175,0.411c0.008,0.276,0.006,0.553,0,0.83c-0.004,0.188,0.07,0.328,0.218,0.44
		c0.048,0.036,0.095,0.096,0.109,0.153c0.167,0.668,0.527,1.221,0.998,1.714c0.043,0.044,0.07,0.123,0.072,0.187
		c0.008,0.287,0.004,0.575,0.003,0.862c0,0.458-0.194,0.808-0.583,1.052c-0.666,0.415-1.332,0.831-1.993,1.252
		c-0.121,0.077-0.235,0.169-0.335,0.27C-27.784-14.399-27.842-13.82-27.789-13.198z"/>
</g>
<g>
	<path fill-rule="evenodd" clip-rule="evenodd" fill="#CBCBCB" d="M-56.877-68.418c-0.379-0.037-0.759-0.07-1.138-0.113
		c-1.846-0.205-3.61-0.686-5.268-1.543c-0.378-0.195-0.584-0.459-0.632-0.875c-0.118-0.986-0.149-1.971,0.146-2.938
		c0.251-0.816,0.782-1.379,1.605-1.615c1.117-0.32,2.153-0.801,3.127-1.43c0.29-0.186,0.597-0.135,0.765,0.127
		c0.166,0.256,0.086,0.561-0.205,0.748c-1.001,0.652-2.061,1.182-3.218,1.488c-0.711,0.188-1.059,0.662-1.178,1.342
		c-0.118,0.656-0.104,1.316-0.042,1.975c0.014,0.145,0.069,0.236,0.207,0.305c1.204,0.611,2.478,1.008,3.802,1.24
		c2.164,0.379,4.32,0.336,6.461-0.162c1.053-0.246,2.073-0.586,3.029-1.1c0.067-0.035,0.143-0.123,0.151-0.195
		c0.096-0.779,0.122-1.559-0.087-2.328c-0.146-0.533-0.479-0.893-1.03-1.043c-1.177-0.324-2.267-0.846-3.287-1.51
		c-0.18-0.115-0.301-0.266-0.297-0.486c0.004-0.393,0.423-0.631,0.772-0.439c0.197,0.107,0.384,0.234,0.576,0.348
		c0.816,0.484,1.682,0.852,2.595,1.113c0.847,0.244,1.389,0.811,1.644,1.65c0.259,0.848,0.255,1.719,0.178,2.594
		c-0.017,0.176-0.049,0.348-0.075,0.521c-0.04,0.273-0.195,0.453-0.437,0.586c-0.875,0.479-1.799,0.84-2.756,1.113
		c-1.168,0.334-2.363,0.525-3.577,0.592c-0.09,0.006-0.179,0.023-0.269,0.035C-55.835-68.418-56.356-68.418-56.877-68.418z"/>
	<path fill-rule="evenodd" clip-rule="evenodd" fill="#CBCBCB" d="M-55.786-87.045c0.208,0.035,0.415,0.064,0.622,0.106
		c0.773,0.154,1.45,0.491,1.996,1.073c0.586,0.625,0.896,1.379,1.009,2.211c0.163,1.198,0.144,2.394-0.175,3.569
		c-0.244,0.901-0.657,1.706-1.399,2.305c-0.725,0.583-1.57,0.791-2.479,0.767c-0.865-0.023-1.657-0.271-2.321-0.854
		c-0.571-0.501-0.94-1.133-1.179-1.845c-0.375-1.116-0.438-2.264-0.349-3.428c0.059-0.758,0.218-1.487,0.623-2.141
		c0.598-0.964,1.478-1.508,2.59-1.693c0.123-0.021,0.246-0.047,0.371-0.071C-56.246-87.045-56.017-87.045-55.786-87.045z
		 M-53.096-82.479c-0.023-0.297-0.035-0.6-0.075-0.9c-0.065-0.527-0.213-1.032-0.521-1.476c-0.426-0.617-1.027-0.951-1.761-1.078
		c-0.769-0.134-1.513-0.073-2.201,0.315c-0.855,0.483-1.213,1.284-1.338,2.213c-0.114,0.846-0.103,1.692,0.045,2.534
		c0.129,0.731,0.358,1.426,0.863,1.99c0.724,0.809,1.661,0.942,2.664,0.76c0.985-0.179,1.565-0.84,1.919-1.729
		C-53.165-80.692-53.097-81.578-53.096-82.479z"/>
</g>
<g>
	<path fill-rule="evenodd" clip-rule="evenodd" fill="#CBCBCB" d="M9.64,0.721c0.242,0,0.483,0,0.724,0
		c0.297,0.05,0.598,0.084,0.889,0.153c2.385,0.564,4.113,2.691,4.153,5.14c0.008,0.489,0.004,0.979,0.006,1.467
		c0,0.063,0,0.127,0,0.2c0.379,0,0.729-0.002,1.079,0c0.319,0.002,0.47,0.148,0.47,0.464c0.001,3.183,0.002,6.366-0.001,9.546
		c0,0.527-0.195,0.979-0.636,1.277c-0.218,0.146-0.491,0.209-0.74,0.311c-3.721,0-7.442,0-11.164,0
		C4.41,19.273,4.4,19.266,4.389,19.264c-0.796-0.109-1.355-0.785-1.351-1.68c0.014-3.121,0.005-6.244,0.005-9.366
		c0-0.414,0.125-0.537,0.543-0.538c0.33,0,0.66,0,1.006,0c0-0.492,0.003-0.962,0-1.432C4.584,5.327,4.771,4.45,5.208,3.636
		c0.729-1.358,1.833-2.27,3.317-2.697C8.888,0.834,9.268,0.792,9.64,0.721z M3.813,8.46c0,0.081,0,0.14,0,0.2
		c0,2.983,0,5.967,0,8.952c0,0.59,0.306,0.898,0.892,0.898c3.528,0,7.055,0,10.583,0c0.599,0,0.902-0.305,0.902-0.904
		c0.001-2.984,0.001-5.969,0-8.954c0-0.063-0.006-0.126-0.01-0.192C12.053,8.46,7.947,8.46,3.813,8.46z M13.086,7.673
		c0-0.575,0.006-1.129-0.002-1.685c-0.003-0.173-0.027-0.35-0.066-0.519c-0.382-1.623-1.845-2.621-3.495-2.39
		C8.109,3.279,6.964,4.547,6.921,5.976C6.905,6.506,6.914,7.038,6.913,7.569c0,0.034,0.009,0.067,0.014,0.104
		C8.982,7.673,11.026,7.673,13.086,7.673z M14.643,7.671c0-0.49-0.002-0.961,0-1.432c0.006-1.101-0.305-2.099-0.994-2.961
		C12.709,2.102,11.473,1.503,9.97,1.5C8.923,1.497,7.976,1.831,7.152,2.483c-0.943,0.747-1.56,1.708-1.708,2.904
		C5.351,6.132,5.389,6.893,5.369,7.646c0,0.009,0.014,0.018,0.017,0.021c0.25,0,0.495,0,0.748,0c0-0.479-0.01-0.943,0.004-1.408
		c0.009-0.3,0.021-0.607,0.083-0.899c0.432-2.029,2.28-3.321,4.338-3.046c1.504,0.201,2.816,1.359,3.17,2.83
		c0.089,0.366,0.118,0.75,0.137,1.128c0.023,0.462,0.006,0.926,0.006,1.399C14.135,7.671,14.378,7.671,14.643,7.671z"/>
	<path fill-rule="evenodd" clip-rule="evenodd" fill="#CBCBCB" d="M9.987,16.189c-0.23,0-0.459,0.004-0.688-0.002
		c-0.329-0.008-0.484-0.191-0.447-0.516c0.075-0.666,0.151-1.33,0.219-1.998C9.077,13.617,9.043,13.535,9,13.496
		c-0.454-0.408-0.631-0.916-0.501-1.502c0.137-0.617,0.538-1.01,1.153-1.176c0.855-0.229,1.793,0.432,1.879,1.311
		c0.055,0.557-0.124,1.006-0.534,1.375c-0.04,0.035-0.069,0.111-0.063,0.166c0.067,0.66,0.142,1.32,0.219,1.979
		c0.041,0.354-0.115,0.535-0.476,0.541C10.446,16.191,10.217,16.189,9.987,16.189z M10.333,15.4
		c-0.005-0.086-0.008-0.164-0.016-0.238c-0.057-0.521-0.101-1.047-0.18-1.564c-0.046-0.305,0.037-0.502,0.304-0.662
		c0.281-0.166,0.392-0.516,0.303-0.822c-0.096-0.328-0.382-0.553-0.717-0.561c-0.335-0.008-0.632,0.191-0.746,0.498
		c-0.127,0.342-0.008,0.703,0.316,0.912c0.18,0.117,0.313,0.244,0.286,0.479C9.84,13.795,9.8,14.148,9.761,14.502
		c-0.033,0.297-0.062,0.594-0.094,0.898C9.9,15.4,10.109,15.4,10.333,15.4z"/>
</g>
</svg>
