<?xml version="1.0" encoding="utf-8"?>
<!-- Generator: Adobe Illustrator 16.0.0, SVG Export Plug-In . SVG Version: 6.00 Build 0)  -->
<!DOCTYPE svg PUBLIC "-//W3C//DTD SVG 1.1//EN" "http://www.w3.org/Graphics/SVG/1.1/DTD/svg11.dtd">
<svg version="1.1" id="Capa_1" xmlns="http://www.w3.org/2000/svg" xmlns:xlink="http://www.w3.org/1999/xlink" x="0px" y="0px"
	 width="20px" height="20px" viewBox="0 0 20 20" enable-background="new 0 0 20 20" xml:space="preserve">
<g>
	<path fill-rule="evenodd" clip-rule="evenodd" fill="#CBCBCB" d="M18.762,15.82c-0.178,0.795-0.695,1.365-1.264,1.901
		c-0.125,0.117-0.252,0.233-0.365,0.359c-0.438,0.48-1.004,0.655-1.627,0.678c-0.73,0.024-1.439-0.116-2.133-0.332
		c-1.428-0.445-2.725-1.153-3.948-1.999c-2.021-1.399-3.769-3.092-5.264-5.043c-0.961-1.251-1.778-2.592-2.349-4.07
		c-0.277-0.72-0.491-1.456-0.549-2.231C1.26,5.045,1.246,5.008,1.237,4.97c0-0.217,0-0.434,0-0.65
		c0.01-0.037,0.026-0.074,0.031-0.112c0.059-0.502,0.24-0.945,0.614-1.299C2.064,2.735,2.235,2.552,2.409,2.37
		c0.505-0.53,1.062-0.981,1.806-1.131c0.148,0,0.297,0,0.445,0c1.051,0.225,1.661,1,2.243,1.804C7.231,3.497,7.512,3.978,7.65,4.53
		c0.163,0.649,0.002,1.22-0.425,1.718C7,6.511,6.763,6.768,6.509,7.005c-0.213,0.199-0.25,0.419-0.18,0.681
		c0.129,0.471,0.393,0.871,0.678,1.256c0.888,1.196,1.942,2.237,3.044,3.23c0.565,0.509,1.151,0.986,1.833,1.335
		c0.1,0.052,0.209,0.092,0.313,0.132c0.324,0.122,0.602,0.095,0.844-0.191c0.184-0.217,0.41-0.397,0.617-0.591
		c0.645-0.597,1.383-0.733,2.18-0.385c0.998,0.435,1.857,1.061,2.521,1.935c0.219,0.287,0.326,0.621,0.402,0.969
		C18.762,15.523,18.762,15.671,18.762,15.82z M15.379,18.202c0.279-0.057,0.568-0.082,0.828-0.184
		c0.197-0.077,0.377-0.232,0.529-0.387c0.393-0.397,0.795-0.79,1.131-1.231c0.432-0.563,0.408-1.139-0.023-1.699
		c-0.57-0.735-1.307-1.268-2.143-1.657c-0.621-0.288-1.188-0.186-1.686,0.282c-0.23,0.216-0.459,0.432-0.68,0.652
		c-0.244,0.24-0.527,0.349-0.867,0.314c-0.564-0.058-1.045-0.323-1.488-0.642c-1.658-1.183-3.062-2.628-4.333-4.206
		C6.29,9.001,5.984,8.519,5.794,7.974c-0.184-0.53-0.133-1.002,0.314-1.4c0.229-0.203,0.432-0.438,0.635-0.669
		c0.382-0.439,0.483-0.943,0.26-1.481C6.638,3.539,6.081,2.785,5.335,2.186c-0.588-0.471-1.17-0.492-1.769-0.033
		c-0.432,0.331-0.8,0.744-1.208,1.107C1.986,3.593,1.854,4.018,1.835,4.497c-0.029,0.716,0.12,1.405,0.341,2.08
		c0.542,1.649,1.425,3.115,2.476,4.482c1.43,1.86,3.1,3.48,5.026,4.828c1.181,0.826,2.435,1.521,3.816,1.96
		C14.105,18.042,14.729,18.17,15.379,18.202z"/>
</g>
</svg>
