<?xml version="1.0" encoding="utf-8"?>
<!-- Generator: Adobe Illustrator 16.0.0, SVG Export Plug-In . SVG Version: 6.00 Build 0)  -->
<!DOCTYPE svg PUBLIC "-//W3C//DTD SVG 1.1//EN" "http://www.w3.org/Graphics/SVG/1.1/DTD/svg11.dtd">
<svg version="1.1" id="Layer_1" xmlns="http://www.w3.org/2000/svg" xmlns:xlink="http://www.w3.org/1999/xlink" x="0px" y="0px"
	 width="30px" height="30px" viewBox="0 0 30 30" enable-background="new 0 0 30 30" xml:space="preserve">
<g>
	<g>
		<path fill="#19ACE0" d="M-30.688-3.302c-0.002-0.002-0.002-0.003-0.006-0.005c0-0.001-0.002-0.003-0.005-0.004
			c-0.428-0.424-1.042-0.552-1.604-0.333l-24.492,9.577c-0.648,0.254-1.027,0.887-0.945,1.578c0.083,0.69,0.601,1.216,1.291,1.309
			l11.971,1.615c0.022,0.002,0.04,0.021,0.043,0.042l1.615,11.97c0.092,0.689,0.619,1.209,1.309,1.292
			c0.063,0.008,0.126,0.011,0.188,0.011c0.615,0,1.159-0.368,1.39-0.956l9.577-24.493C-30.139-2.261-30.264-2.875-30.688-3.302z
			 M-56.254,7.381c-0.027-0.003-0.039-0.005-0.043-0.043c-0.004-0.039,0.007-0.043,0.032-0.054l22.917-8.96L-44.069,9.042
			C-44.138,9.022-56.254,7.381-56.254,7.381z M-41.284,22.266c-0.01,0.026-0.014,0.037-0.053,0.031
			c-0.039-0.004-0.042-0.016-0.045-0.043c0,0-1.641-12.116-1.661-12.185l10.72-10.719L-41.284,22.266z"/>
	</g>
</g>
<g>
	<g>
		<path fill="#19ACE0" d="M28.56,15c0-5.48-3.45-10.262-8.479-12.087c-0.445-0.161-0.936,0.068-1.096,0.511
			c-0.162,0.445,0.069,0.936,0.51,1.097C23.838,6.097,26.85,10.228,26.85,15c0,5.211-3.604,9.598-8.46,10.813l1.803-1.531
			c0.358-0.307,0.401-0.846,0.096-1.205c-0.304-0.361-0.847-0.404-1.206-0.096l-3.963,3.371c-0.495,0.42-0.36,1.236,0.269,1.457
			l4.909,1.74c0.445,0.158,0.935-0.074,1.093-0.521c0.156-0.445-0.077-0.934-0.521-1.092l-1.623-0.576
			C24.531,25.848,28.56,20.963,28.56,15z"/>
	</g>
</g>
<g>
	<g>
		<path fill="#19ACE0" d="M15.96,2.189L11.048,0.45c-0.444-0.156-0.933,0.077-1.09,0.521c-0.158,0.445,0.074,0.934,0.52,1.092
			l1.625,0.577C6.815,4.151,2.786,9.036,2.786,15c0,5.479,3.452,10.26,8.479,12.088c0.445,0.16,0.935-0.068,1.097-0.514
			c0.161-0.445-0.068-0.934-0.513-1.096C7.508,23.902,4.497,19.771,4.497,15c0-5.212,3.605-9.6,8.458-10.814l-1.801,1.533
			c-0.359,0.306-0.403,0.845-0.097,1.204c0.306,0.361,0.846,0.405,1.205,0.097l3.965-3.373C16.733,3.215,16.57,2.406,15.96,2.189z"
			/>
	</g>
</g>
</svg>
