<?xml version="1.0" encoding="utf-8"?>
<!-- Generator: Adobe Illustrator 16.0.0, SVG Export Plug-In . SVG Version: 6.00 Build 0)  -->
<!DOCTYPE svg PUBLIC "-//W3C//DTD SVG 1.1//EN" "http://www.w3.org/Graphics/SVG/1.1/DTD/svg11.dtd">
<svg version="1.1" id="Layer_1" xmlns="http://www.w3.org/2000/svg" xmlns:xlink="http://www.w3.org/1999/xlink" x="0px" y="0px"
	 width="15px" height="15px" viewBox="0 0 15 15" enable-background="new 0 0 15 15" xml:space="preserve">
<g>
	<g>
		<g>
			<path fill="#FFFFFF" d="M14.302,12.304l-3.24-3.242c-0.483,0.751-1.123,1.391-1.875,1.874l3.243,3.24
				c0.518,0.519,1.355,0.519,1.872,0C14.819,13.66,14.819,12.821,14.302,12.304z"/>
			<path fill="#FFFFFF" d="M11.159,5.733c0-2.926-2.374-5.298-5.3-5.298c-2.926,0-5.299,2.373-5.299,5.298
				c0,2.927,2.373,5.3,5.299,5.3C8.785,11.033,11.159,8.66,11.159,5.733z M5.859,9.708c-2.192,0-3.974-1.783-3.974-3.975
				c0-2.191,1.782-3.974,3.974-3.974c2.191,0,3.975,1.782,3.975,3.974C9.834,7.925,8.051,9.708,5.859,9.708z"/>
			<path fill="#FFFFFF" d="M2.769,5.733h0.883c0-1.218,0.99-2.208,2.208-2.208V2.643C4.155,2.643,2.769,4.029,2.769,5.733z"/>
		</g>
	</g>
</g>
</svg>
