<?xml version="1.0" encoding="utf-8"?>
<!-- Generator: Adobe Illustrator 16.0.0, SVG Export Plug-In . SVG Version: 6.00 Build 0)  -->
<!DOCTYPE svg PUBLIC "-//W3C//DTD SVG 1.1//EN" "http://www.w3.org/Graphics/SVG/1.1/DTD/svg11.dtd">
<svg version="1.1" id="Layer_1" xmlns="http://www.w3.org/2000/svg" xmlns:xlink="http://www.w3.org/1999/xlink" x="0px" y="0px"
	 width="30px" height="30px" viewBox="0 0 30 30" enable-background="new 0 0 30 30" xml:space="preserve">
<g>
	<g>
		<path fill="#19ACE0" d="M-30.688-3.302c-0.002-0.002-0.002-0.003-0.006-0.005c0-0.001-0.002-0.003-0.005-0.004
			c-0.428-0.424-1.042-0.552-1.604-0.333l-24.492,9.577c-0.648,0.254-1.027,0.887-0.945,1.578c0.083,0.69,0.601,1.216,1.291,1.309
			l11.971,1.615c0.022,0.002,0.04,0.021,0.043,0.042l1.615,11.97c0.092,0.689,0.619,1.209,1.309,1.292
			c0.063,0.008,0.126,0.011,0.188,0.011c0.615,0,1.159-0.368,1.39-0.956l9.577-24.493C-30.139-2.261-30.264-2.875-30.688-3.302z
			 M-56.254,7.381c-0.027-0.003-0.039-0.005-0.043-0.043c-0.004-0.039,0.007-0.043,0.032-0.054l22.917-8.96L-44.069,9.042
			C-44.138,9.022-56.254,7.381-56.254,7.381z M-41.284,22.266c-0.01,0.026-0.014,0.037-0.053,0.031
			c-0.039-0.004-0.042-0.016-0.045-0.043c0,0-1.641-12.116-1.661-12.185l10.72-10.719L-41.284,22.266z"/>
	</g>
</g>
<g>
	<g>
		<path fill="#19ACE0" d="M-49.599,41.736c0-5.48-3.45-10.262-8.479-12.087c-0.445-0.161-0.936,0.068-1.096,0.511
			c-0.162,0.445,0.069,0.936,0.51,1.098c4.343,1.576,7.354,5.707,7.354,10.479c0,5.212-3.604,9.599-8.46,10.813l1.803-1.531
			c0.358-0.307,0.401-0.846,0.096-1.205c-0.304-0.361-0.847-0.404-1.206-0.096l-3.963,3.371c-0.495,0.42-0.36,1.236,0.269,1.457
			l4.909,1.74c0.445,0.158,0.935-0.074,1.093-0.521c0.156-0.445-0.077-0.934-0.521-1.092l-1.623-0.576
			C-53.627,52.585-49.599,47.7-49.599,41.736z"/>
	</g>
</g>
<g>
	<g>
		<path fill="#19ACE0" d="M-62.198,28.926l-4.912-1.738c-0.444-0.156-0.933,0.076-1.09,0.521c-0.158,0.445,0.074,0.934,0.52,1.092
			l1.625,0.576c-5.287,1.512-9.316,6.396-9.316,12.359c0,5.479,3.452,10.261,8.479,12.089c0.445,0.16,0.935-0.068,1.097-0.514
			c0.161-0.445-0.068-0.934-0.513-1.096c-4.341-1.576-7.352-5.707-7.352-10.479c0-5.211,3.605-9.6,8.458-10.814l-1.801,1.533
			c-0.359,0.307-0.403,0.845-0.097,1.204c0.306,0.361,0.846,0.405,1.205,0.097l3.965-3.373
			C-61.425,29.953-61.588,29.143-62.198,28.926z"/>
	</g>
</g>
<g>
	<g>
		<path fill="#19ACE0" d="M-5.346,7.3c-0.47-0.469-1.032-0.703-1.69-0.703h-23.928c-0.659,0-1.222,0.234-1.691,0.703
			c-0.468,0.469-0.703,1.032-0.703,1.69v18.185c0,0.658,0.234,1.223,0.703,1.689c0.469,0.471,1.032,0.703,1.691,0.703h23.928
			c0.658,0,1.221-0.232,1.69-0.703c0.469-0.467,0.703-1.031,0.703-1.689V8.991C-4.643,8.333-4.877,7.77-5.346,7.3z M-6.558,27.176
			c0,0.129-0.047,0.242-0.142,0.338c-0.095,0.094-0.207,0.141-0.337,0.141h-23.928c-0.13,0-0.242-0.047-0.337-0.143
			c-0.094-0.094-0.142-0.207-0.142-0.336v-9.092h24.885V27.176L-6.558,27.176z M-6.558,12.34h-24.885V8.991
			c0-0.13,0.048-0.242,0.142-0.337c0.095-0.095,0.207-0.142,0.337-0.142h23.928c0.13,0,0.242,0.047,0.337,0.142
			s0.142,0.207,0.142,0.337V12.34L-6.558,12.34z"/>
		<rect x="-29.529" y="23.828" fill="#19ACE0" width="3.829" height="1.912"/>
		<rect x="-23.785" y="23.828" fill="#19ACE0" width="5.742" height="1.912"/>
	</g>
</g>
<g>
	<g>
		<path fill="#19ACE0" d="M23.308,22.891c-0.771-0.336-1.642-0.717-2.632-1.171l-0.045-0.021l-0.033,0.035
			c-0.334,0.321-0.7,0.626-1.096,0.906l-0.101,0.072l0.112,0.051c1.247,0.579,2.325,1.055,3.236,1.454
			c3.385,1.476,3.813,1.764,3.813,2.568c0,0.554-0.545,1.221-1.222,1.221H4.657c-0.676,0-1.221-0.667-1.221-1.221
			c0-0.805,0.428-1.093,3.813-2.568c0.912-0.399,1.991-0.875,3.235-1.454l0.112-0.051l-0.101-0.072
			c-0.394-0.28-0.762-0.585-1.093-0.906l-0.035-0.035L9.323,21.72c-0.992,0.454-1.863,0.835-2.63,1.171
			C3.278,24.379,2,24.937,2,26.785c0,1.392,1.266,2.658,2.657,2.658h20.685c1.392,0,2.657-1.267,2.657-2.658
			C27.999,24.937,26.722,24.379,23.308,22.891z"/>
	</g>
</g>
<g>
	<g>
		<path fill="#19ACE0" d="M25.11,9.222h-1.443c0-4.786-3.883-8.666-8.667-8.666c-4.786,0-8.667,3.88-8.667,8.666H4.889
			c-0.798,0-1.444,0.647-1.444,1.444V15c0,0.798,0.646,1.444,1.444,1.444h1.444c0.426,0,0.8-0.192,1.064-0.486
			c0.044,0.063,0.083,0.126,0.135,0.186c1,3.957,3.969,6.837,7.468,6.837c3.583,0,6.604-3.024,7.529-7.13
			c0.263,0.352,0.663,0.594,1.138,0.594h1.443c0.798,0,1.444-0.646,1.444-1.444v-4.333C26.555,9.869,25.908,9.222,25.11,9.222z
			 M6.333,15H4.889v-4.333h1.444V15z M15,21.544c-2.337,0-4.379-1.648-5.494-4.094c1.711,0.745,3.955,1.16,5.494,1.16
			c0.398,0,0.723-0.322,0.723-0.722S15.398,17.166,15,17.166c-2.539,0-5.248-1.016-6.157-1.739
			c-0.149-0.707-0.236-1.447-0.236-2.215c0-4.594,2.868-8.331,6.393-8.331c3.523,0,6.393,3.737,6.393,8.331
			C21.393,17.806,18.523,21.544,15,21.544z M22.205,9.395C21.009,5.9,18.229,3.445,15,3.445c-3.231,0-6.011,2.456-7.205,5.95
			C7.793,9.336,7.778,9.281,7.778,9.222C7.778,5.24,11.018,2,15,2c3.98,0,7.222,3.24,7.222,7.222
			C22.222,9.281,22.205,9.336,22.205,9.395z M25.11,15h-1.443v-4.333h1.443V15z"/>
	</g>
</g>
</svg>
