<?xml version="1.0" encoding="utf-8"?>
<!-- Generator: Adobe Illustrator 16.0.0, SVG Export Plug-In . SVG Version: 6.00 Build 0)  -->
<!DOCTYPE svg PUBLIC "-//W3C//DTD SVG 1.1//EN" "http://www.w3.org/Graphics/SVG/1.1/DTD/svg11.dtd">
<svg version="1.1" id="Capa_1" xmlns="http://www.w3.org/2000/svg" xmlns:xlink="http://www.w3.org/1999/xlink" x="0px" y="0px"
	 width="20px" height="20px" viewBox="0 0 20 20" enable-background="new 0 0 20 20" xml:space="preserve">
<g>
	<path fill="#CBCBCB" d="M9.201,19.348c-0.379-0.037-0.759-0.07-1.138-0.113c-1.846-0.205-3.61-0.686-5.268-1.543
		c-0.378-0.195-0.584-0.459-0.632-0.875c-0.118-0.986-0.149-1.971,0.146-2.938C2.56,13.063,3.09,12.5,3.914,12.264
		c1.117-0.32,2.153-0.801,3.127-1.43c0.29-0.186,0.597-0.135,0.765,0.127c0.166,0.256,0.086,0.561-0.205,0.748
		c-1,0.652-2.06,1.182-3.217,1.488c-0.711,0.188-1.059,0.662-1.178,1.342c-0.118,0.656-0.104,1.316-0.042,1.975
		c0.014,0.146,0.069,0.236,0.207,0.307c1.204,0.609,2.478,1.008,3.802,1.238c2.164,0.381,4.321,0.338,6.461-0.16
		c1.053-0.246,2.072-0.588,3.029-1.102c0.066-0.035,0.143-0.123,0.15-0.195c0.096-0.777,0.123-1.559-0.086-2.326
		c-0.146-0.533-0.48-0.895-1.031-1.043c-1.176-0.324-2.266-0.848-3.287-1.512c-0.18-0.113-0.301-0.266-0.297-0.484
		c0.004-0.395,0.424-0.631,0.771-0.439c0.197,0.107,0.385,0.234,0.576,0.348c0.816,0.484,1.684,0.852,2.596,1.113
		c0.848,0.244,1.389,0.811,1.645,1.65c0.258,0.848,0.254,1.719,0.178,2.594c-0.018,0.176-0.049,0.348-0.076,0.521
		c-0.039,0.271-0.193,0.451-0.436,0.586c-0.875,0.479-1.799,0.84-2.756,1.111c-1.168,0.334-2.363,0.525-3.578,0.594
		c-0.09,0.006-0.178,0.021-0.268,0.033C10.243,19.348,9.722,19.348,9.201,19.348z"/>
	<path fill="#CBCBCB" d="M10.292,0.72c0.208,0.035,0.415,0.064,0.622,0.106c0.773,0.154,1.451,0.491,1.996,1.073
		c0.586,0.625,0.896,1.379,1.01,2.211c0.162,1.198,0.145,2.394-0.176,3.569c-0.244,0.901-0.656,1.706-1.398,2.305
		c-0.725,0.584-1.57,0.792-2.479,0.768C9,10.729,8.208,10.48,7.544,9.898c-0.571-0.501-0.94-1.134-1.179-1.846
		c-0.376-1.115-0.439-2.263-0.35-3.427c0.059-0.758,0.218-1.487,0.623-2.141c0.598-0.964,1.478-1.508,2.59-1.693
		C9.353,0.771,9.476,0.744,9.601,0.72C9.832,0.72,10.062,0.72,10.292,0.72z M12.981,5.287c-0.023-0.297-0.035-0.6-0.074-0.9
		c-0.066-0.527-0.213-1.032-0.521-1.476c-0.426-0.617-1.027-0.951-1.762-1.078c-0.768-0.135-1.512-0.073-2.2,0.315
		C7.569,2.632,7.211,3.432,7.086,4.361C6.973,5.207,6.983,6.053,7.131,6.896c0.129,0.731,0.358,1.426,0.864,1.99
		c0.724,0.809,1.661,0.942,2.664,0.76c0.986-0.179,1.566-0.84,1.92-1.729C12.913,7.073,12.981,6.188,12.981,5.287z"/>
</g>
</svg>
