<?xml version="1.0" encoding="utf-8"?>
<!-- Generator: Adobe Illustrator 16.0.0, SVG Export Plug-In . SVG Version: 6.00 Build 0)  -->
<!DOCTYPE svg PUBLIC "-//W3C//DTD SVG 1.1//EN" "http://www.w3.org/Graphics/SVG/1.1/DTD/svg11.dtd">
<svg version="1.1" id="Layer_1" xmlns="http://www.w3.org/2000/svg" xmlns:xlink="http://www.w3.org/1999/xlink" x="0px" y="0px"
	 width="30px" height="30px" viewBox="0 0 30 30" enable-background="new 0 0 30 30" xml:space="preserve">
<g>
	<g>
		<g>
			<path fill="#FFFFFF" d="M15.01,29.217c7.951,0,14.422-6.467,14.422-14.42c0-7.952-6.471-14.421-14.422-14.421
				c-7.952,0-14.421,6.469-14.421,14.421C0.589,22.75,7.058,29.217,15.01,29.217z M15.01,1.817c7.158,0,12.979,5.822,12.979,12.979
				c0,7.158-5.82,12.979-12.979,12.979c-7.157,0-12.979-5.82-12.979-12.979C2.031,7.639,7.853,1.817,15.01,1.817z"/>
			<path fill="#FFFFFF" d="M12.286,19.361c0.143,0.142,0.324,0.212,0.512,0.212c0.189,0,0.37-0.07,0.512-0.212
				c0.282-0.282,0.282-0.734,0-1.021l-2.822-2.822h10.786c0.398,0,0.725-0.322,0.725-0.722s-0.325-0.723-0.725-0.723H10.487
				l2.822-2.824c0.282-0.284,0.282-0.735,0-1.017c-0.282-0.284-0.735-0.284-1.017,0l-4.051,4.052c-0.284,0.282-0.284,0.736,0,1.017
				L12.286,19.361z"/>
		</g>
	</g>
</g>
</svg>
