<?xml version="1.0" encoding="utf-8"?>
<!-- Generator: Adobe Illustrator 16.0.0, SVG Export Plug-In . SVG Version: 6.00 Build 0)  -->
<!DOCTYPE svg PUBLIC "-//W3C//DTD SVG 1.1//EN" "http://www.w3.org/Graphics/SVG/1.1/DTD/svg11.dtd">
<svg version="1.1" id="Layer_1" xmlns="http://www.w3.org/2000/svg" xmlns:xlink="http://www.w3.org/1999/xlink" x="0px" y="0px"
	 width="30px" height="30px" viewBox="0 0 30 30" enable-background="new 0 0 30 30" xml:space="preserve">
<g>
	<g>
		<g>
			<path fill="#FFFFFF" d="M15.01,29.217c7.951,0,14.422-6.467,14.422-14.42c0-7.952-6.471-14.421-14.422-14.421
				c-7.952,0-14.421,6.469-14.421,14.421C0.589,22.75,7.058,29.217,15.01,29.217z M15.01,1.817c7.158,0,12.979,5.822,12.979,12.979
				c0,7.158-5.82,12.979-12.979,12.979c-7.157,0-12.979-5.82-12.979-12.979C2.031,7.639,7.853,1.817,15.01,1.817z"/>
			<path fill="#FFFFFF" d="M16.945,10.227c-0.146-0.141-0.327-0.208-0.516-0.207c-0.188,0.002-0.369,0.075-0.51,0.218
				c-0.277,0.285-0.273,0.737,0.012,1.021l2.854,2.791L7.999,14.167c-0.398,0.004-0.72,0.33-0.716,0.729
				c0.005,0.4,0.333,0.719,0.732,0.715l10.787-0.117l-2.792,2.854c-0.277,0.286-0.273,0.738,0.012,1.018
				c0.285,0.281,0.738,0.275,1.019-0.012l4.006-4.097c0.281-0.284,0.276-0.739-0.012-1.016L16.945,10.227z"/>
		</g>
	</g>
</g>
</svg>
